<svg width="120" height="41" viewBox="0 0 120 41" fill="none" xmlns="http://www.w3.org/2000/svg">
<g clip-path="url(#clip0_5553_4324)">
<path d="M110.135 0.804085H9.53468C9.16798 0.804085 8.80568 0.804085 8.43995 0.806085C8.1338 0.808085 7.83009 0.813895 7.521 0.818785C6.84951 0.826687 6.17961 0.885761 5.5171 0.995495C4.85552 1.10762 4.21467 1.319 3.61622 1.6225C3.0185 1.92856 2.47235 2.32625 1.99757 2.80116C1.5203 3.27472 1.12246 3.8221 0.81935 4.42225C0.5154 5.02119 0.304641 5.66302 0.19435 6.32557C0.0830109 6.98727 0.0230984 7.65661 0.01515 8.32757C0.00587 8.63417 0.00489 8.94178 0 9.24842V32.3627C0.00489 32.6732 0.00587 32.974 0.01515 33.2846C0.0231008 33.9555 0.0830134 34.6248 0.19435 35.2865C0.304336 35.9494 0.515108 36.5916 0.81935 37.1908C1.12233 37.789 1.52022 38.3342 1.99757 38.8051C2.47054 39.2821 3.01705 39.6801 3.61622 39.9838C4.21467 40.2881 4.85545 40.5007 5.5171 40.6146C6.17972 40.7234 6.84956 40.7825 7.521 40.7914C7.83009 40.7982 8.1338 40.8021 8.43995 40.8021C8.80567 40.8041 9.168 40.8041 9.53468 40.8041H110.135C110.494 40.8041 110.859 40.8041 111.219 40.8021C111.523 40.8021 111.836 40.7982 112.141 40.7914C112.811 40.783 113.479 40.7239 114.141 40.6146C114.804 40.4999 115.448 40.2873 116.049 39.9838C116.647 39.6799 117.193 39.2819 117.666 38.8051C118.142 38.3323 118.541 37.7875 118.848 37.1908C119.15 36.5912 119.358 35.949 119.467 35.2865C119.578 34.6247 119.64 33.9556 119.652 33.2846C119.656 32.974 119.656 32.6732 119.656 32.3627C119.664 31.9994 119.664 31.6381 119.664 31.2689V10.3402C119.664 9.974 119.664 9.61072 119.656 9.24842C119.656 8.94178 119.656 8.63417 119.652 8.32753C119.64 7.65651 119.578 6.98732 119.467 6.32553C119.358 5.66337 119.149 5.02159 118.848 4.4222C118.23 3.21928 117.252 2.24011 116.049 1.62241C115.448 1.31965 114.804 1.10833 114.141 0.995405C113.48 0.885188 112.811 0.826093 112.141 0.818645C111.836 0.813765 111.523 0.807905 111.219 0.805955C110.859 0.803955 110.494 0.803955 110.135 0.803955V0.804085Z" fill="#A6A6A6"/>
<path d="M8.44484 39.9292C8.14016 39.9292 7.84284 39.9253 7.54055 39.9185C6.91433 39.9103 6.28957 39.8558 5.67141 39.7554C5.095 39.6561 4.53661 39.4715 4.01467 39.2075C3.49751 38.9457 3.02582 38.6025 2.61767 38.1909C2.20361 37.7842 1.85888 37.3124 1.59716 36.7944C1.33255 36.273 1.14942 35.7141 1.05416 35.1372C0.951281 34.5173 0.895621 33.8905 0.887656 33.2622C0.881316 33.0513 0.873016 32.3491 0.873016 32.3491V9.24854C0.873016 9.24854 0.881856 8.55713 0.887706 8.354C0.895332 7.72668 0.950669 7.10085 1.05324 6.48193C1.14868 5.90345 1.33194 5.34295 1.5967 4.81983C1.85746 4.30214 2.20027 3.83006 2.61184 3.42188C3.02294 3.00982 3.49614 2.6648 4.01418 2.39941C4.53492 2.13629 5.09225 1.95293 5.6675 1.85547C6.28769 1.75404 6.91462 1.6992 7.54301 1.69141L8.44533 1.6792H111.214L112.127 1.6919C112.75 1.6993 113.371 1.75365 113.985 1.85449C114.566 1.95317 115.13 2.13781 115.656 2.40234C116.694 2.93719 117.539 3.78336 118.071 4.82227C118.332 5.34178 118.512 5.89771 118.606 6.47119C118.71 7.09519 118.768 7.72594 118.78 8.3584C118.783 8.6416 118.783 8.9458 118.783 9.24854C118.791 9.62354 118.791 9.98047 118.791 10.3403V31.269C118.791 31.6323 118.791 31.9868 118.783 32.3442C118.783 32.6694 118.783 32.9673 118.779 33.2739C118.768 33.8951 118.71 34.5146 118.608 35.1274C118.515 35.7085 118.333 36.2717 118.068 36.7974C117.805 37.3098 117.462 37.7775 117.053 38.1831C116.644 38.5969 116.172 38.9421 115.653 39.2056C115.128 39.4716 114.566 39.6569 113.985 39.7554C113.367 39.8564 112.742 39.9109 112.116 39.9185C111.823 39.9253 111.517 39.9292 111.219 39.9292L110.135 39.9312L8.44484 39.9292Z" fill="black"/>
<path d="M24.7689 21.1048C24.7796 20.2701 25.0013 19.4517 25.4134 18.7258C25.8254 17.9998 26.4143 17.3899 27.1254 16.9527C26.6737 16.3076 26.0777 15.7766 25.3849 15.4021C24.6921 15.0275 23.9215 14.8197 23.1343 14.795C21.455 14.6188 19.8271 15.7999 18.9714 15.7999C18.0991 15.7999 16.7816 14.8125 15.3629 14.8417C14.4452 14.8714 13.5509 15.1382 12.767 15.6163C11.9831 16.0943 11.3364 16.7673 10.89 17.5696C8.95595 20.918 10.3985 25.8391 12.2511 28.5457C13.178 29.871 14.2613 31.3515 15.6788 31.299C17.0658 31.2414 17.5839 30.4145 19.2582 30.4145C20.9169 30.4145 21.403 31.299 22.8492 31.2656C24.3376 31.2414 25.2753 29.9344 26.1697 28.5965C26.8357 27.6521 27.3481 26.6084 27.6881 25.5039C26.8234 25.1382 26.0855 24.526 25.5664 23.7437C25.0472 22.9614 24.7699 22.0436 24.7689 21.1048Z" fill="white"/>
<path d="M22.0372 13.015C22.8488 12.0408 23.2486 10.7886 23.1518 9.52441C21.9119 9.65463 20.7667 10.2472 19.9442 11.184C19.542 11.6417 19.234 12.1741 19.0378 12.7509C18.8415 13.3277 18.7609 13.9375 18.8005 14.5454C19.4206 14.5518 20.0341 14.4174 20.5948 14.1523C21.1554 13.8872 21.6486 13.4984 22.0372 13.015Z" fill="white"/>
<path d="M42.3022 27.9439H37.5688L36.4321 31.3003H34.4272L38.9106 18.8823H40.9936L45.477 31.3003H43.438L42.3022 27.9439ZM38.0591 26.395H41.8111L39.9615 20.9478H39.9097L38.0591 26.395Z" fill="white"/>
<path d="M55.1597 26.7739C55.1597 29.5874 53.6538 31.395 51.3813 31.395C50.8057 31.4251 50.2332 31.2925 49.7294 31.0124C49.2256 30.7322 48.8109 30.3159 48.5327 29.811H48.4897V34.2954H46.6313V22.2465H48.4302V23.7524H48.4644C48.7553 23.2499 49.177 22.8357 49.6847 22.5539C50.1923 22.2721 50.7668 22.1331 51.3472 22.1518C53.645 22.1518 55.1597 23.9682 55.1597 26.7739ZM53.2495 26.7739C53.2495 24.9409 52.3022 23.7358 50.8569 23.7358C49.437 23.7358 48.4819 24.9663 48.4819 26.7739C48.4819 28.5981 49.437 29.8198 50.8569 29.8198C52.3022 29.8198 53.2495 28.6235 53.2495 26.7739Z" fill="white"/>
<path d="M65.1245 26.7739C65.1245 29.5874 63.6187 31.395 61.3462 31.395C60.7705 31.4251 60.198 31.2925 59.6942 31.0123C59.1905 30.7322 58.7757 30.3159 58.4976 29.811H58.4546V34.2954H56.5962V22.2465H58.395V23.7524H58.4292C58.7201 23.2499 59.1418 22.8357 59.6495 22.5539C60.1571 22.2721 60.7317 22.1331 61.312 22.1518C63.6099 22.1518 65.1245 23.9682 65.1245 26.7739ZM63.2144 26.7739C63.2144 24.9409 62.2671 23.7358 60.8218 23.7358C59.4018 23.7358 58.4468 24.9663 58.4468 26.7739C58.4468 28.5981 59.4018 29.8198 60.8218 29.8198C62.2671 29.8198 63.2144 28.6235 63.2144 26.7739H63.2144Z" fill="white"/>
<path d="M71.7104 27.8404C71.8481 29.0718 73.0444 29.8804 74.6792 29.8804C76.2456 29.8804 77.3726 29.0718 77.3726 27.9614C77.3726 26.9976 76.6929 26.4204 75.0835 26.0249L73.4741 25.6372C71.1939 25.0864 70.1353 24.02 70.1353 22.2896C70.1353 20.147 72.0024 18.6753 74.6538 18.6753C77.2778 18.6753 79.0767 20.147 79.1372 22.2896H77.2612C77.1489 21.0503 76.1245 20.3023 74.6274 20.3023C73.1303 20.3023 72.1059 21.0591 72.1059 22.1607C72.1059 23.0386 72.7602 23.5552 74.3608 23.9507L75.729 24.2866C78.2768 24.8891 79.3354 25.9126 79.3354 27.729C79.3354 30.0522 77.4848 31.5073 74.5415 31.5073C71.7876 31.5073 69.9282 30.0864 69.8081 27.8403L71.7104 27.8404Z" fill="white"/>
<path d="M83.3462 20.104V22.2466H85.0679V23.7183H83.3462V28.7095C83.3462 29.4849 83.6909 29.8462 84.4477 29.8462C84.6521 29.8426 84.8562 29.8283 85.0591 29.8032V31.2661C84.7188 31.3297 84.3729 31.3585 84.0268 31.352C82.1938 31.352 81.479 30.6635 81.479 28.9077V23.7183H80.1626V22.2466H81.479V20.104H83.3462Z" fill="white"/>
<path d="M86.065 26.7739C86.065 23.9253 87.7427 22.1353 90.3589 22.1353C92.9839 22.1353 94.6538 23.9253 94.6538 26.7739C94.6538 29.6304 92.9927 31.4126 90.3589 31.4126C87.7261 31.4126 86.065 29.6304 86.065 26.7739ZM92.7603 26.7739C92.7603 24.8198 91.8648 23.6665 90.3589 23.6665C88.853 23.6665 87.9585 24.8286 87.9585 26.7739C87.9585 28.7358 88.853 29.8804 90.3589 29.8804C91.8648 29.8804 92.7602 28.7358 92.7602 26.7739H92.7603Z" fill="white"/>
<path d="M96.186 22.2467H97.9585V23.7877H98.0015C98.1214 23.3064 98.4034 22.8811 98.8 22.5832C99.1966 22.2853 99.6836 22.133 100.179 22.152C100.393 22.1512 100.607 22.1745 100.816 22.2213V23.9596C100.546 23.877 100.264 23.839 99.981 23.8473C99.711 23.8363 99.4418 23.8839 99.192 23.9868C98.9421 24.0897 98.7175 24.2454 98.5335 24.4433C98.3496 24.6412 98.2106 24.8766 98.1262 25.1333C98.0417 25.3899 98.0139 25.6618 98.0444 25.9303V31.3004H96.186L96.186 22.2467Z" fill="white"/>
<path d="M109.384 28.6411C109.134 30.2847 107.534 31.4126 105.486 31.4126C102.852 31.4126 101.217 29.6479 101.217 26.8169C101.217 23.9771 102.861 22.1353 105.408 22.1353C107.913 22.1353 109.488 23.856 109.488 26.6011V27.2378H103.093V27.3501C103.064 27.6833 103.105 28.019 103.216 28.3348C103.326 28.6506 103.502 28.9394 103.732 29.182C103.963 29.4245 104.242 29.6153 104.552 29.7416C104.861 29.8679 105.195 29.9268 105.529 29.9145C105.968 29.9557 106.409 29.854 106.785 29.6245C107.162 29.3951 107.455 29.0502 107.62 28.6411L109.384 28.6411ZM103.102 25.939H107.628C107.645 25.6394 107.6 25.3396 107.495 25.0583C107.39 24.7771 107.229 24.5206 107.02 24.3048C106.812 24.0891 106.561 23.9187 106.283 23.8045C106.006 23.6903 105.708 23.6347 105.408 23.6411C105.105 23.6393 104.805 23.6975 104.525 23.8122C104.245 23.9269 103.99 24.096 103.776 24.3096C103.562 24.5233 103.392 24.7772 103.276 25.0569C103.16 25.3365 103.101 25.6363 103.102 25.939V25.939Z" fill="white"/>
<path d="M37.8262 9.53485C38.2158 9.50689 38.6068 9.56575 38.9709 9.70718C39.335 9.84861 39.6632 10.0691 39.9318 10.3527C40.2004 10.6363 40.4026 10.976 40.524 11.3473C40.6455 11.7186 40.6829 12.1122 40.6338 12.4997C40.6338 14.4059 39.6035 15.5017 37.8262 15.5017H35.6709V9.53485H37.8262ZM36.5977 14.6578H37.7227C38.0011 14.6745 38.2797 14.6288 38.5382 14.5242C38.7968 14.4196 39.0287 14.2587 39.2172 14.0531C39.4057 13.8475 39.546 13.6025 39.6279 13.3359C39.7097 13.0693 39.7311 12.7878 39.6904 12.5118C39.7282 12.237 39.7046 11.9572 39.6215 11.6926C39.5384 11.4279 39.3977 11.1849 39.2097 10.981C39.0216 10.7771 38.7908 10.6172 38.5337 10.513C38.2766 10.4088 37.9997 10.3627 37.7227 10.3781H36.5977V14.6578Z" fill="white"/>
<path d="M41.6807 13.2482C41.6524 12.9523 41.6862 12.6538 41.7801 12.3717C41.8739 12.0896 42.0257 11.8303 42.2256 11.6103C42.4256 11.3903 42.6693 11.2145 42.9411 11.0943C43.213 10.974 43.507 10.9119 43.8042 10.9119C44.1015 10.9119 44.3955 10.974 44.6673 11.0943C44.9392 11.2145 45.1829 11.3903 45.3828 11.6103C45.5828 11.8303 45.7345 12.0896 45.8284 12.3717C45.9222 12.6538 45.9561 12.9523 45.9278 13.2482C45.9566 13.5445 45.9232 13.8434 45.8296 14.126C45.736 14.4085 45.5843 14.6683 45.3843 14.8887C45.1843 15.1091 44.9404 15.2853 44.6683 15.4058C44.3962 15.5263 44.1019 15.5886 43.8042 15.5886C43.5066 15.5886 43.2123 15.5263 42.9402 15.4058C42.668 15.2853 42.4241 15.1091 42.2241 14.8887C42.0242 14.6683 41.8725 14.4085 41.7789 14.126C41.6853 13.8434 41.6519 13.5445 41.6807 13.2482ZM45.0137 13.2482C45.0137 12.2722 44.5752 11.7014 43.8057 11.7014C43.0332 11.7014 42.5987 12.2722 42.5987 13.2483C42.5987 14.2321 43.0333 14.7985 43.8057 14.7985C44.5752 14.7985 45.0137 14.2282 45.0137 13.2482H45.0137Z" fill="white"/>
<path d="M51.5733 15.5017H50.6514L49.7207 12.1853H49.6504L48.7237 15.5017H47.8106L46.5694 10.9988H47.4707L48.2774 14.4348H48.3438L49.2696 10.9988H50.1221L51.0479 14.4348H51.1182L51.9209 10.9988H52.8096L51.5733 15.5017Z" fill="white"/>
<path d="M53.8536 10.9988H54.709V11.7142H54.7754C54.8881 11.4572 55.0781 11.2419 55.319 11.0981C55.5598 10.9542 55.8396 10.8892 56.1192 10.9119C56.3383 10.8954 56.5583 10.9285 56.7629 11.0086C56.9675 11.0887 57.1514 11.2138 57.3011 11.3746C57.4508 11.5354 57.5624 11.7279 57.6276 11.9377C57.6928 12.1476 57.7099 12.3694 57.6778 12.5867V15.5017H56.7891V12.8099C56.7891 12.0862 56.4746 11.7264 55.8174 11.7264C55.6687 11.7194 55.5202 11.7448 55.3821 11.8006C55.244 11.8564 55.1197 11.9414 55.0176 12.0498C54.9154 12.1582 54.838 12.2874 54.7904 12.4285C54.7429 12.5697 54.7265 12.7194 54.7422 12.8675V15.5018H53.8535L53.8536 10.9988Z" fill="white"/>
<path d="M59.0938 9.24097H59.9825V15.5017H59.0938V9.24097Z" fill="white"/>
<path d="M61.2178 13.2483C61.1895 12.9524 61.2234 12.6538 61.3172 12.3717C61.4111 12.0896 61.5629 11.8303 61.7628 11.6103C61.9628 11.3903 62.2065 11.2146 62.4784 11.0943C62.7503 10.974 63.0443 10.9119 63.3416 10.9119C63.6389 10.9119 63.9329 10.974 64.2047 11.0943C64.4766 11.2146 64.7203 11.3903 64.9203 11.6103C65.1203 11.8303 65.272 12.0896 65.3659 12.3717C65.4598 12.6538 65.4936 12.9524 65.4653 13.2483C65.4942 13.5446 65.4607 13.8435 65.3671 14.1261C65.2734 14.4086 65.1217 14.6684 64.9217 14.8888C64.7217 15.1092 64.4778 15.2853 64.2057 15.4059C63.9335 15.5264 63.6392 15.5887 63.3416 15.5887C63.0439 15.5887 62.7496 15.5264 62.4775 15.4059C62.2053 15.2853 61.9614 15.1092 61.7614 14.8888C61.5614 14.6684 61.4097 14.4086 61.3161 14.1261C61.2225 13.8435 61.189 13.5446 61.2178 13.2483ZM64.5508 13.2483C64.5508 12.2723 64.1123 11.7015 63.3428 11.7015C62.5703 11.7015 62.1358 12.2723 62.1358 13.2483C62.1358 14.2322 62.5704 14.7986 63.3428 14.7986C64.1123 14.7986 64.5508 14.2283 64.5508 13.2483H64.5508Z" fill="white"/>
<path d="M66.4009 14.2283C66.4009 13.4177 67.0044 12.9504 68.0757 12.884L69.2954 12.8137V12.425C69.2954 11.9495 68.981 11.6809 68.3736 11.6809C67.8775 11.6809 67.5337 11.863 67.4351 12.1814H66.5747C66.6656 11.408 67.3931 10.9119 68.4146 10.9119C69.5435 10.9119 70.1802 11.4739 70.1802 12.425V15.5017H69.3247V14.8689H69.2544C69.1117 15.0959 68.9113 15.2809 68.6737 15.4051C68.4361 15.5294 68.1697 15.5883 67.9019 15.5759C67.7129 15.5956 67.5218 15.5754 67.341 15.5167C67.1603 15.458 66.9938 15.3621 66.8524 15.2351C66.711 15.1081 66.5977 14.9529 66.52 14.7795C66.4422 14.6061 66.4017 14.4183 66.4009 14.2283ZM69.2954 13.8435V13.467L68.1958 13.5373C67.5757 13.5788 67.2945 13.7898 67.2945 14.1868C67.2945 14.592 67.646 14.8279 68.1295 14.8279C68.2711 14.8422 68.4142 14.8279 68.5502 14.7858C68.6862 14.7437 68.8123 14.6747 68.9211 14.5829C69.0299 14.491 69.1191 14.3782 69.1834 14.2512C69.2477 14.1242 69.2858 13.9855 69.2954 13.8435Z" fill="white"/>
<path d="M71.3482 13.2483C71.3482 11.8255 72.0796 10.9241 73.2173 10.9241C73.4987 10.9111 73.778 10.9785 74.0226 11.1184C74.2671 11.2583 74.4667 11.4649 74.5982 11.7141H74.6646V9.24097H75.5533V15.5017H74.7017V14.7903H74.6314C74.4898 15.0378 74.2832 15.2418 74.0339 15.3803C73.7847 15.5188 73.5023 15.5864 73.2173 15.5759C72.0718 15.576 71.3482 14.6746 71.3482 13.2483ZM72.2662 13.2483C72.2662 14.2034 72.7164 14.7781 73.4693 14.7781C74.2183 14.7781 74.6812 14.1951 74.6812 13.2522C74.6812 12.3137 74.2134 11.7224 73.4693 11.7224C72.7212 11.7224 72.2661 12.301 72.2661 13.2483H72.2662Z" fill="white"/>
<path d="M79.23 13.2482C79.2017 12.9523 79.2356 12.6538 79.3294 12.3717C79.4232 12.0896 79.575 11.8303 79.7749 11.6103C79.9749 11.3903 80.2186 11.2145 80.4904 11.0943C80.7623 10.974 81.0563 10.9119 81.3536 10.9119C81.6508 10.9119 81.9448 10.974 82.2167 11.0943C82.4885 11.2145 82.7322 11.3903 82.9322 11.6103C83.1321 11.8303 83.2839 12.0896 83.3777 12.3717C83.4715 12.6538 83.5054 12.9523 83.4771 13.2482C83.5059 13.5445 83.4725 13.8434 83.3789 14.126C83.2853 14.4085 83.1336 14.6683 82.9336 14.8887C82.7336 15.1091 82.4897 15.2853 82.2176 15.4058C81.9455 15.5263 81.6512 15.5886 81.3536 15.5886C81.0559 15.5886 80.7616 15.5263 80.4895 15.4058C80.2173 15.2853 79.9735 15.1091 79.7735 14.8887C79.5735 14.6683 79.4218 14.4085 79.3282 14.126C79.2346 13.8434 79.2012 13.5445 79.23 13.2482ZM82.563 13.2482C82.563 12.2722 82.1245 11.7014 81.355 11.7014C80.5826 11.7014 80.148 12.2722 80.148 13.2483C80.148 14.2321 80.5826 14.7985 81.355 14.7985C82.1245 14.7985 82.563 14.2282 82.563 13.2482Z" fill="white"/>
<path d="M84.6695 10.9988H85.5249V11.7142H85.5913C85.704 11.4572 85.894 11.2419 86.1349 11.0981C86.3757 10.9542 86.6555 10.8892 86.9351 10.9119C87.1542 10.8954 87.3742 10.9285 87.5788 11.0086C87.7834 11.0887 87.9673 11.2138 88.117 11.3746C88.2667 11.5354 88.3783 11.7279 88.4435 11.9377C88.5087 12.1476 88.5258 12.3694 88.4937 12.5867V15.5017H87.605V12.8099C87.605 12.0862 87.2906 11.7264 86.6333 11.7264C86.4846 11.7194 86.3361 11.7448 86.198 11.8006C86.06 11.8564 85.9356 11.9414 85.8335 12.0498C85.7314 12.1582 85.6539 12.2874 85.6064 12.4285C85.5588 12.5697 85.5424 12.7194 85.5581 12.8675V15.5018H84.6695V10.9988Z" fill="white"/>
<path d="M93.5152 9.87769V11.0193H94.4908V11.7678H93.5152V14.0833C93.5152 14.5549 93.7095 14.7615 94.1519 14.7615C94.2651 14.7611 94.3783 14.7543 94.4908 14.741V15.4812C94.3312 15.5097 94.1695 15.5249 94.0074 15.5266C93.0191 15.5266 92.6255 15.1789 92.6255 14.3108V11.7678H91.9107V11.0192H92.6255V9.87769H93.5152Z" fill="white"/>
<path d="M95.7046 9.24097H96.5855V11.7224H96.6558C96.7739 11.4631 96.9691 11.2465 97.2148 11.1022C97.4605 10.9578 97.7448 10.8927 98.0288 10.9158C98.2467 10.9039 98.4646 10.9403 98.6669 11.0223C98.8692 11.1044 99.0509 11.2301 99.199 11.3904C99.3471 11.5507 99.458 11.7418 99.5238 11.9499C99.5896 12.1581 99.6086 12.3781 99.5796 12.5945V15.5017H98.69V12.8137C98.69 12.0945 98.355 11.7302 97.7271 11.7302C97.5744 11.7177 97.4207 11.7387 97.277 11.7917C97.1332 11.8448 97.0027 11.9286 96.8948 12.0374C96.7868 12.1461 96.7038 12.2771 96.6518 12.4213C96.5997 12.5654 96.5798 12.7192 96.5933 12.8718V15.5017H95.7047L95.7046 9.24097Z" fill="white"/>
<path d="M104.761 14.286C104.641 14.6975 104.379 15.0535 104.022 15.2916C103.666 15.5298 103.236 15.6349 102.81 15.5887C102.513 15.5965 102.219 15.5397 101.946 15.4222C101.674 15.3046 101.43 15.1292 101.232 14.9081C101.034 14.6869 100.887 14.4254 100.8 14.1416C100.713 13.8577 100.689 13.5585 100.73 13.2645C100.691 12.9696 100.715 12.6697 100.801 12.385C100.888 12.1003 101.034 11.8376 101.231 11.6145C101.428 11.3914 101.671 11.2132 101.942 11.092C102.214 10.9708 102.509 10.9094 102.806 10.9119C104.059 10.9119 104.815 11.7679 104.815 13.1819V13.492H101.635V13.5418C101.621 13.7071 101.642 13.8734 101.696 14.0302C101.75 14.1869 101.837 14.3306 101.95 14.4521C102.062 14.5735 102.2 14.67 102.352 14.7354C102.504 14.8008 102.669 14.8337 102.835 14.8318C103.047 14.8573 103.262 14.8191 103.453 14.7219C103.644 14.6247 103.802 14.4729 103.906 14.2859L104.761 14.286ZM101.635 12.8348H103.91C103.921 12.6837 103.9 12.5319 103.849 12.3891C103.798 12.2464 103.718 12.1159 103.614 12.0061C103.509 11.8962 103.383 11.8094 103.243 11.7513C103.103 11.6931 102.953 11.6648 102.801 11.6683C102.648 11.6664 102.495 11.6952 102.353 11.7532C102.21 11.8111 102.081 11.897 101.972 12.0057C101.864 12.1144 101.778 12.2438 101.72 12.3862C101.662 12.5286 101.633 12.6811 101.635 12.8348H101.635Z" fill="white"/>
</g>
<defs>
<clipPath id="clip0_5553_4324">
<rect width="119.664" height="40" fill="white" transform="translate(0 0.804199)"/>
</clipPath>
</defs>
</svg>
