<svg width="52" height="40" viewBox="0 0 52 40" fill="none" xmlns="http://www.w3.org/2000/svg">
<path fill-rule="evenodd" clip-rule="evenodd" d="M24.222 1.39214C24.6248 1.15479 25.071 1.00052 25.5343 0.938454C25.9977 0.876387 26.4688 0.907776 26.9198 1.03077C27.3709 1.15376 27.7927 1.36587 28.1604 1.65456C28.5281 1.94325 28.8342 2.30269 29.0607 2.71165M29.0607 2.71165L35.485 14.2879C35.4874 14.2919 35.4911 14.295 35.4955 14.2966H35.5095L46.573 9.37739L46.58 9.3739C47.1771 9.11099 47.8358 9.02023 48.4818 9.11185C49.1278 9.20347 49.7353 9.47382 50.2358 9.8924C50.7362 10.311 51.1097 10.8611 51.3141 11.4807C51.5185 12.1003 51.5457 12.7647 51.3925 13.3989L45.8135 37.0939C45.702 37.551 45.5 37.9812 45.2194 38.359C44.9389 38.7368 44.5855 39.0546 44.1802 39.2935C43.7748 39.5325 43.3257 39.6879 42.8593 39.7504C42.3929 39.8129 41.9187 39.7814 41.4647 39.6576H41.4577C31.3354 36.8549 20.6418 36.8549 10.5195 39.6576H10.5125C10.0585 39.7813 9.5843 39.8128 9.11794 39.7501C8.65158 39.6875 8.20252 39.5319 7.79728 39.2928C7.39204 39.0536 7.03885 38.7357 6.75857 38.3577C6.4783 37.9797 6.27664 37.5494 6.16549 37.0921L6.16199 37.0781L0.607494 13.4006V13.3936C0.45556 12.7598 0.483637 12.0961 0.688561 11.4774C0.893485 10.8586 1.26711 10.3094 1.76736 9.89158C2.2676 9.47374 2.87459 9.20389 3.51993 9.11242C4.16528 9.02096 4.82334 9.11152 5.41999 9.3739L5.42699 9.37739L16.4905 14.2949C16.4949 14.2968 16.4998 14.2974 16.5045 14.2966C16.5093 14.2958 16.5136 14.2933 16.5167 14.2896L22.9392 2.71165C23.2415 2.16526 23.6844 1.70968 24.222 1.39214M19.5582 16.0221C19.1263 16.7787 18.4293 17.3484 17.602 17.6212C16.7746 17.894 15.8754 17.8505 15.0782 17.4991L15.073 17.4974L4.01124 12.5781L4.01299 12.5886L9.56574 36.2661L9.56924 36.2731C9.57129 36.2752 9.57365 36.277 9.57624 36.2784C9.57877 36.2801 9.58163 36.2813 9.58464 36.2819C9.58764 36.2825 9.59074 36.2825 9.59374 36.2819C20.3248 33.3112 31.6612 33.3112 42.3922 36.2819L41.925 37.9706L42.3852 36.2819H42.3922C42.3957 36.2819 42.3992 36.2819 42.4027 36.2784C42.4047 36.2769 42.4065 36.2751 42.408 36.2731L42.4115 36.2696V36.2661L47.987 12.5886L47.9887 12.5781L36.927 17.4956L36.92 17.4991C36.1228 17.8502 35.2238 17.8934 34.3967 17.6203C33.5696 17.3472 32.8731 16.7772 32.4417 16.0204L32.4312 16.0029L26 4.40914L19.5582 16.0221Z" fill="url(#paint0_linear_5553_4184)"/>
<defs>
<linearGradient id="paint0_linear_5553_4184" x1="26.0007" y1="0.907471" x2="26.0007" y2="39.7816" gradientUnits="userSpaceOnUse">
<stop stop-color="#052E16"/>
<stop offset="0.5" stop-color="#22C55E"/>
<stop offset="1" stop-color="#65A30D"/>
</linearGradient>
</defs>
</svg>
