<svg width="44" height="47" viewBox="0 0 44 47" fill="none" xmlns="http://www.w3.org/2000/svg">
<path d="M43.4917 12.0047C43.2152 7.40657 39.3757 3.8042 34.7514 3.8042H32.5V2.0542C32.5 1.59007 32.3156 1.14495 31.9874 0.816762C31.6592 0.488574 31.2141 0.304199 30.75 0.304199C30.2859 0.304199 29.8407 0.488574 29.5126 0.816762C29.1844 1.14495 29 1.59007 29 2.0542V3.8042H15V2.0542C15 1.59007 14.8156 1.14495 14.4874 0.816762C14.1592 0.488574 13.7141 0.304199 13.25 0.304199C12.7859 0.304199 12.3407 0.488574 12.0126 0.816762C11.6844 1.14495 11.5 1.59007 11.5 2.0542V3.8042H9.24862C4.62337 3.8042 0.783869 7.40657 0.508244 12.0047C-0.0106311 20.6532 -0.00100613 29.426 0.537119 38.0788C0.810119 42.4731 4.33024 45.9932 8.72449 46.2662C13.1284 46.5401 17.5637 46.6766 21.9991 46.6766C26.4336 46.6766 30.8699 46.5401 35.2737 46.2662C39.668 45.9932 43.1881 42.4731 43.4611 38.0788C44.0001 29.4303 44.0097 20.6584 43.4917 12.0047ZM39.969 37.8618C39.8879 39.1378 39.3444 40.3405 38.4403 41.2446C37.5363 42.1486 36.3336 42.6921 35.0576 42.7732C26.3934 43.3113 17.6066 43.3113 8.94237 42.7732C7.66638 42.6921 6.46372 42.1486 5.55964 41.2446C4.65556 40.3405 4.11208 39.1378 4.03099 37.8618C3.62082 31.1841 3.52826 24.4907 3.75362 17.8042H40.2472C40.4677 24.4892 40.3829 31.2118 39.969 37.8618ZM13.25 10.8042C13.7141 10.8042 14.1592 10.6198 14.4874 10.2916C14.8156 9.96345 15 9.51833 15 9.0542V7.3042H29V9.0542C29 9.51833 29.1844 9.96345 29.5126 10.2916C29.8407 10.6198 30.2859 10.8042 30.75 10.8042C31.2141 10.8042 31.6592 10.6198 31.9874 10.2916C32.3156 9.96345 32.5 9.51833 32.5 9.0542V7.3042H34.7514C37.5277 7.3042 39.8325 9.46107 39.9979 12.2138C40.039 12.9086 40.0565 13.6077 40.0906 14.3042H3.90937C3.94437 13.6077 3.96099 12.9086 4.00212 12.2138C4.16749 9.46107 6.47137 7.3042 9.24862 7.3042H11.5V9.0542C11.5 9.51833 11.6844 9.96345 12.0126 10.2916C12.3407 10.6198 12.7859 10.8042 13.25 10.8042Z" fill="url(#paint0_linear_5553_4191)"/>
<path d="M13.25 28.3042C14.6997 28.3042 15.875 27.1289 15.875 25.6792C15.875 24.2295 14.6997 23.0542 13.25 23.0542C11.8003 23.0542 10.625 24.2295 10.625 25.6792C10.625 27.1289 11.8003 28.3042 13.25 28.3042Z" fill="url(#paint1_linear_5553_4191)"/>
<path d="M22 28.3042C23.4497 28.3042 24.625 27.1289 24.625 25.6792C24.625 24.2295 23.4497 23.0542 22 23.0542C20.5503 23.0542 19.375 24.2295 19.375 25.6792C19.375 27.1289 20.5503 28.3042 22 28.3042Z" fill="url(#paint2_linear_5553_4191)"/>
<path d="M13.25 37.0542C14.6997 37.0542 15.875 35.8789 15.875 34.4292C15.875 32.9795 14.6997 31.8042 13.25 31.8042C11.8003 31.8042 10.625 32.9795 10.625 34.4292C10.625 35.8789 11.8003 37.0542 13.25 37.0542Z" fill="url(#paint3_linear_5553_4191)"/>
<path d="M30.75 28.3042C32.1997 28.3042 33.375 27.1289 33.375 25.6792C33.375 24.2295 32.1997 23.0542 30.75 23.0542C29.3003 23.0542 28.125 24.2295 28.125 25.6792C28.125 27.1289 29.3003 28.3042 30.75 28.3042Z" fill="url(#paint4_linear_5553_4191)"/>
<path d="M30.75 37.0542C32.1997 37.0542 33.375 35.8789 33.375 34.4292C33.375 32.9795 32.1997 31.8042 30.75 31.8042C29.3003 31.8042 28.125 32.9795 28.125 34.4292C28.125 35.8789 29.3003 37.0542 30.75 37.0542Z" fill="url(#paint5_linear_5553_4191)"/>
<path d="M22 37.0542C23.4497 37.0542 24.625 35.8789 24.625 34.4292C24.625 32.9795 23.4497 31.8042 22 31.8042C20.5503 31.8042 19.375 32.9795 19.375 34.4292C19.375 35.8789 20.5503 37.0542 22 37.0542Z" fill="url(#paint6_linear_5553_4191)"/>
<defs>
<linearGradient id="paint0_linear_5553_4191" x1="21.9996" y1="0.304199" x2="21.9996" y2="46.6766" gradientUnits="userSpaceOnUse">
<stop stop-color="#052E16"/>
<stop offset="0.5" stop-color="#22C55E"/>
<stop offset="1" stop-color="#65A30D"/>
</linearGradient>
<linearGradient id="paint1_linear_5553_4191" x1="13.25" y1="23.0542" x2="13.25" y2="28.3042" gradientUnits="userSpaceOnUse">
<stop stop-color="#052E16"/>
<stop offset="0.5" stop-color="#22C55E"/>
<stop offset="1" stop-color="#65A30D"/>
</linearGradient>
<linearGradient id="paint2_linear_5553_4191" x1="22" y1="23.0542" x2="22" y2="28.3042" gradientUnits="userSpaceOnUse">
<stop stop-color="#052E16"/>
<stop offset="0.5" stop-color="#22C55E"/>
<stop offset="1" stop-color="#65A30D"/>
</linearGradient>
<linearGradient id="paint3_linear_5553_4191" x1="13.25" y1="31.8042" x2="13.25" y2="37.0542" gradientUnits="userSpaceOnUse">
<stop stop-color="#052E16"/>
<stop offset="0.5" stop-color="#22C55E"/>
<stop offset="1" stop-color="#65A30D"/>
</linearGradient>
<linearGradient id="paint4_linear_5553_4191" x1="30.75" y1="23.0542" x2="30.75" y2="28.3042" gradientUnits="userSpaceOnUse">
<stop stop-color="#052E16"/>
<stop offset="0.5" stop-color="#22C55E"/>
<stop offset="1" stop-color="#65A30D"/>
</linearGradient>
<linearGradient id="paint5_linear_5553_4191" x1="30.75" y1="31.8042" x2="30.75" y2="37.0542" gradientUnits="userSpaceOnUse">
<stop stop-color="#052E16"/>
<stop offset="0.5" stop-color="#22C55E"/>
<stop offset="1" stop-color="#65A30D"/>
</linearGradient>
<linearGradient id="paint6_linear_5553_4191" x1="22" y1="31.8042" x2="22" y2="37.0542" gradientUnits="userSpaceOnUse">
<stop stop-color="#052E16"/>
<stop offset="0.5" stop-color="#22C55E"/>
<stop offset="1" stop-color="#65A30D"/>
</linearGradient>
</defs>
</svg>
