<svg width="135" height="41" viewBox="0 0 135 41" fill="none" xmlns="http://www.w3.org/2000/svg">
<g clip-path="url(#clip0_5553_4323)">
<path fill-rule="evenodd" clip-rule="evenodd" d="M129.998 40.8042H5.00184C2.24512 40.8042 0 38.5498 0 35.8042V5.8042C0 3.04859 2.24512 0.804199 5.00184 0.804199H129.998C132.752 0.804199 135 3.04859 135 5.8042V35.8042C135 38.5498 132.752 40.8042 129.998 40.8042Z" fill="black"/>
<path fill-rule="evenodd" clip-rule="evenodd" d="M129.998 1.6047C132.31 1.6047 134.203 3.49248 134.203 5.8042V35.8042C134.203 38.1159 132.323 40.0037 129.998 40.0037H5.00184C2.68967 40.0037 0.797215 38.1159 0.797215 35.8042V5.8042C0.797215 3.49248 2.67725 1.6047 5.00184 1.6047H129.998ZM129.998 0.804199H5.00184C2.24512 0.804199 0 3.05856 0 5.8042V35.8042C0 38.5598 2.24512 40.8042 5.00184 40.8042H129.998C132.752 40.8042 135 38.5598 135 35.8042V5.8042C135 3.05856 132.752 0.804199 129.998 0.804199Z" fill="#A6A6A6"/>
<path d="M71.1183 14.0362C70.2168 14.0362 69.4569 13.7195 68.8558 13.096C68.2598 12.49 67.927 11.6546 67.9419 10.8017C67.9419 9.89152 68.2499 9.12095 68.8558 8.50997C69.4544 7.88653 70.2143 7.56982 71.1159 7.56982C72.0074 7.56982 72.7674 7.88653 73.3783 8.50997C73.9843 9.1409 74.2923 9.91147 74.2923 10.8017C74.2823 11.7145 73.9744 12.485 73.3783 13.0935C72.7798 13.7219 72.0199 14.0362 71.1183 14.0362ZM44.2938 14.0362C43.4122 14.0362 42.6473 13.7244 42.0214 13.1085C41.4005 12.495 41.0851 11.7195 41.0851 10.8042C41.0851 9.88903 41.4005 9.11347 42.0214 8.5C42.6348 7.88404 43.3998 7.57232 44.2938 7.57232C44.7309 7.57232 45.1556 7.6596 45.5629 7.83666C45.9628 8.00873 46.2881 8.24314 46.529 8.52992L46.5886 8.60224L45.9156 9.26558L45.846 9.18329C45.4661 8.72943 44.9569 8.50748 44.2839 8.50748C43.6829 8.50748 43.1589 8.72194 42.7267 9.14588C42.2921 9.57232 42.0711 10.1309 42.0711 10.8067C42.0711 11.4825 42.2921 12.0411 42.7267 12.4676C43.1589 12.8915 43.6829 13.106 44.2839 13.106C44.9246 13.106 45.4636 12.8915 45.8833 12.4676C46.1316 12.2182 46.2856 11.8691 46.3403 11.4277H44.1821V10.495H47.2666L47.279 10.5798C47.3014 10.7369 47.3237 10.899 47.3237 11.0486C47.3237 11.909 47.0654 12.6047 46.5538 13.1185C45.9727 13.7269 45.2127 14.0362 44.2938 14.0362ZM79.9597 13.904H79.0085L76.0953 9.22319L76.1201 10.0661V13.9015H75.169V7.70449H76.2542L76.2841 7.75187L79.0234 12.1608L78.9985 11.3204V7.70449H79.9597V13.904ZM63.9708 13.904H63.0072V8.63716H61.3357V7.70449H65.6397V8.63716H63.9683V13.904H63.9708ZM60.551 13.904H59.5898V7.70449H60.551V13.904ZM55.1493 13.904H54.1882V8.63716H52.5168V7.70449H56.8207V8.63716H55.1493V13.904ZM51.9083 13.894H48.2228V7.70449H51.9083V8.63716H49.1864V10.3379H51.6426V11.2606H49.1864V12.9613H51.9083V13.894ZM69.5612 12.4551C69.9908 12.8865 70.5124 13.1035 71.1183 13.1035C71.7417 13.1035 72.2508 12.8915 72.6755 12.4551C73.0977 12.0312 73.3113 11.4751 73.3113 10.8042C73.3113 10.1334 73.0977 9.57481 72.678 9.15337C72.2483 8.72194 71.7243 8.50499 71.1208 8.50499C70.4975 8.50499 69.9883 8.71696 69.5661 9.15337C69.1439 9.57731 68.9304 10.1334 68.9304 10.8042C68.9304 11.4751 69.1414 12.0337 69.5612 12.4551Z" fill="white"/>
<path fill-rule="evenodd" clip-rule="evenodd" d="M67.8526 22.5599C65.5056 22.5599 63.6032 24.3479 63.6032 26.8142C63.6032 29.2581 65.5181 31.0686 67.8526 31.0686C70.1995 31.0686 72.1019 29.2681 72.1019 26.8142C72.1019 24.3479 70.1995 22.5599 67.8526 22.5599ZM67.8526 29.3828C66.5686 29.3828 65.4634 28.3155 65.4634 26.8042C65.4634 25.2706 66.5711 24.2257 67.8526 24.2257C69.1366 24.2257 70.2417 25.2706 70.2417 26.8042C70.2442 28.3254 69.1366 29.3828 67.8526 29.3828ZM58.5815 22.5599C56.2346 22.5599 54.3322 24.3479 54.3322 26.8142C54.3322 29.2581 56.247 31.0686 58.5815 31.0686C60.9285 31.0686 62.8309 29.2681 62.8309 26.8142C62.8309 24.3479 60.926 22.5599 58.5815 22.5599ZM58.5815 29.3828C57.2975 29.3828 56.1924 28.3155 56.1924 26.8042C56.1924 25.2706 57.3 24.2257 58.5815 24.2257C59.8655 24.2257 60.9707 25.2706 60.9707 26.8042C60.9707 28.3254 59.8655 29.3828 58.5815 29.3828ZM47.5497 23.8591V25.6596H51.8536C51.722 26.6696 51.3892 27.4152 50.8801 27.9264C50.2493 28.5599 49.2757 29.2481 47.5596 29.2481C44.9146 29.2481 42.8458 27.1035 42.8458 24.4476C42.8458 21.7918 44.9146 19.6471 47.5596 19.6471C48.9876 19.6471 50.0282 20.2132 50.8006 20.9364L52.0722 19.6596C50.9993 18.6272 49.5713 17.8367 47.5695 17.8367C43.9411 17.8367 40.8963 20.8043 40.8963 24.4377C40.8963 28.0811 43.9386 31.0387 47.5695 31.0387C49.529 31.0387 50.9993 30.3953 52.1616 29.1833C53.3462 27.9938 53.7213 26.3155 53.7213 24.9614C53.7213 24.5399 53.689 24.1609 53.6219 23.8392H47.5472C47.5497 23.8367 47.5497 23.8591 47.5497 23.8591ZM92.6731 25.2606C92.3179 24.3055 91.245 22.5499 89.0446 22.5499C86.8641 22.5499 85.0511 24.2731 85.0511 26.8042C85.0511 29.1933 86.8442 31.0586 89.2557 31.0586C91.1929 31.0586 92.3204 29.8691 92.7848 29.1708L91.3469 28.2033C90.87 28.914 90.2069 29.3803 89.2657 29.3803C88.3145 29.3803 87.6489 28.9464 87.2068 28.091L92.8717 25.7344C92.8717 25.7369 92.6731 25.2606 92.6731 25.2606ZM86.8964 26.6821C86.8516 25.0387 88.1679 24.2033 89.1092 24.2033C89.8518 24.2033 90.4702 24.5698 90.6813 25.1035L86.8964 26.6821ZM82.2944 30.8042H84.1545V18.3055H82.2944V30.8042ZM79.2396 23.505H79.1725C78.7528 23.0038 77.9556 22.5499 76.9374 22.5499C74.8239 22.5499 72.8768 24.4177 72.8768 26.8167C72.8768 29.2057 74.8139 31.0511 76.9374 31.0511C77.9432 31.0511 78.7528 30.5948 79.1725 30.0836H79.2396V30.6945C79.2396 32.318 78.3753 33.1933 76.9821 33.1933C75.8421 33.1933 75.1343 32.3703 74.8462 31.6821L73.2294 32.3604C73.6939 33.4826 74.9332 34.8716 76.9796 34.8716C79.1601 34.8716 81.0079 33.5823 81.0079 30.4377V22.8043H79.2495V23.505C79.252 23.505 79.2396 23.505 79.2396 23.505ZM77.1038 29.3828C75.8198 29.3828 74.7469 28.3055 74.7469 26.8167C74.7469 25.3155 75.8198 24.2282 77.1038 24.2282C78.3753 24.2282 79.3613 25.3279 79.3613 26.8167C79.3737 28.3055 78.3778 29.3828 77.1038 29.3828ZM101.383 18.3055H96.9348V30.8042H98.795V26.0711H101.385C103.444 26.0711 105.468 24.5723 105.468 22.1933C105.468 19.8142 103.452 18.3055 101.383 18.3055ZM101.437 24.3254H98.7925V20.0362H101.437C102.831 20.0362 103.618 21.1908 103.618 22.1808C103.618 23.1609 102.821 24.3254 101.437 24.3254ZM112.924 22.5374C111.573 22.5374 110.18 23.1384 109.603 24.4476L111.252 25.1359C111.608 24.4476 112.258 24.2132 112.946 24.2132C113.91 24.2132 114.883 24.7918 114.906 25.8242V25.9564C114.573 25.7668 113.843 25.4776 112.969 25.4776C111.188 25.4776 109.382 26.4551 109.382 28.288C109.382 29.9663 110.843 31.0437 112.469 31.0437C113.719 31.0437 114.407 30.4776 114.836 29.8217H114.903V30.7893H116.696V26.0013C116.696 23.7718 115.047 22.5374 112.924 22.5374ZM112.69 29.3828C112.082 29.3828 111.23 29.0836 111.23 28.3155C111.23 27.3479 112.293 26.9813 113.2 26.9813C114.019 26.9813 114.407 27.1584 114.893 27.4028C114.759 28.5249 113.815 29.3728 112.69 29.3828ZM123.238 22.8043L121.102 28.2257H121.035L118.822 22.8043H116.821L120.141 30.3828L118.249 34.5948H120.186L125.294 22.8043H123.238ZM106.494 30.8042H108.354V18.3055H106.494V30.8042Z" fill="white"/>
<path fill-rule="evenodd" clip-rule="evenodd" d="M10.3911 8.33784C10.1031 8.64956 9.93666 9.12587 9.93666 9.74931V31.8615C9.93666 32.485 10.1031 32.9613 10.4011 33.2605L10.4781 33.3279L22.8163 20.9388V20.662L10.4681 8.27051L10.3911 8.33784Z" fill="url(#paint0_linear_5553_4323)"/>
<path fill-rule="evenodd" clip-rule="evenodd" d="M26.9214 25.081L22.8062 20.9488V20.6595L26.9214 16.5273L27.0108 16.5822L31.8786 19.3603C33.2719 20.1483 33.2719 21.45 31.8786 22.248L27.0108 25.0261L26.9214 25.081Z" fill="url(#paint1_linear_5553_4323)"/>
<path fill-rule="evenodd" clip-rule="evenodd" d="M27.0109 25.0261L22.8063 20.8042L10.3911 33.2705C10.8456 33.7593 11.608 33.8142 12.4599 33.3379L27.0109 25.0261Z" fill="url(#paint2_linear_5553_4323)"/>
<path fill-rule="evenodd" clip-rule="evenodd" d="M27.0109 16.5821L12.4599 8.28289C11.608 7.79412 10.8431 7.86145 10.3911 8.35023L22.8063 20.8041L27.0109 16.5821Z" fill="url(#paint3_linear_5553_4323)"/>
<path opacity="0.2" fill-rule="evenodd" clip-rule="evenodd" d="M26.9215 24.9365L12.4698 33.1809C11.6626 33.6472 10.9424 33.6148 10.4779 33.1909L10.401 33.2682L10.4779 33.3355C10.9424 33.7569 11.6626 33.7919 12.4698 33.3255L27.0209 25.0263L26.9215 24.9365Z" fill="black"/>
<path opacity="0.12" fill-rule="evenodd" clip-rule="evenodd" d="M31.8787 22.1035L26.9091 24.9364L26.9985 25.0261L31.8662 22.2481C32.5641 21.8491 32.9068 21.3254 32.9068 20.8042C32.8646 21.283 32.5095 21.7369 31.8787 22.1035Z" fill="black"/>
<path opacity="0.25" fill-rule="evenodd" clip-rule="evenodd" d="M12.4599 8.42774L31.8787 19.505C32.5095 19.8617 32.8647 20.328 32.9193 20.8043C32.9193 20.2831 32.5766 19.7594 31.8787 19.3604L12.4599 8.2831C11.0667 7.4826 9.93666 8.15093 9.93666 9.74943V9.89407C9.93666 8.29307 11.0667 7.63721 12.4599 8.42774Z" fill="white"/>
</g>
<defs>
<linearGradient id="paint0_linear_5553_4323" x1="21.7096" y1="9.51074" x2="1.93515" y2="14.758" gradientUnits="userSpaceOnUse">
<stop stop-color="#00A0FF"/>
<stop offset="0.00657" stop-color="#00A1FF"/>
<stop offset="0.2601" stop-color="#00BEFF"/>
<stop offset="0.5122" stop-color="#00D2FF"/>
<stop offset="0.7604" stop-color="#00DFFF"/>
<stop offset="1" stop-color="#00E3FF"/>
</linearGradient>
<linearGradient id="paint1_linear_5553_4323" x1="33.6955" y1="20.8042" x2="9.5978" y2="20.8042" gradientUnits="userSpaceOnUse">
<stop stop-color="#FFE000"/>
<stop offset="0.4087" stop-color="#FFBD00"/>
<stop offset="0.7754" stop-color="#FFA500"/>
<stop offset="1" stop-color="#FF9C00"/>
</linearGradient>
<linearGradient id="paint2_linear_5553_4323" x1="24.7246" y1="23.1015" x2="8.76182" y2="49.858" gradientUnits="userSpaceOnUse">
<stop stop-color="#FF3A44"/>
<stop offset="1" stop-color="#C31162"/>
</linearGradient>
<linearGradient id="paint3_linear_5553_4323" x1="7.2648" y1="0.982882" x2="14.3865" y2="12.9328" gradientUnits="userSpaceOnUse">
<stop stop-color="#32A071"/>
<stop offset="0.0685" stop-color="#2DA771"/>
<stop offset="0.4762" stop-color="#15CF74"/>
<stop offset="0.8009" stop-color="#06E775"/>
<stop offset="1" stop-color="#00F076"/>
</linearGradient>
<clipPath id="clip0_5553_4323">
<rect width="135" height="40" fill="white" transform="translate(0 0.804199)"/>
</clipPath>
</defs>
</svg>
