<svg width="43" height="44" viewBox="0 0 43 44" fill="none" xmlns="http://www.w3.org/2000/svg">
<path d="M11.8726 10.59C11.2525 9.96935 10.2463 9.96935 9.62621 10.59C7.32369 12.8925 6.192 16.1 6.52088 19.3907C6.60294 20.2105 7.29354 20.8216 8.10004 20.8216C8.15303 20.8216 8.20645 20.8189 8.25944 20.8136C9.13271 20.7262 9.76973 19.9472 9.68239 19.0745C9.44833 16.736 10.2469 14.4621 11.8726 12.8363C12.4933 12.2163 12.4933 11.2101 11.8726 10.59Z" fill="black"/>
<path d="M11.8726 10.59C11.2525 9.96935 10.2463 9.96935 9.62621 10.59C7.32369 12.8925 6.192 16.1 6.52088 19.3907C6.60294 20.2105 7.29354 20.8216 8.10004 20.8216C8.15303 20.8216 8.20645 20.8189 8.25944 20.8136C9.13271 20.7262 9.76973 19.9472 9.68239 19.0745C9.44833 16.736 10.2469 14.4621 11.8726 12.8363C12.4933 12.2163 12.4933 11.2101 11.8726 10.59Z" fill="url(#paint0_linear_5553_4204)"/>
<path d="M18.1638 0.804199C8.14825 0.804199 0 8.95245 0 18.968C0 28.9836 8.14825 37.1318 18.1638 37.1318C28.1794 37.1318 36.3276 28.9836 36.3276 18.968C36.3276 8.95245 28.1793 0.804199 18.1638 0.804199ZM18.1638 33.9544C9.90008 33.9544 3.17738 27.2317 3.17738 18.968C3.17738 10.7043 9.90008 3.98158 18.1638 3.98158C26.427 3.98158 33.1502 10.7043 33.1502 18.968C33.1502 27.2317 26.4275 33.9544 18.1638 33.9544Z" fill="black"/>
<path d="M18.1638 0.804199C8.14825 0.804199 0 8.95245 0 18.968C0 28.9836 8.14825 37.1318 18.1638 37.1318C28.1794 37.1318 36.3276 28.9836 36.3276 18.968C36.3276 8.95245 28.1793 0.804199 18.1638 0.804199ZM18.1638 33.9544C9.90008 33.9544 3.17738 27.2317 3.17738 18.968C3.17738 10.7043 9.90008 3.98158 18.1638 3.98158C26.427 3.98158 33.1502 10.7043 33.1502 18.968C33.1502 27.2317 26.4275 33.9544 18.1638 33.9544Z" fill="url(#paint1_linear_5553_4204)"/>
<path d="M42.5347 41.0923L30.9903 29.548C30.3696 28.9274 29.3645 28.9274 28.7438 29.548C28.1232 30.1681 28.1232 31.1743 28.7438 31.7944L40.2883 43.3387C40.4356 43.4865 40.6106 43.6037 40.8034 43.6836C40.9962 43.7635 41.2028 43.8045 41.4115 43.8042C41.8182 43.8042 42.2243 43.6491 42.5347 43.3387C43.1552 42.7186 43.1552 41.7125 42.5347 41.0923Z" fill="black"/>
<path d="M42.5347 41.0923L30.9903 29.548C30.3696 28.9274 29.3645 28.9274 28.7438 29.548C28.1232 30.1681 28.1232 31.1743 28.7438 31.7944L40.2883 43.3387C40.4356 43.4865 40.6106 43.6037 40.8034 43.6836C40.9962 43.7635 41.2028 43.8045 41.4115 43.8042C41.8182 43.8042 42.2243 43.6491 42.5347 43.3387C43.1552 42.7186 43.1552 41.7125 42.5347 41.0923Z" fill="url(#paint2_linear_5553_4204)"/>
<defs>
<linearGradient id="paint0_linear_5553_4204" x1="9.40151" y1="10.1245" x2="9.40151" y2="20.8216" gradientUnits="userSpaceOnUse">
<stop stop-color="#052E16"/>
<stop offset="0.5" stop-color="#22C55E"/>
<stop offset="1" stop-color="#65A30D"/>
</linearGradient>
<linearGradient id="paint1_linear_5553_4204" x1="18.1638" y1="0.804199" x2="18.1638" y2="37.1318" gradientUnits="userSpaceOnUse">
<stop stop-color="#052E16"/>
<stop offset="0.5" stop-color="#22C55E"/>
<stop offset="1" stop-color="#65A30D"/>
</linearGradient>
<linearGradient id="paint2_linear_5553_4204" x1="35.6392" y1="29.0825" x2="35.6392" y2="43.8042" gradientUnits="userSpaceOnUse">
<stop stop-color="#052E16"/>
<stop offset="0.5" stop-color="#22C55E"/>
<stop offset="1" stop-color="#65A30D"/>
</linearGradient>
</defs>
</svg>
