<svg width="42" height="46" viewBox="0 0 42 46" fill="none" xmlns="http://www.w3.org/2000/svg">
<path d="M35.3967 32.7209H6.60335V36.2209H35.3967V32.7209ZM34.0084 15.5195L34.8133 22.6245L38.29 22.2302L37.4873 15.1275L34.0084 15.5195ZM7.18668 22.6245L7.99168 15.5195L4.51268 15.1275L3.71001 22.2302L7.18668 22.6245ZM4.72968 28.3249C6.09468 26.7195 6.94635 24.7315 7.18668 22.6245L3.71001 22.2302C3.55256 23.6409 2.97915 24.9729 2.06268 26.0569L4.72968 28.3249ZM34.8133 22.6245C35.0487 24.7263 35.9039 26.7106 37.2703 28.3249L39.9373 26.0569C39.0208 24.973 38.4473 23.6409 38.29 22.2302L34.8133 22.6245ZM6.60335 32.7209C4.53368 32.7209 3.22001 30.1029 4.72968 28.3249L2.06268 26.0569C-1.25065 29.9535 1.34868 36.2209 6.60335 36.2209V32.7209ZM35.3967 36.2209C40.6513 36.2209 43.2483 29.9559 39.9373 26.0569L37.2703 28.3249C38.7823 30.1029 37.4663 32.7209 35.3967 32.7209V36.2209ZM37.4873 15.1275C36.5167 6.57587 29.4653 0.0541992 21 0.0541992V3.5542C27.6033 3.5542 33.2313 8.6572 34.0084 15.5195L37.4873 15.1275ZM7.99168 15.5195C8.76868 8.6572 14.3967 3.5542 21 3.5542V0.0541992C12.5347 0.0541992 5.48335 6.57587 4.51268 15.1275L7.99168 15.5195ZM29.638 39.7512C29.7269 39.5344 29.7713 39.3019 29.7687 39.0676C29.7661 38.8333 29.7164 38.6019 29.6226 38.3872C29.5289 38.1724 29.3929 37.9787 29.2229 37.8175C29.0529 37.6562 28.8522 37.5308 28.6328 37.4486C28.4133 37.3664 28.1796 37.3291 27.9455 37.3389C27.7114 37.3487 27.4816 37.4055 27.2699 37.5057C27.0581 37.606 26.8686 37.7478 26.7127 37.9227C26.5567 38.0976 26.4375 38.302 26.362 38.5239L29.638 39.7512ZM15.638 38.5239C15.5626 38.302 15.4433 38.0976 15.2874 37.9227C15.1314 37.7478 14.9419 37.606 14.7302 37.5057C14.5184 37.4055 14.2886 37.3487 14.0545 37.3389C13.8204 37.3291 13.5867 37.3664 13.3673 37.4486C13.1478 37.5308 12.9472 37.6562 12.7771 37.8175C12.6071 37.9787 12.4712 38.1724 12.3774 38.3872C12.2836 38.6019 12.234 38.8333 12.2313 39.0676C12.2287 39.3019 12.2731 39.5344 12.362 39.7512L15.638 38.5239ZM26.362 38.5239C25.6083 40.5305 23.5317 42.0542 21 42.0542V45.5542C24.9317 45.5542 28.3547 43.1812 29.638 39.7512L26.362 38.5239ZM21 42.0542C18.4683 42.0542 16.3917 40.5329 15.638 38.5239L12.362 39.7512C13.6453 43.1812 17.0683 45.5542 21 45.5542V42.0542Z" fill="url(#paint0_linear_5553_4214)"/>
<defs>
<linearGradient id="paint0_linear_5553_4214" x1="20.9995" y1="0.0541992" x2="20.9995" y2="45.5542" gradientUnits="userSpaceOnUse">
<stop stop-color="#052E16"/>
<stop offset="0.5" stop-color="#22C55E"/>
<stop offset="1" stop-color="#65A30D"/>
</linearGradient>
</defs>
</svg>
