<svg width="43" height="49" viewBox="0 0 43 49" fill="none" xmlns="http://www.w3.org/2000/svg">
<path d="M40.4697 8.47374C38.091 7.65664 36.1856 5.74023 35.3721 3.34758C34.8548 1.82603 33.4305 0.804199 31.8274 0.804199H11.1726C9.56986 0.804199 8.14522 1.82603 7.62792 3.34758C6.81444 5.74032 4.90903 7.65664 2.53034 8.47364C1.01683 8.99399 0 10.4226 0 12.0289V17.254C0 24.0724 2.0431 30.6376 5.90857 36.2402C9.4453 41.3663 14.3189 45.3777 20.0031 47.8412C20.4757 48.0456 20.9851 48.1508 21.5 48.1504C22.0105 48.1504 22.5209 48.0475 22.9966 47.8412C28.6807 45.3781 33.5543 41.3662 37.0912 36.2402C40.9565 30.6376 43 24.072 43 17.254V12.0289C43 10.4225 41.9832 8.9939 40.4697 8.47374ZM40.2258 17.254C40.2258 23.5067 38.3521 29.5272 34.8074 34.6649C31.5663 39.363 27.1004 43.0392 21.8934 45.2956C21.7691 45.3493 21.6352 45.377 21.4998 45.377C21.3644 45.377 21.2305 45.3493 21.1063 45.2956C15.8989 43.0392 11.4335 39.363 8.19219 34.6649C4.64788 29.5276 2.77419 23.5071 2.77419 17.254V12.0289C2.77419 11.6069 3.03867 11.2327 3.43195 11.0977C6.61617 10.0034 9.16686 7.44016 10.2544 4.2405C10.3892 3.84462 10.758 3.57839 11.1727 3.57839H31.8274C32.2417 3.57839 32.6108 3.84462 32.7457 4.2405C33.8332 7.44026 36.3838 10.0034 39.568 11.0976C39.9614 11.2327 40.2258 11.6069 40.2258 12.0288V17.254Z" fill="black"/>
<path d="M40.4697 8.47374C38.091 7.65664 36.1856 5.74023 35.3721 3.34758C34.8548 1.82603 33.4305 0.804199 31.8274 0.804199H11.1726C9.56986 0.804199 8.14522 1.82603 7.62792 3.34758C6.81444 5.74032 4.90903 7.65664 2.53034 8.47364C1.01683 8.99399 0 10.4226 0 12.0289V17.254C0 24.0724 2.0431 30.6376 5.90857 36.2402C9.4453 41.3663 14.3189 45.3777 20.0031 47.8412C20.4757 48.0456 20.9851 48.1508 21.5 48.1504C22.0105 48.1504 22.5209 48.0475 22.9966 47.8412C28.6807 45.3781 33.5543 41.3662 37.0912 36.2402C40.9565 30.6376 43 24.072 43 17.254V12.0289C43 10.4225 41.9832 8.9939 40.4697 8.47374ZM40.2258 17.254C40.2258 23.5067 38.3521 29.5272 34.8074 34.6649C31.5663 39.363 27.1004 43.0392 21.8934 45.2956C21.7691 45.3493 21.6352 45.377 21.4998 45.377C21.3644 45.377 21.2305 45.3493 21.1063 45.2956C15.8989 43.0392 11.4335 39.363 8.19219 34.6649C4.64788 29.5276 2.77419 23.5071 2.77419 17.254V12.0289C2.77419 11.6069 3.03867 11.2327 3.43195 11.0977C6.61617 10.0034 9.16686 7.44016 10.2544 4.2405C10.3892 3.84462 10.758 3.57839 11.1727 3.57839H31.8274C32.2417 3.57839 32.6108 3.84462 32.7457 4.2405C33.8332 7.44026 36.3838 10.0034 39.568 11.0976C39.9614 11.2327 40.2258 11.6069 40.2258 12.0288V17.254Z" fill="url(#paint0_linear_5553_4228)"/>
<path d="M27.3942 18.7885H27.2999V14.8382C27.2999 11.6403 24.698 9.03833 21.5001 9.03833C18.3022 9.03833 15.7003 11.6403 15.7003 14.8382V18.7885H15.606C13.7642 18.7885 12.2659 20.2872 12.2659 22.1291V30.1121C12.2659 33.5423 15.0567 36.3335 18.4865 36.3335H24.5138C27.944 36.3335 30.7345 33.5423 30.7345 30.1121V22.1292C30.7345 20.2873 29.2361 18.7886 27.3942 18.7886V18.7885ZM18.4745 14.8382C18.4745 13.17 19.832 11.8125 21.5001 11.8125C23.1683 11.8125 24.5258 13.17 24.5258 14.8382V18.7889H18.4744L18.4745 14.8382ZM27.9603 30.1122C27.9603 32.0129 26.4143 33.559 24.5138 33.559H18.4864C16.5861 33.559 15.04 32.0129 15.04 30.1121V22.1292C15.0402 21.9791 15.0999 21.8353 15.206 21.7292C15.3121 21.6231 15.456 21.5634 15.6061 21.5633H27.3942C27.5442 21.5634 27.6881 21.6231 27.7942 21.7292C27.9003 21.8353 27.96 21.9791 27.9602 22.1292L27.9603 30.1122Z" fill="black"/>
<path d="M27.3942 18.7885H27.2999V14.8382C27.2999 11.6403 24.698 9.03833 21.5001 9.03833C18.3022 9.03833 15.7003 11.6403 15.7003 14.8382V18.7885H15.606C13.7642 18.7885 12.2659 20.2872 12.2659 22.1291V30.1121C12.2659 33.5423 15.0567 36.3335 18.4865 36.3335H24.5138C27.944 36.3335 30.7345 33.5423 30.7345 30.1121V22.1292C30.7345 20.2873 29.2361 18.7886 27.3942 18.7886V18.7885ZM18.4745 14.8382C18.4745 13.17 19.832 11.8125 21.5001 11.8125C23.1683 11.8125 24.5258 13.17 24.5258 14.8382V18.7889H18.4744L18.4745 14.8382ZM27.9603 30.1122C27.9603 32.0129 26.4143 33.559 24.5138 33.559H18.4864C16.5861 33.559 15.04 32.0129 15.04 30.1121V22.1292C15.0402 21.9791 15.0999 21.8353 15.206 21.7292C15.3121 21.6231 15.456 21.5634 15.6061 21.5633H27.3942C27.5442 21.5634 27.6881 21.6231 27.7942 21.7292C27.9003 21.8353 27.96 21.9791 27.9602 22.1292L27.9603 30.1122Z" fill="url(#paint1_linear_5553_4228)"/>
<path d="M21.5 24.8638C20.7339 24.8638 20.1129 25.4847 20.1129 26.2509V28.8716C20.1129 29.6377 20.7339 30.2587 21.5 30.2587C22.2662 30.2587 22.8871 29.6377 22.8871 28.8716V26.2509C22.8871 25.4847 22.2662 24.8638 21.5 24.8638Z" fill="black"/>
<path d="M21.5 24.8638C20.7339 24.8638 20.1129 25.4847 20.1129 26.2509V28.8716C20.1129 29.6377 20.7339 30.2587 21.5 30.2587C22.2662 30.2587 22.8871 29.6377 22.8871 28.8716V26.2509C22.8871 25.4847 22.2662 24.8638 21.5 24.8638Z" fill="url(#paint2_linear_5553_4228)"/>
<defs>
<linearGradient id="paint0_linear_5553_4228" x1="21.5" y1="0.804199" x2="21.5" y2="48.1504" gradientUnits="userSpaceOnUse">
<stop stop-color="#052E16"/>
<stop offset="0.5" stop-color="#22C55E"/>
<stop offset="1" stop-color="#65A30D"/>
</linearGradient>
<linearGradient id="paint1_linear_5553_4228" x1="21.5002" y1="9.03833" x2="21.5002" y2="36.3335" gradientUnits="userSpaceOnUse">
<stop stop-color="#052E16"/>
<stop offset="0.5" stop-color="#22C55E"/>
<stop offset="1" stop-color="#65A30D"/>
</linearGradient>
<linearGradient id="paint2_linear_5553_4228" x1="21.5" y1="24.8638" x2="21.5" y2="30.2587" gradientUnits="userSpaceOnUse">
<stop stop-color="#052E16"/>
<stop offset="0.5" stop-color="#22C55E"/>
<stop offset="1" stop-color="#65A30D"/>
</linearGradient>
</defs>
</svg>
