<svg width="45" height="41" viewBox="0 0 45 41" fill="none" xmlns="http://www.w3.org/2000/svg">
<path d="M10.2641 28.7722H5.71941C5.53398 28.7722 5.35614 28.8458 5.22503 28.9769C5.09391 29.1081 5.02025 29.2859 5.02025 29.4713V30.6949C5.02025 30.7867 5.03833 30.8776 5.07347 30.9624C5.1086 31.0473 5.1601 31.1243 5.22503 31.1893C5.28995 31.2542 5.36702 31.3057 5.45185 31.3408C5.53668 31.3759 5.62759 31.394 5.71941 31.394H10.2641M10.2641 13.0405H5.19501C5.1032 13.0405 5.01228 13.0586 4.92746 13.0937C4.84263 13.1288 4.76556 13.1803 4.70063 13.2453C4.63571 13.3102 4.58421 13.3873 4.54907 13.4721C4.51394 13.5569 4.49585 13.6478 4.49585 13.7396V14.9632C4.49585 15.055 4.51394 15.1459 4.54907 15.2307C4.58421 15.3156 4.63571 15.3926 4.70063 15.4576C4.76556 15.5225 4.84263 15.574 4.92746 15.6091C5.01228 15.6443 5.1032 15.6623 5.19501 15.6623H10.2641M10.2641 18.2844H3.62184M10.2641 21.7803H3.62184M10.2641 25.2763H3.62184M1 13.7648V34.0164C1 34.981 1.783 35.764 2.74769 35.764H10.2645M1 10.7367V6.04818C1 5.0835 1.783 4.3005 2.74769 4.3005H10.2645M34.7358 28.7721H39.2805C39.4659 28.7721 39.6437 28.8457 39.7748 28.9769C39.906 29.108 39.9796 29.2858 39.9796 29.4712V30.6948C39.9796 30.8802 39.906 31.0581 39.7748 31.1892C39.6437 31.3203 39.4659 31.394 39.2805 31.394H34.7358M18.1301 10.4184H26.8699M34.7358 13.0404H39.8049C39.9903 13.0404 40.1681 13.1141 40.2992 13.2452C40.4304 13.3763 40.504 13.5541 40.504 13.7396V14.9631C40.504 15.1485 40.4304 15.3264 40.2992 15.4575C40.1681 15.5886 39.9903 15.6623 39.8049 15.6623H34.7358M30.3659 19.1583H19.878M17.2561 19.1583H14.6341M30.3659 22.6542H19.878M17.2561 22.6542H14.6341M30.3659 26.1501H19.878M17.2561 26.1501H14.6341M30.3659 29.6461H19.878M41.378 18.2843H34.7358M41.378 21.7802H34.7358M41.378 25.2762H34.7358M17.2561 29.6461H14.6341M17.7354 0.804199H32.9879C33.9534 0.804199 34.7356 1.5872 34.7356 2.55275V37.5117C34.7356 38.4772 33.9534 39.2602 32.9879 39.2602H12.0122C11.0466 39.2602 10.2645 38.4772 10.2645 37.5117V2.55275C10.2645 1.5872 11.0466 0.804199 12.0122 0.804199H14.7073M44 29.8703V34.0163C44 34.981 43.217 35.764 42.2523 35.764H34.7356M34.7356 4.30044H42.2523C43.217 4.30044 44 5.08343 44 6.04812V26.8421M24.0149 6.39815L22.5 4.30059L20.9851 6.39815L18.1301 5.17452L19.0041 10.4184H25.9959L26.8699 5.17452L24.0149 6.39815ZM12.8862 14.9632V13.7396C12.8862 13.5542 12.9598 13.3764 13.0909 13.2453C13.2221 13.1141 13.3999 13.0405 13.5853 13.0405H31.4146C31.6 13.0405 31.7778 13.1141 31.909 13.2453C32.0401 13.3764 32.1137 13.5542 32.1137 13.7396V14.9632C32.1137 15.1486 32.0401 15.3265 31.909 15.4576C31.7778 15.5887 31.6 15.6624 31.4146 15.6624H13.5853C13.3999 15.6624 13.2221 15.5887 13.0909 15.4576C12.9598 15.3265 12.8862 15.1486 12.8862 14.9632ZM17.2561 35.0648V33.8412C17.2561 33.6558 17.3297 33.478 17.4609 33.3469C17.592 33.2157 17.7698 33.1421 17.9552 33.1421H27.0447C27.2301 33.1421 27.4079 33.2157 27.5391 33.3469C27.6702 33.478 27.7438 33.6558 27.7438 33.8412V35.0648C27.7438 35.1566 27.7258 35.2475 27.6906 35.3324C27.6555 35.4172 27.604 35.4943 27.5391 35.5592C27.4741 35.6241 27.3971 35.6756 27.3122 35.7107C27.2274 35.7459 27.1365 35.764 27.0447 35.764H17.9553C17.8635 35.764 17.7726 35.7459 17.6877 35.7108C17.6029 35.6756 17.5258 35.6241 17.4609 35.5592C17.396 35.4943 17.3444 35.4172 17.3093 35.3324C17.2742 35.2475 17.2561 35.1566 17.2561 35.0648Z" stroke="url(#paint0_linear_5553_4222)" stroke-width="1.5" stroke-miterlimit="10" stroke-linecap="round" stroke-linejoin="round"/>
<defs>
<linearGradient id="paint0_linear_5553_4222" x1="27.1324" y1="0.804199" x2="27.1324" y2="39.2602" gradientUnits="userSpaceOnUse">
<stop stop-color="#14532D"/>
<stop offset="0.5" stop-color="#1B8C46"/>
<stop offset="1" stop-color="#16A34A"/>
</linearGradient>
</defs>
</svg>
