<svg width="413" height="104" viewBox="0 0 413 104" fill="none" xmlns="http://www.w3.org/2000/svg">
<g clip-path="url(#clip0_2023_1740)" filter="url(#filter0_d_2023_1740)">
<path d="M74.7734 42.6769L65.9366 44.5753L36.062 50.9929L25.772 53.2049C24.9833 53.3782 24.2778 53.8167 23.7733 54.4473C23.2689 55.0779 22.9959 55.8624 23 56.6699V75.4621C23 77.4151 24.568 78.9999 26.5 78.9999H75.5C77.432 78.9999 79 77.4151 79 75.4607V46.1363C79 45.0695 78.5226 44.0601 77.7022 43.3881C77.2988 43.0571 76.826 42.8213 76.319 42.6981C75.8119 42.575 75.2836 42.5678 74.7734 42.6769Z" fill="url(#paint0_linear_2023_1740)"/>
<path d="M63.026 23H39.2092C37.2156 23 35.6 24.568 35.6 26.5V61.5C35.6 63.432 37.2156 65 39.2092 65H62.7908C64.7844 65 66.4 63.432 66.4 61.5V26.5C66.4 24.568 64.7844 23 63.026 23Z" fill="url(#paint1_linear_2023_1740)"/>
<path d="M66.4 44.4745V61.4999C66.4 63.4319 64.7844 64.9999 62.7908 64.9999H39.2092C37.2156 64.9999 35.6 63.4319 35.6 61.4999V51.0923L36.0634 50.9943L65.938 44.5739L66.4014 44.4731L66.4 44.4745Z" fill="url(#paint2_linear_2023_1740)"/>
</g>
<path d="M99 31.1712H101.054V68.9458H122.909V63.2397H106.817V57.7618H108.872V61.1854H124.963V71H99V31.1712ZM102.88 31.1712H124.678V40.9287H110.983V38.8745H122.623V33.2254H104.934V49.7161H118.23V51.7703H102.88V31.1712ZM102.88 53.5963H120.227V47.8902H106.817V34.9372H120.626V36.9914H108.872V45.8359H122.281V55.6505H104.934V65.1227H120.912V67.1769H102.88V53.5963ZM130.633 67.4622H133.144L135.141 62.669L150.034 62.7261L153.686 71L164.185 70.9429L146.211 31.0571H142.559L124.699 70.9429H135.826L137.766 66.378H149.121L148.265 64.4379H136.511L134.685 68.9458H127.894L143.7 32.9971H145.07L160.933 68.9458H154.884L151.233 60.786H133.544L130.633 67.4622ZM137.424 57.4194L144.385 40.8146L156.083 67.4051H158.422L144.385 36.1355L134.114 59.1883H150.662L144.385 45.3224L140.049 55.7646H142.274L144.385 50.572L147.524 57.4194H137.424ZM171.34 61.5849C174.136 62.8402 176.589 63.4679 178.643 63.4679C179.67 63.4679 180.298 63.4108 180.583 63.2397C181.896 62.8973 182.809 62.1555 183.379 61.0143L183.437 60.9001C183.722 60.3866 183.836 59.7589 183.836 58.9601C183.836 58.5606 183.722 58.1041 183.494 57.5335L183.379 57.3053C182.638 55.7646 180.983 54.7375 177.959 53.7675L177.388 53.5963L177.217 53.5392C172.595 52.1698 169.628 50.0014 168.201 46.9772C167.631 45.8359 167.345 44.5806 167.345 43.2111C167.345 41.7846 167.631 40.4151 168.201 38.9886L168.315 38.7603C169.628 36.1355 171.739 34.4237 174.535 33.5678C176.532 33.2825 177.673 33.1113 177.959 33.1113C181.839 33.1113 186.347 34.709 191.425 37.8474L192.509 36.0785C186.974 32.7118 182.181 31.0571 178.016 31.0571C176.361 31.0571 174.991 31.2282 174.021 31.6277C170.655 32.5407 168.144 34.5949 166.489 37.8474L166.318 38.2468C165.633 39.9016 165.291 41.5563 165.291 43.2111C165.291 44.98 165.633 46.5207 166.318 47.8902C168.087 51.428 171.511 53.9387 176.646 55.4793L177.331 55.7076C179.67 56.4494 181.04 57.2482 181.553 58.1612L181.611 58.2753C181.725 58.4465 181.782 58.6747 181.782 58.9601C181.782 59.4736 181.725 59.816 181.553 60.1013C181.154 61.0143 180.184 61.4708 178.643 61.4708C176.19 61.4708 172.652 60.2154 169.913 58.4465L169.057 57.933L164.036 66.0357L164.892 66.5492C168.943 69.2882 174.307 71 178.643 71C180.07 71 181.382 70.8288 182.581 70.4864C185.947 69.5164 188.458 67.4051 190.113 64.2097L190.341 63.8103C191.026 62.0414 191.368 60.3866 191.368 58.8459C191.368 57.4765 190.912 55.7646 190.056 53.6534C188.515 50.572 185.262 48.2325 180.184 46.6348L179.385 46.4066C177.787 45.893 176.703 45.3795 176.19 44.98C175.505 44.4094 175.106 44.01 174.934 43.7817L174.82 43.1541C174.82 42.5835 174.934 42.0699 175.22 41.6705C175.676 40.8146 176.133 40.5863 177.959 40.5863C180.412 40.5863 183.95 41.8417 186.689 43.6106L187.545 44.1241L190.626 39.2168L189.713 38.7033C186.233 36.4208 181.496 34.8231 178.016 34.8231C176.475 34.8231 175.505 34.9372 174.991 35.2225C172.652 35.9073 170.883 37.3909 169.742 39.6163C169.228 40.5863 169 41.7275 169 43.1541C169 44.2382 169.228 45.2653 169.685 46.2354C170.883 48.8031 173.565 50.6862 177.73 51.9415L178.472 52.1698L180.013 52.7404C180.869 53.0827 181.782 53.5392 182.809 54.1098C184.635 55.194 185.548 56.7347 185.548 58.7889C185.548 59.9301 185.262 61.0143 184.749 61.9843C183.551 64.0956 181.496 65.1797 178.643 65.1797C176.703 65.1797 173.964 64.4379 170.427 63.0114L169.456 64.6662L169.399 64.7803C172.652 66.4351 175.733 67.234 178.7 67.234C180.355 67.234 181.896 66.8916 183.265 66.2068C185.947 64.8944 187.602 62.1555 187.602 58.7318C187.602 53.311 183.437 51.7133 179.043 50.1726L178.301 49.9444C174.706 48.8602 172.481 47.3766 171.568 45.3795C171.225 44.6947 171.054 43.9529 171.054 43.097C171.054 42.0128 171.225 41.1569 171.625 40.4151C172.538 38.7603 173.85 37.6762 175.562 37.1626L177.845 36.8773C180.869 36.8773 184.178 37.9044 187.773 39.9016L186.86 41.3281C183.151 39.5021 180.184 38.5892 178.016 38.5892C176.932 38.5892 176.304 38.6462 176.019 38.8174C174.763 39.1598 173.85 39.9016 173.223 41.0999L173.165 41.214C172.88 41.7275 172.766 42.4123 172.766 43.2682C172.766 43.8959 172.88 44.3524 173.051 44.6377C173.793 46.1783 175.733 47.4337 178.815 48.3466L179.556 48.5749L180.983 49.0314C181.154 49.0884 182.067 49.4879 183.722 50.2867C185.947 51.5421 187.545 53.1398 188.458 55.0228C189.029 56.1641 189.314 57.4194 189.314 58.7889C189.314 60.4436 189.029 61.8702 188.401 63.0685L188.287 63.2967C186.974 65.9215 184.863 67.6334 182.067 68.4893C180.07 68.7746 178.929 68.9458 178.643 68.9458C175.733 68.9458 171.967 67.8616 168.486 66.2068L166.889 65.3509L169.742 60.729L171.34 61.5849ZM209.421 67.3481H211.475L211.418 50.7432L223.572 33.1113H225.797L213.415 50.8573V68.9458H207.538L207.595 50.8573L193.729 31.0571H191.218L205.427 51.485V71H215.469V51.485L229.735 31.0571H222.545L209.421 50.0585V67.3481ZM217.809 31.0571L208.28 45.0371L199.835 33.1113H202.06L208.451 42.127L209.706 40.301L203.144 31.0571H195.954L207.31 47.2054L208.28 48.689L220.32 31.0571H217.809ZM260.056 68.9458H253.494L245.619 54.281L240.312 54.3381V68.9458H234.549V31.0571H232.495V71H242.424V56.3352H244.421L252.238 71H263.479L255.605 56.2782L253.722 57.02L260.056 68.9458ZM246.475 33.1113C254.749 33.1113 259.428 36.8203 259.428 43.6106C259.428 49.7732 255.719 53.5392 249.271 54.224L247.73 54.3952L254.863 67.5763H257.203L250.983 55.9929C257.83 54.7946 261.482 50.6291 261.482 43.6106C261.482 41.271 260.969 39.1598 259.999 37.2767C257.716 33.2254 253.037 31.0571 246.475 31.0571H236.375V67.5193H238.429V33.1113H246.475ZM246.019 52.5121C253.836 52.5121 257.545 49.8302 257.545 43.8959C257.545 38.2468 253.665 35.0514 247.445 35.0514H240.255V41.0428H246.817C249.842 41.0428 251.382 41.8987 251.382 43.6106C251.382 45.6077 249.499 46.5777 245.676 46.5777H242.367V43.0399H240.255V48.632H245.676C250.755 48.632 253.437 46.8631 253.437 43.6106C253.437 42.5835 253.208 41.7846 252.695 41.1569C251.725 39.7304 249.785 39.0456 246.817 39.0456H242.367V37.1056H247.445C252.524 37.1056 255.491 39.5592 255.491 43.8959C255.491 48.4037 252.466 50.515 246.019 50.515H240.312V52.5121H246.019ZM262.188 31.1712H264.243V68.9458H286.097V63.2397H270.006V57.7618H272.06V61.1854H288.151V71H262.188V31.1712ZM266.068 31.1712H287.866V40.9287H274.171V38.8745H285.812V33.2254H268.123V49.7161H281.418V51.7703H266.068V31.1712ZM266.068 53.5963H283.415V47.8902H270.006V34.9372H283.815V36.9914H272.06V45.8359H285.469V55.6505H268.123V65.1227H284.1V67.1769H266.068V53.5963ZM316.874 54.7375L293.536 31.0571H290.683L318.929 59.7589V35.0514H316.874V54.7375ZM314.991 50.1726V33.0542H320.812V68.9458H319.842L319.613 68.7175L293.479 42.2411V71H299.471V54.1669L297.359 51.9986V68.9458H295.534V47.2625L319.214 71H322.866V31.0571H312.937V47.9472L314.991 50.1726ZM291.596 71V37.6191L318.929 65.3509V62.3267L289.599 32.7118V71H291.596ZM335.555 38.475H349.193V33.0542H324.941V34.8231H347.252V36.8773H322.887V31H351.247V40.5292H337.609V67.234H335.555V38.475ZM331.732 40.5292H322.887V38.475H333.786V68.8887H339.492V42.2981H341.546V71H331.732V40.5292ZM358.572 61.5849C361.368 62.8402 363.822 63.4679 365.876 63.4679C366.903 63.4679 367.531 63.4108 367.816 63.2397C369.128 62.8973 370.041 62.1555 370.612 61.0143L370.669 60.9001C370.954 60.3866 371.068 59.7589 371.068 58.9601C371.068 58.5606 370.954 58.1041 370.726 57.5335L370.612 57.3053C369.87 55.7646 368.215 54.7375 365.191 53.7675L364.621 53.5963L364.449 53.5392C359.827 52.1698 356.86 50.0014 355.434 46.9772C354.863 45.8359 354.578 44.5806 354.578 43.2111C354.578 41.7846 354.863 40.4151 355.434 38.9886L355.548 38.7603C356.86 36.1355 358.971 34.4237 361.767 33.5678C363.765 33.2825 364.906 33.1113 365.191 33.1113C369.071 33.1113 373.579 34.709 378.658 37.8474L379.742 36.0785C374.207 32.7118 369.414 31.0571 365.248 31.0571C363.593 31.0571 362.224 31.2282 361.254 31.6277C357.887 32.5407 355.377 34.5949 353.722 37.8474L353.551 38.2468C352.866 39.9016 352.524 41.5563 352.524 43.2111C352.524 44.98 352.866 46.5207 353.551 47.8902C355.32 51.428 358.743 53.9387 363.879 55.4793L364.563 55.7076C366.903 56.4494 368.272 57.2482 368.786 58.1612L368.843 58.2753C368.957 58.4465 369.014 58.6747 369.014 58.9601C369.014 59.4736 368.957 59.816 368.786 60.1013C368.387 61.0143 367.417 61.4708 365.876 61.4708C363.422 61.4708 359.884 60.2154 357.146 58.4465L356.29 57.933L351.268 66.0357L352.124 66.5492C356.175 69.2882 361.539 71 365.876 71C367.302 71 368.615 70.8288 369.813 70.4864C373.18 69.5164 375.69 67.4051 377.345 64.2097L377.573 63.8103C378.258 62.0414 378.601 60.3866 378.601 58.8459C378.601 57.4765 378.144 55.7646 377.288 53.6534C375.747 50.572 372.495 48.2325 367.417 46.6348L366.618 46.4066C365.02 45.893 363.936 45.3795 363.422 44.98C362.738 44.4094 362.338 44.01 362.167 43.7817L362.053 43.1541C362.053 42.5835 362.167 42.0699 362.452 41.6705C362.909 40.8146 363.365 40.5863 365.191 40.5863C367.645 40.5863 371.183 41.8417 373.922 43.6106L374.777 44.1241L377.859 39.2168L376.946 38.7033C373.465 36.4208 368.729 34.8231 365.248 34.8231C363.708 34.8231 362.738 34.9372 362.224 35.2225C359.884 35.9073 358.116 37.3909 356.974 39.6163C356.461 40.5863 356.233 41.7275 356.233 43.1541C356.233 44.2382 356.461 45.2653 356.917 46.2354C358.116 48.8031 360.797 50.6862 364.963 51.9415L365.705 52.1698L367.245 52.7404C368.101 53.0827 369.014 53.5392 370.041 54.1098C371.867 55.194 372.78 56.7347 372.78 58.7889C372.78 59.9301 372.495 61.0143 371.981 61.9843C370.783 64.0956 368.729 65.1797 365.876 65.1797C363.936 65.1797 361.197 64.4379 357.659 63.0114L356.689 64.6662L356.632 64.7803C359.884 66.4351 362.966 67.234 365.933 67.234C367.588 67.234 369.128 66.8916 370.498 66.2068C373.18 64.8944 374.835 62.1555 374.835 58.7318C374.835 53.311 370.669 51.7133 366.275 50.1726L365.534 49.9444C361.939 48.8602 359.713 47.3766 358.8 45.3795C358.458 44.6947 358.287 43.9529 358.287 43.097C358.287 42.0128 358.458 41.1569 358.857 40.4151C359.77 38.7603 361.083 37.6762 362.795 37.1626L365.077 36.8773C368.101 36.8773 371.411 37.9044 375.006 39.9016L374.093 41.3281C370.384 39.5021 367.417 38.5892 365.248 38.5892C364.164 38.5892 363.536 38.6462 363.251 38.8174C361.996 39.1598 361.083 39.9016 360.455 41.0999L360.398 41.214C360.113 41.7275 359.999 42.4123 359.999 43.2682C359.999 43.8959 360.113 44.3524 360.284 44.6377C361.026 46.1783 362.966 47.4337 366.047 48.3466L366.789 48.5749L368.215 49.0314C368.387 49.0884 369.3 49.4879 370.954 50.2867C373.18 51.5421 374.777 53.1398 375.69 55.0228C376.261 56.1641 376.546 57.4194 376.546 58.7889C376.546 60.4436 376.261 61.8702 375.633 63.0685L375.519 63.2967C374.207 65.9215 372.096 67.6334 369.3 68.4893C367.302 68.7746 366.161 68.9458 365.876 68.9458C362.966 68.9458 359.2 67.8616 355.719 66.2068L354.121 65.3509L356.974 60.729L358.572 61.5849ZM398.65 71C395.113 71 391.803 70.087 388.779 68.2611C382.616 64.6662 378.736 57.8759 378.736 51.0856C378.736 47.5478 379.649 44.1812 381.475 41.0428C385.127 34.709 391.404 31.1141 398.65 31.1141C403.615 31.1141 408.408 32.9971 412.06 36.3638C412.174 36.4208 412.345 36.5349 412.516 36.7061L412.916 37.1626L411.489 38.6462L410.69 37.8474C407.438 34.8231 403.158 33.1683 398.65 33.1683C395.455 33.1683 392.488 33.9672 389.749 35.5649C384.214 38.7603 380.79 44.6947 380.79 51.0856C380.79 54.281 381.589 57.2482 383.187 59.9872C386.382 65.5221 392.26 68.9458 398.65 68.9458C402.531 68.9458 405.498 67.8616 410.348 64.7233V51.5991H397.852V49.5449H412.345V65.8074L411.946 66.1498C406.867 69.6305 403.215 71 398.65 71ZM398.65 67.1198C395.797 67.1198 393.116 66.378 390.662 64.9515C385.641 62.0414 382.559 56.7917 382.559 51.0856C382.559 48.1755 383.301 45.4365 384.728 42.9258C387.638 37.9615 392.773 34.9943 398.65 34.9943C401.903 34.9943 405.041 36.0214 408.066 38.0185L409.549 39.1598L410.291 39.9016L406.183 44.3524L404.357 42.9258C402.702 41.7275 400.762 41.0999 398.65 41.0999C396.939 41.0999 395.284 41.5563 393.743 42.4123C390.605 44.2382 388.722 47.4337 388.722 51.0856C388.722 52.7974 389.178 54.4522 390.091 55.9929C391.86 59.1312 395.056 61.0143 398.65 61.0143C400.077 61.0143 401.389 60.729 402.588 60.1013V59.1883H397.852V53.368H408.522V63.525L407.21 64.5521C404.642 66.321 402.017 67.1198 398.65 67.1198ZM398.65 37.0485C396.14 37.0485 393.8 37.6762 391.632 38.9315C387.295 41.4422 384.613 46.0642 384.613 51.0856C384.613 53.5963 385.241 55.9358 386.496 58.0471C389.007 62.3837 393.629 65.0656 398.65 65.0656C401.446 65.0656 403.957 64.3238 406.068 62.8973L406.468 62.5549V55.4223H399.906V57.1341H404.642V61.4137L404.071 61.699C402.188 62.612 400.419 63.0685 398.65 63.0685C396.596 63.0685 394.599 62.4979 392.716 61.4137C388.893 59.1883 386.668 55.4793 386.668 51.0856C386.668 48.9173 387.181 46.9201 388.265 45.0371C390.377 41.3852 394.257 39.1027 398.65 39.1027C401.104 39.1027 403.444 39.8445 405.555 41.271L405.954 41.5563L407.324 40.0728L406.867 39.7304C404.414 37.9615 401.675 37.0485 398.65 37.0485Z" fill="url(#paint3_linear_2023_1740)"/>
<defs>
<filter id="filter0_d_2023_1740" x="0" y="0" width="104" height="104" filterUnits="userSpaceOnUse" color-interpolation-filters="sRGB">
<feFlood flood-opacity="0" result="BackgroundImageFix"/>
<feColorMatrix in="SourceAlpha" type="matrix" values="0 0 0 0 0 0 0 0 0 0 0 0 0 0 0 0 0 0 127 0" result="hardAlpha"/>
<feOffset dx="1" dy="1"/>
<feGaussianBlur stdDeviation="12"/>
<feComposite in2="hardAlpha" operator="out"/>
<feColorMatrix type="matrix" values="0 0 0 0 0 0 0 0 0 0 0 0 0 0 0 0 0 0 0.1 0"/>
<feBlend mode="normal" in2="BackgroundImageFix" result="effect1_dropShadow_2023_1740"/>
<feBlend mode="normal" in="SourceGraphic" in2="effect1_dropShadow_2023_1740" result="shape"/>
</filter>
<linearGradient id="paint0_linear_2023_1740" x1="51" y1="14.6001" x2="51" y2="70.6001" gradientUnits="userSpaceOnUse">
<stop stop-color="#00FF8F"/>
<stop offset="1" stop-color="#00A1FF"/>
</linearGradient>
<linearGradient id="paint1_linear_2023_1740" x1="35.6" y1="23" x2="66.4" y2="23" gradientUnits="userSpaceOnUse">
<stop stop-color="#00FF8F"/>
<stop offset="1" stop-color="#00A1FF"/>
</linearGradient>
<linearGradient id="paint2_linear_2023_1740" x1="66.4" y1="54.7365" x2="30.4718" y2="54.7365" gradientUnits="userSpaceOnUse">
<stop stop-color="#0048E5"/>
<stop offset="0.64" stop-color="#625AF5"/>
<stop offset="1" stop-color="#8A62FC"/>
</linearGradient>
<linearGradient id="paint3_linear_2023_1740" x1="99" y1="31" x2="412.916" y2="31" gradientUnits="userSpaceOnUse">
<stop stop-color="#00FF8F"/>
<stop offset="1" stop-color="#00A1FF"/>
</linearGradient>
<clipPath id="clip0_2023_1740">
<rect width="56" height="56" fill="white" transform="translate(23 23)"/>
</clipPath>
</defs>
</svg>
