<svg width="16" height="16" viewBox="0 0 16 16" fill="none" xmlns="http://www.w3.org/2000/svg">
<g clip-path="url(#clip0_4093_5437)">
<path d="M8.00006 2.05352C8.12983 2.05352 8.23497 1.94838 8.23497 1.81861V0.23491C8.23497 0.105146 8.12983 0 8.00006 0C7.8703 0 7.76515 0.105146 7.76515 0.23491V1.81861C7.76515 1.94838 7.8703 2.05352 8.00006 2.05352ZM3.61726 3.73138C3.66132 3.77544 3.72107 3.80019 3.78338 3.80019C3.84568 3.80019 3.90543 3.77544 3.94949 3.73138C3.99354 3.68732 4.01829 3.62757 4.01829 3.56527C4.01829 3.50296 3.99354 3.44321 3.94949 3.39915L2.82962 2.27926C2.78557 2.2352 2.72581 2.21045 2.66351 2.21045C2.60121 2.21045 2.54145 2.2352 2.4974 2.27926C2.45334 2.32331 2.42859 2.38307 2.42859 2.44537C2.42859 2.50768 2.45334 2.56743 2.4974 2.61148L3.61726 3.73138ZM2.03678 7.54698H0.45305C0.323286 7.54698 0.21814 7.65213 0.21814 7.78189C0.21814 7.91166 0.323286 8.0168 0.45305 8.0168H2.03675C2.16652 8.0168 2.27166 7.91166 2.27166 7.78189C2.27166 7.65213 2.16652 7.54698 2.03678 7.54698ZM3.61726 11.8324L2.4974 12.9523C2.45334 12.9964 2.42859 13.0561 2.42859 13.1184C2.42859 13.1807 2.45334 13.2405 2.4974 13.2845C2.54145 13.3286 2.60121 13.3533 2.66351 13.3533C2.72581 13.3533 2.78557 13.3286 2.82962 13.2845L3.94949 12.1647C3.99354 12.1206 4.01829 12.0609 4.01829 11.9986C4.01829 11.9362 3.99354 11.8765 3.94949 11.8324C3.90543 11.7884 3.84568 11.7636 3.78338 11.7636C3.72107 11.7636 3.66132 11.7884 3.61726 11.8324ZM12.3828 11.8324C12.361 11.8106 12.3351 11.7933 12.3066 11.7815C12.2781 11.7697 12.2476 11.7636 12.2167 11.7636C12.1859 11.7636 12.1553 11.7697 12.1268 11.7815C12.0983 11.7933 12.0724 11.8106 12.0506 11.8324C12.0288 11.8543 12.0115 11.8801 11.9997 11.9087C11.9879 11.9372 11.9818 11.9677 11.9818 11.9986C11.9818 12.0294 11.9879 12.0599 11.9997 12.0885C12.0115 12.117 12.0288 12.1428 12.0506 12.1647L13.1705 13.2845C13.2145 13.3286 13.2743 13.3533 13.3366 13.3533C13.3989 13.3533 13.4586 13.3286 13.5027 13.2845C13.5468 13.2405 13.5715 13.1807 13.5715 13.1184C13.5715 13.0561 13.5468 12.9964 13.5027 12.9523L12.3828 11.8324ZM15.547 7.54698H13.9633C13.8336 7.54698 13.7284 7.65213 13.7284 7.78189C13.7284 7.91166 13.8336 8.0168 13.9633 8.0168H15.547C15.6768 8.0168 15.782 7.91166 15.782 7.78189C15.782 7.65213 15.6768 7.54698 15.547 7.54698ZM13.1705 2.27926L12.0506 3.39915C12.0066 3.44321 11.9818 3.50296 11.9818 3.56527C11.9818 3.62757 12.0066 3.68732 12.0506 3.73138C12.0947 3.77544 12.1544 3.80019 12.2167 3.80019C12.279 3.80019 12.3388 3.77544 12.3828 3.73138L13.5027 2.61148C13.5468 2.56743 13.5715 2.50768 13.5715 2.44537C13.5715 2.38307 13.5468 2.32331 13.5027 2.27926C13.4586 2.2352 13.3989 2.21045 13.3366 2.21045C13.2743 2.21045 13.2145 2.2352 13.1705 2.27926ZM12.6407 7.30706C12.6407 4.71139 10.5589 2.59968 8.00006 2.59968C7.10371 2.59968 6.23373 2.85942 5.48421 3.35083C4.75498 3.82895 4.17366 4.50157 3.80309 5.29598C3.77775 5.35229 3.7756 5.41632 3.79711 5.47421C3.81862 5.53209 3.86205 5.57919 3.91801 5.60529C3.97398 5.6314 4.03797 5.63443 4.09614 5.61371C4.15432 5.593 4.202 5.55022 4.22888 5.49462C4.91604 4.02142 6.39632 3.0695 8.00006 3.0695C10.2999 3.0695 12.1709 4.97045 12.1709 7.30706C12.1709 8.4169 11.7515 9.46617 10.99 10.2615C10.5511 10.7199 10.1775 11.1579 10.0814 11.7716H5.98018C5.85906 11.1345 5.42448 10.6875 5.03396 10.2862C4.2571 9.48781 3.82925 8.42978 3.82925 7.30706C3.82925 7.02984 3.85577 6.75258 3.90805 6.48293C3.91392 6.45265 3.91377 6.4215 3.90761 6.39128C3.90144 6.36105 3.88938 6.33233 3.87212 6.30676C3.85486 6.2812 3.83273 6.25928 3.80699 6.24227C3.78126 6.22525 3.75243 6.21347 3.72214 6.2076C3.69186 6.20173 3.66071 6.20188 3.63048 6.20805C3.60026 6.21421 3.57154 6.22627 3.54597 6.24353C3.52041 6.2608 3.49849 6.28293 3.48148 6.30866C3.46446 6.33439 3.45268 6.36322 3.44681 6.39351C3.38862 6.69454 3.35936 7.00045 3.35942 7.30706C3.35942 8.55287 3.83454 9.72727 4.69726 10.6138C5.19273 11.123 5.54347 11.5294 5.54347 12.1251C5.54347 12.1272 5.5435 12.1293 5.54356 12.1314L5.55703 13.5099C5.55703 13.9572 5.7956 14.3497 6.15213 14.5671V14.8254C6.15213 15.4731 6.67902 16 7.32669 16H8.76747C9.41513 16 9.94202 15.4731 9.94202 14.8254V14.5671C10.2986 14.3497 10.5371 13.9572 10.5371 13.5099C10.5371 13.5099 10.5355 11.9744 10.5323 11.9591C10.5769 11.4146 10.9069 11.0277 11.3294 10.5864C12.175 9.70318 12.6407 8.53852 12.6407 7.30706ZM9.47217 14.8254C9.47217 15.214 9.15601 15.5302 8.76744 15.5302H7.32665C6.93808 15.5302 6.62192 15.214 6.62192 14.8254V14.7349C6.67827 14.7428 6.73571 14.7471 6.79419 14.7471H9.2999C9.35838 14.7471 9.41582 14.7428 9.47217 14.7349V14.8254ZM9.2999 14.2773H6.79419C6.37104 14.2773 6.02682 13.9331 6.02682 13.5099V13.4943H8.40724C8.53701 13.4943 8.64215 13.3891 8.64215 13.2594C8.64215 13.1296 8.53701 13.0245 8.40724 13.0245H6.02682V12.2414H10.06L10.0673 13.0245H9.50349C9.37373 13.0245 9.26858 13.1296 9.26858 13.2594C9.26858 13.3891 9.37373 13.4943 9.50349 13.4943H10.0673V13.5099C10.0673 13.9331 9.72302 14.2773 9.2999 14.2773Z" fill="#022C22"/>
<path d="M8.00006 2.05352C8.12983 2.05352 8.23497 1.94838 8.23497 1.81861V0.23491C8.23497 0.105146 8.12983 0 8.00006 0C7.8703 0 7.76515 0.105146 7.76515 0.23491V1.81861C7.76515 1.94838 7.8703 2.05352 8.00006 2.05352ZM3.61726 3.73138C3.66132 3.77544 3.72107 3.80019 3.78338 3.80019C3.84568 3.80019 3.90543 3.77544 3.94949 3.73138C3.99354 3.68732 4.01829 3.62757 4.01829 3.56527C4.01829 3.50296 3.99354 3.44321 3.94949 3.39915L2.82962 2.27926C2.78557 2.2352 2.72581 2.21045 2.66351 2.21045C2.60121 2.21045 2.54145 2.2352 2.4974 2.27926C2.45334 2.32331 2.42859 2.38307 2.42859 2.44537C2.42859 2.50768 2.45334 2.56743 2.4974 2.61148L3.61726 3.73138ZM2.03678 7.54698H0.45305C0.323286 7.54698 0.21814 7.65213 0.21814 7.78189C0.21814 7.91166 0.323286 8.0168 0.45305 8.0168H2.03675C2.16652 8.0168 2.27166 7.91166 2.27166 7.78189C2.27166 7.65213 2.16652 7.54698 2.03678 7.54698ZM3.61726 11.8324L2.4974 12.9523C2.45334 12.9964 2.42859 13.0561 2.42859 13.1184C2.42859 13.1807 2.45334 13.2405 2.4974 13.2845C2.54145 13.3286 2.60121 13.3533 2.66351 13.3533C2.72581 13.3533 2.78557 13.3286 2.82962 13.2845L3.94949 12.1647C3.99354 12.1206 4.01829 12.0609 4.01829 11.9986C4.01829 11.9362 3.99354 11.8765 3.94949 11.8324C3.90543 11.7884 3.84568 11.7636 3.78338 11.7636C3.72107 11.7636 3.66132 11.7884 3.61726 11.8324ZM12.3828 11.8324C12.361 11.8106 12.3351 11.7933 12.3066 11.7815C12.2781 11.7697 12.2476 11.7636 12.2167 11.7636C12.1859 11.7636 12.1553 11.7697 12.1268 11.7815C12.0983 11.7933 12.0724 11.8106 12.0506 11.8324C12.0288 11.8543 12.0115 11.8801 11.9997 11.9087C11.9879 11.9372 11.9818 11.9677 11.9818 11.9986C11.9818 12.0294 11.9879 12.0599 11.9997 12.0885C12.0115 12.117 12.0288 12.1428 12.0506 12.1647L13.1705 13.2845C13.2145 13.3286 13.2743 13.3533 13.3366 13.3533C13.3989 13.3533 13.4586 13.3286 13.5027 13.2845C13.5468 13.2405 13.5715 13.1807 13.5715 13.1184C13.5715 13.0561 13.5468 12.9964 13.5027 12.9523L12.3828 11.8324ZM15.547 7.54698H13.9633C13.8336 7.54698 13.7284 7.65213 13.7284 7.78189C13.7284 7.91166 13.8336 8.0168 13.9633 8.0168H15.547C15.6768 8.0168 15.782 7.91166 15.782 7.78189C15.782 7.65213 15.6768 7.54698 15.547 7.54698ZM13.1705 2.27926L12.0506 3.39915C12.0066 3.44321 11.9818 3.50296 11.9818 3.56527C11.9818 3.62757 12.0066 3.68732 12.0506 3.73138C12.0947 3.77544 12.1544 3.80019 12.2167 3.80019C12.279 3.80019 12.3388 3.77544 12.3828 3.73138L13.5027 2.61148C13.5468 2.56743 13.5715 2.50768 13.5715 2.44537C13.5715 2.38307 13.5468 2.32331 13.5027 2.27926C13.4586 2.2352 13.3989 2.21045 13.3366 2.21045C13.2743 2.21045 13.2145 2.2352 13.1705 2.27926ZM12.6407 7.30706C12.6407 4.71139 10.5589 2.59968 8.00006 2.59968C7.10371 2.59968 6.23373 2.85942 5.48421 3.35083C4.75498 3.82895 4.17366 4.50157 3.80309 5.29598C3.77775 5.35229 3.7756 5.41632 3.79711 5.47421C3.81862 5.53209 3.86205 5.57919 3.91801 5.60529C3.97398 5.6314 4.03797 5.63443 4.09614 5.61371C4.15432 5.593 4.202 5.55022 4.22888 5.49462C4.91604 4.02142 6.39632 3.0695 8.00006 3.0695C10.2999 3.0695 12.1709 4.97045 12.1709 7.30706C12.1709 8.4169 11.7515 9.46617 10.99 10.2615C10.5511 10.7199 10.1775 11.1579 10.0814 11.7716H5.98018C5.85906 11.1345 5.42448 10.6875 5.03396 10.2862C4.2571 9.48781 3.82925 8.42978 3.82925 7.30706C3.82925 7.02984 3.85577 6.75258 3.90805 6.48293C3.91392 6.45265 3.91377 6.4215 3.90761 6.39128C3.90144 6.36105 3.88938 6.33233 3.87212 6.30676C3.85486 6.2812 3.83273 6.25928 3.80699 6.24227C3.78126 6.22525 3.75243 6.21347 3.72214 6.2076C3.69186 6.20173 3.66071 6.20188 3.63048 6.20805C3.60026 6.21421 3.57154 6.22627 3.54597 6.24353C3.52041 6.2608 3.49849 6.28293 3.48148 6.30866C3.46446 6.33439 3.45268 6.36322 3.44681 6.39351C3.38862 6.69454 3.35936 7.00045 3.35942 7.30706C3.35942 8.55287 3.83454 9.72727 4.69726 10.6138C5.19273 11.123 5.54347 11.5294 5.54347 12.1251C5.54347 12.1272 5.5435 12.1293 5.54356 12.1314L5.55703 13.5099C5.55703 13.9572 5.7956 14.3497 6.15213 14.5671V14.8254C6.15213 15.4731 6.67902 16 7.32669 16H8.76747C9.41513 16 9.94202 15.4731 9.94202 14.8254V14.5671C10.2986 14.3497 10.5371 13.9572 10.5371 13.5099C10.5371 13.5099 10.5355 11.9744 10.5323 11.9591C10.5769 11.4146 10.9069 11.0277 11.3294 10.5864C12.175 9.70318 12.6407 8.53852 12.6407 7.30706ZM9.47217 14.8254C9.47217 15.214 9.15601 15.5302 8.76744 15.5302H7.32665C6.93808 15.5302 6.62192 15.214 6.62192 14.8254V14.7349C6.67827 14.7428 6.73571 14.7471 6.79419 14.7471H9.2999C9.35838 14.7471 9.41582 14.7428 9.47217 14.7349V14.8254ZM9.2999 14.2773H6.79419C6.37104 14.2773 6.02682 13.9331 6.02682 13.5099V13.4943H8.40724C8.53701 13.4943 8.64215 13.3891 8.64215 13.2594C8.64215 13.1296 8.53701 13.0245 8.40724 13.0245H6.02682V12.2414H10.06L10.0673 13.0245H9.50349C9.37373 13.0245 9.26858 13.1296 9.26858 13.2594C9.26858 13.3891 9.37373 13.4943 9.50349 13.4943H10.0673V13.5099C10.0673 13.9331 9.72302 14.2773 9.2999 14.2773Z" fill="#16A34A"/>
<path d="M9.52726 7.33818C9.48986 7.38745 9.47341 7.44949 9.48146 7.51082C9.48952 7.57214 9.52145 7.62782 9.5703 7.66576C9.61916 7.70369 9.68101 7.72083 9.74242 7.71344C9.80384 7.70606 9.85986 7.67475 9.89833 7.62631L10.3634 7.02741C10.4865 6.86883 10.5405 6.67179 10.5155 6.47255C10.5034 6.37453 10.472 6.27988 10.4231 6.19407C10.3742 6.10825 10.3088 6.03299 10.2306 5.97263C10.0721 5.84948 9.8749 5.79517 9.67579 5.82057C9.57777 5.83262 9.48312 5.864 9.39731 5.91288C9.3115 5.96177 9.23625 6.0272 9.1759 6.10537L7.65872 8.05933L6.78799 7.09591C6.51001 6.78846 6.03371 6.76447 5.72629 7.04232C5.65284 7.10835 5.59322 7.18828 5.55087 7.2775C5.50852 7.36672 5.48429 7.46345 5.47957 7.5621C5.47433 7.66072 5.48869 7.7594 5.52183 7.85243C5.55497 7.94546 5.60623 8.03099 5.67263 8.10409L7.14477 9.7328C7.4411 10.0765 8.02666 10.0554 8.29618 9.68976L9.22595 8.49235C9.26335 8.44308 9.27981 8.38104 9.27175 8.31971C9.26369 8.25838 9.23177 8.20271 9.18291 8.16477C9.13406 8.12684 9.07221 8.1097 9.01079 8.11709C8.94938 8.12447 8.89336 8.15578 8.85489 8.20422L7.92511 9.40164C7.82419 9.53876 7.60397 9.54675 7.49335 9.41777L6.02124 7.78906C5.917 7.67373 5.92602 7.49514 6.04138 7.3909C6.15664 7.28679 6.33527 7.29568 6.43951 7.41104L7.49817 8.58233C7.59044 8.68933 7.77386 8.68319 7.85799 8.56886L9.54706 6.39356C9.63748 6.27197 9.82497 6.24839 9.94259 6.34379C10.0642 6.43425 10.0878 6.62158 9.99236 6.73935L9.52726 7.33818Z" fill="#022C22"/>
<path d="M9.52726 7.33818C9.48986 7.38745 9.47341 7.44949 9.48146 7.51082C9.48952 7.57214 9.52145 7.62782 9.5703 7.66576C9.61916 7.70369 9.68101 7.72083 9.74242 7.71344C9.80384 7.70606 9.85986 7.67475 9.89833 7.62631L10.3634 7.02741C10.4865 6.86883 10.5405 6.67179 10.5155 6.47255C10.5034 6.37453 10.472 6.27988 10.4231 6.19407C10.3742 6.10825 10.3088 6.03299 10.2306 5.97263C10.0721 5.84948 9.8749 5.79517 9.67579 5.82057C9.57777 5.83262 9.48312 5.864 9.39731 5.91288C9.3115 5.96177 9.23625 6.0272 9.1759 6.10537L7.65872 8.05933L6.78799 7.09591C6.51001 6.78846 6.03371 6.76447 5.72629 7.04232C5.65284 7.10835 5.59322 7.18828 5.55087 7.2775C5.50852 7.36672 5.48429 7.46345 5.47957 7.5621C5.47433 7.66072 5.48869 7.7594 5.52183 7.85243C5.55497 7.94546 5.60623 8.03099 5.67263 8.10409L7.14477 9.7328C7.4411 10.0765 8.02666 10.0554 8.29618 9.68976L9.22595 8.49235C9.26335 8.44308 9.27981 8.38104 9.27175 8.31971C9.26369 8.25838 9.23177 8.20271 9.18291 8.16477C9.13406 8.12684 9.07221 8.1097 9.01079 8.11709C8.94938 8.12447 8.89336 8.15578 8.85489 8.20422L7.92511 9.40164C7.82419 9.53876 7.60397 9.54675 7.49335 9.41777L6.02124 7.78906C5.917 7.67373 5.92602 7.49514 6.04138 7.3909C6.15664 7.28679 6.33527 7.29568 6.43951 7.41104L7.49817 8.58233C7.59044 8.68933 7.77386 8.68319 7.85799 8.56886L9.54706 6.39356C9.63748 6.27197 9.82497 6.24839 9.94259 6.34379C10.0642 6.43425 10.0878 6.62158 9.99236 6.73935L9.52726 7.33818Z" fill="#16A34A"/>
</g>
<defs>
<clipPath id="clip0_4093_5437">
<rect width="16" height="16" fill="white"/>
</clipPath>
</defs>
</svg>
