<svg width="16" height="14" viewBox="0 0 16 14" fill="none" xmlns="http://www.w3.org/2000/svg">
<path d="M7.26304 9.16721C7.27267 9.13985 7.27104 9.10978 7.25851 9.08362C7.24597 9.05746 7.22356 9.03735 7.19619 9.02771C7.16883 9.01808 7.13876 9.01971 7.1126 9.03224C7.08644 9.04478 7.06633 9.06719 7.05669 9.09456L6.52869 10.5939C6.40104 10.9618 6.30897 11.2548 6.24716 11.4897C6.23357 11.5408 6.20344 11.586 6.16147 11.6182C6.1195 11.6505 6.06805 11.6679 6.01513 11.6678H3.80829C3.75524 11.668 3.70365 11.6505 3.66162 11.6181C3.6196 11.5857 3.58951 11.5403 3.5761 11.489C3.51432 11.2501 3.42166 10.9571 3.29282 10.5933L1.03013 4.19824C0.859693 3.70403 0.754193 3.42424 0.611912 3.08949C0.609955 3.08486 0.609173 3.07982 0.609634 3.07482C0.610096 3.06981 0.611788 3.065 0.614559 3.0608C0.61733 3.05661 0.621094 3.05317 0.625518 3.05078C0.629941 3.04839 0.634886 3.04713 0.639912 3.04712H2.79182C2.79918 3.04716 2.80627 3.04986 2.8118 3.05471C2.81734 3.05956 2.82094 3.06624 2.82194 3.07353C2.87947 3.42621 2.96025 3.77471 3.06376 4.11674L4.60413 9.22656C4.68863 9.51178 4.68863 9.51178 4.80504 9.95627C4.81114 9.97958 4.82476 10.0002 4.84379 10.015C4.86282 10.0298 4.8862 10.0378 4.91029 10.038H4.91085C4.93484 10.038 4.95817 10.0301 4.97723 10.0155C4.9963 10.0009 5.01004 9.98049 5.01635 9.95734C5.08004 9.7239 5.11719 9.59124 5.14504 9.49178C5.17297 9.39199 5.19151 9.32584 5.21801 9.22521L6.75851 4.1149C6.88519 3.66665 6.95632 3.38262 6.99335 3.07443C6.99416 3.06698 6.99767 3.06009 7.00322 3.05505C7.00878 3.05002 7.01598 3.0472 7.02347 3.04712H7.21516C7.24417 3.04712 7.27199 3.0356 7.2925 3.01508C7.31301 2.99457 7.32454 2.96675 7.32454 2.93774C7.32454 2.90874 7.31301 2.88092 7.2925 2.8604C7.27199 2.83989 7.24417 2.82837 7.21516 2.82837H7.02347C6.96249 2.82848 6.90366 2.85093 6.85809 2.89146C6.81252 2.93199 6.78338 2.98781 6.77616 3.04837C6.74063 3.34393 6.67429 3.60862 6.54854 4.05362L5.00801 9.16393L5.00694 9.16765C4.98063 9.26771 4.96222 9.3334 4.93438 9.43281L4.91313 9.50878C4.88301 9.39778 4.86194 9.32665 4.81372 9.16393L3.27332 4.05403C3.17272 3.72176 3.09417 3.38321 3.03819 3.04059C3.02955 2.98149 2.99987 2.92749 2.95461 2.88851C2.90935 2.84953 2.85155 2.82819 2.79182 2.8284H0.639943C0.598773 2.82841 0.558246 2.83862 0.521983 2.85811C0.48572 2.8776 0.45485 2.90578 0.432131 2.94011C0.409413 2.97444 0.395553 3.01387 0.39179 3.05487C0.388028 3.09587 0.394479 3.13716 0.410568 3.17506C0.550568 3.50453 0.654756 3.78074 0.823631 4.2704L3.08657 10.6663C3.21326 11.0241 3.3041 11.3111 3.36426 11.5438C3.38981 11.642 3.44729 11.729 3.52765 11.7911C3.60802 11.8531 3.70672 11.8867 3.80826 11.8866H6.01513C6.11636 11.8866 6.21476 11.8532 6.29499 11.7915C6.37522 11.7297 6.43278 11.6432 6.45869 11.5453C6.51907 11.316 6.60954 11.0282 6.73516 10.6661L7.26304 9.16721Z" fill="#16A34A"/>
<path d="M14.411 7.07368C13.9943 6.81059 13.4689 6.62512 12.6532 6.4534C12.3244 6.38653 12.0647 6.33371 11.8782 6.29471C11.8642 6.29177 11.8497 6.29163 11.8355 6.29429C11.8214 6.29696 11.808 6.30238 11.796 6.31024C11.7839 6.3181 11.7736 6.32825 11.7655 6.34012C11.7574 6.35198 11.7517 6.36532 11.7488 6.37938C11.7458 6.39344 11.7457 6.40794 11.7483 6.42206C11.751 6.43617 11.7564 6.44963 11.7643 6.46165C11.7722 6.47367 11.7823 6.48402 11.7942 6.49212C11.806 6.50022 11.8194 6.5059 11.8334 6.50884C12.0205 6.54796 12.2805 6.60084 12.6089 6.66762C13.3968 6.83353 13.9008 7.01024 14.2946 7.2589C15.0321 7.71984 15.3906 8.39849 15.3906 9.33356C15.3906 10.1064 15.1448 10.7553 14.6803 11.2097C14.0807 11.7886 13.1662 12.0821 11.9621 12.0821C11.0646 12.0821 10.1993 11.8929 9.64625 11.5755C9.12925 11.2859 8.75972 10.8477 8.54803 10.2732C8.5475 10.2718 8.54694 10.2703 8.54634 10.2689C8.46625 10.0767 8.41603 9.88571 8.36109 9.56437C8.35798 9.54602 8.35868 9.52724 8.36315 9.50918C8.36762 9.49111 8.37576 9.47417 8.38706 9.45939C8.39837 9.44461 8.4126 9.43232 8.42886 9.42329C8.44512 9.41425 8.46308 9.40866 8.48159 9.40687L10.2002 9.24162C10.2335 9.23838 10.2668 9.24762 10.2937 9.26755C10.3206 9.28749 10.3392 9.3167 10.3458 9.34952C10.3812 9.57271 10.4721 9.78342 10.6103 9.96224L10.6123 9.96496C10.8911 10.3134 11.3629 10.5054 11.9408 10.5054C12.8143 10.5054 13.357 10.0971 13.357 9.43977C13.357 9.06493 13.1617 8.7419 12.8484 8.59731C12.6122 8.48484 12.3252 8.40612 11.2323 8.1539C11.2043 8.14784 11.1749 8.15308 11.1507 8.16848C11.1264 8.18389 11.1092 8.20822 11.1027 8.23622C11.0962 8.26422 11.1011 8.29364 11.1161 8.31811C11.1312 8.34259 11.1553 8.36016 11.1832 8.36703C12.2569 8.61484 12.5359 8.69081 12.7556 8.79537C12.9916 8.90434 13.1383 9.15127 13.1383 9.43977C13.1383 9.97002 12.6906 10.2866 11.9408 10.2866C11.4389 10.2866 11.0174 10.1201 10.7842 9.82962C10.6669 9.67787 10.59 9.4988 10.5608 9.30921C10.5447 9.2224 10.4965 9.14482 10.4258 9.09195C10.3551 9.03907 10.267 9.01476 10.1792 9.02387L9.69716 9.07021L11.5172 5.96224C11.5306 5.93928 11.5372 5.91296 11.5362 5.88637C11.5352 5.85978 11.5267 5.83403 11.5115 5.81214C11.4964 5.79024 11.4754 5.77312 11.4509 5.76277C11.4263 5.75242 11.3994 5.74928 11.3732 5.75371L9.35819 6.09437L12.0328 0.657431C12.0451 0.632447 12.0497 0.604359 12.0459 0.576766C12.0422 0.549173 12.0303 0.523331 12.0117 0.502552C11.9932 0.481772 11.9689 0.467001 11.9419 0.460132C11.9149 0.453262 11.8865 0.454607 11.8603 0.463994L8.15375 1.78984C8.13292 1.79729 8.11415 1.80958 8.099 1.8257C8.08384 1.84182 8.07272 1.86131 8.06656 1.88256L6.11088 8.62843C6.10417 8.65156 6.10355 8.67602 6.10908 8.69946C6.1146 8.72289 6.12609 8.7445 6.14242 8.7622C6.15874 8.77989 6.17936 8.79307 6.20228 8.80046C6.22519 8.80785 6.24963 8.80919 6.27322 8.80437L8.19297 8.41156L6.63163 13.76C6.62206 13.7927 6.6248 13.8279 6.63933 13.8587C6.65386 13.8896 6.67918 13.9141 6.71051 13.9276C6.74184 13.9411 6.77703 13.9427 6.80945 13.9321C6.84187 13.9214 6.86929 13.8993 6.88653 13.8699L8.62059 10.9087C8.85102 11.2658 9.16636 11.5603 9.53841 11.7658C10.1221 12.1008 11.0281 12.3009 11.9621 12.3009C13.2249 12.3009 14.1906 11.9867 14.8328 11.3666C15.3408 10.8696 15.6093 10.1666 15.6093 9.33359C15.6093 8.31693 15.2172 7.57765 14.411 7.07371L14.411 7.07368Z" fill="#16A34A"/>
<path d="M11.7678 2.93777C11.7678 2.96678 11.7793 2.9946 11.7998 3.01511C11.8203 3.03562 11.8481 3.04715 11.8771 3.04715C13.2023 3.04715 14.1929 3.45021 14.7435 4.21496C14.9723 4.51702 15.0968 4.79949 15.2188 5.29433C15.2199 5.29859 15.2201 5.30303 15.2192 5.30735C15.2184 5.31166 15.2167 5.31575 15.2142 5.31933C15.2117 5.32291 15.2085 5.32591 15.2048 5.32814C15.201 5.33036 15.1969 5.33175 15.1926 5.33221L13.223 5.5459C13.2159 5.54679 13.2087 5.5451 13.2027 5.54114C13.1968 5.53719 13.1925 5.53122 13.1905 5.52433C13.0303 4.87218 12.5991 4.5814 11.7921 4.5814C11.2771 4.5814 10.8412 4.79571 10.6546 5.14074C10.6474 5.15339 10.6429 5.16734 10.6412 5.18176C10.6395 5.19619 10.6407 5.2108 10.6448 5.22476C10.6488 5.23871 10.6556 5.25172 10.6647 5.26304C10.6738 5.27435 10.685 5.28373 10.6978 5.29064C10.7106 5.29755 10.7246 5.30185 10.7391 5.30328C10.7535 5.30471 10.7681 5.30325 10.782 5.29899C10.7959 5.29472 10.8088 5.28773 10.8199 5.27843C10.8311 5.26912 10.8403 5.25769 10.8469 5.2448C10.9953 4.97052 11.3575 4.80011 11.7921 4.80011C12.4991 4.80011 12.8427 5.02508 12.9781 5.57649C12.9928 5.6348 13.028 5.68583 13.0774 5.72018C13.1267 5.75453 13.1868 5.76987 13.2466 5.76336L15.2162 5.54968C15.2515 5.54581 15.2856 5.53444 15.3162 5.51631C15.3468 5.49819 15.3732 5.47374 15.3935 5.4446C15.4139 5.41546 15.4278 5.3823 15.4343 5.34734C15.4408 5.31239 15.4398 5.27645 15.4313 5.24193C15.3012 4.71474 15.1668 4.41146 14.9195 4.08499C14.3276 3.2629 13.2756 2.82836 11.8771 2.82836C11.8481 2.82836 11.8203 2.83989 11.7998 2.8604C11.7793 2.88091 11.7678 2.90876 11.7678 2.93777ZM11.1722 13.1071C11.1643 13.0951 11.1542 13.0847 11.1423 13.0766C11.1304 13.0686 11.1171 13.0629 11.103 13.0599C11.089 13.057 11.0745 13.0569 11.0604 13.0595C11.0462 13.0622 11.0328 13.0676 11.0208 13.0755C11.0087 13.0833 10.9984 13.0935 10.9903 13.1054C10.9822 13.1172 10.9765 13.1306 10.9736 13.1446C10.9706 13.1587 10.9705 13.1732 10.9732 13.1873C10.9758 13.2014 10.9813 13.2149 10.9891 13.2269L11.4347 13.9078C11.4507 13.9318 11.4755 13.9485 11.5038 13.9543C11.532 13.9601 11.5614 13.9544 11.5856 13.9386C11.6097 13.9228 11.6266 13.8982 11.6326 13.8699C11.6386 13.8417 11.6333 13.8123 11.6177 13.788L11.1722 13.1071ZM8.65197 13.3142C8.63841 13.3094 8.62405 13.3074 8.60971 13.3082C8.59537 13.309 8.58133 13.3127 8.5684 13.3189C8.55546 13.3251 8.54388 13.3339 8.53431 13.3446C8.52475 13.3553 8.51739 13.3678 8.51266 13.3814L8.24422 14.1495C8.23923 14.1631 8.23699 14.1776 8.23764 14.1921C8.23829 14.2066 8.24182 14.2208 8.24801 14.2339C8.25421 14.247 8.26295 14.2588 8.27373 14.2685C8.28451 14.2782 8.29711 14.2857 8.31081 14.2904C8.3245 14.2952 8.339 14.2972 8.35348 14.2964C8.36796 14.2955 8.38212 14.2918 8.39514 14.2854C8.40816 14.279 8.41977 14.27 8.42931 14.2591C8.43884 14.2482 8.44611 14.2355 8.45069 14.2217L8.71913 13.4535C8.72387 13.44 8.72589 13.4256 8.72508 13.4113C8.72427 13.3969 8.72065 13.3829 8.71441 13.3699C8.70817 13.357 8.69945 13.3454 8.68874 13.3358C8.67802 13.3263 8.66553 13.3189 8.65197 13.3142ZM4.71607 1.7273L5.38816 2.18605C5.40001 2.1945 5.41342 2.2005 5.42762 2.2037C5.44181 2.2069 5.45651 2.20724 5.47083 2.20469C5.48516 2.20214 5.49884 2.19676 5.51106 2.18886C5.52328 2.18095 5.5338 2.17069 5.542 2.15868C5.55021 2.14666 5.55593 2.13312 5.55884 2.11886C5.56175 2.1046 5.56178 2.08991 5.55894 2.07564C5.55609 2.06136 5.55043 2.0478 5.54228 2.03575C5.53413 2.02369 5.52366 2.01338 5.51147 2.00543L4.83938 1.54665C4.82752 1.53831 4.81413 1.53242 4.79998 1.52931C4.78583 1.5262 4.7712 1.52593 4.75695 1.52852C4.74269 1.53111 4.72909 1.5365 4.71694 1.54439C4.70479 1.55228 4.69432 1.5625 4.68615 1.57447C4.67798 1.58644 4.67227 1.59991 4.66936 1.6141C4.66644 1.62829 4.66637 1.64292 4.66915 1.65714C4.67193 1.67136 4.67751 1.68488 4.68557 1.69693C4.69362 1.70897 4.70399 1.7193 4.71607 1.7273ZM7.63132 1.03108C7.63338 1.03108 7.63547 1.03102 7.63757 1.03093C7.65191 1.03012 7.66595 1.0265 7.6789 1.02026C7.69184 1.01403 7.70343 1.0053 7.713 0.994589C7.72257 0.983874 7.72993 0.97138 7.73467 0.957819C7.73942 0.944257 7.74144 0.929895 7.74063 0.915551L7.69491 0.103114C7.69328 0.0741473 7.6802 0.0470157 7.65857 0.0276877C7.63693 0.00835978 7.6085 -0.00158128 7.57953 5.14552e-05C7.55057 0.00168419 7.52344 0.014757 7.50411 0.036394C7.48478 0.058031 7.47484 0.0864598 7.47647 0.115426L7.52222 0.927864C7.52379 0.955743 7.53597 0.981966 7.55625 1.00116C7.57654 1.02035 7.60339 1.03106 7.63132 1.03108Z" fill="#16A34A"/>
</svg>
