<svg width="28" height="29" viewBox="0 0 28 29" fill="none" xmlns="http://www.w3.org/2000/svg">
<g clip-path="url(#clip0_5555_132)">
<path d="M14.0004 9.67334C11.1668 9.67334 8.86523 11.9749 8.86523 14.8085C8.86523 17.6421 11.1668 19.9493 14.0004 19.9493C16.834 19.9493 19.1412 17.6421 19.1412 14.8085C19.1412 11.9749 16.834 9.67334 14.0004 9.67334Z" fill="#E5B92E"/>
<path d="M21.7504 0.808594H6.2496C2.8056 0.808594 0 3.61419 0 7.05819V22.559C0 26.0086 2.8056 28.8086 6.2496 28.8086H21.7504C25.2 28.8086 28 26.0086 28 22.559V7.05819C28 3.61419 25.2 0.808594 21.7504 0.808594ZM14 23.8806C8.9992 23.8806 4.928 19.8094 4.928 14.8086C4.928 9.80779 8.9992 5.74219 14 5.74219C19.0008 5.74219 23.072 9.80779 23.072 14.8086C23.072 19.8094 19.0008 23.8806 14 23.8806ZM23.2624 7.38859C22.204 7.38859 21.3416 6.53179 21.3416 5.47339C21.3416 4.41499 22.204 3.55259 23.2624 3.55259C24.3208 3.55259 25.1832 4.41499 25.1832 5.47339C25.1832 6.53179 24.3208 7.38859 23.2624 7.38859Z" fill="#E5B92E"/>
</g>
<defs>
<clipPath id="clip0_5555_132">
<rect width="28" height="28" fill="white" transform="translate(0 0.808594)"/>
</clipPath>
</defs>
</svg>
