<svg width="28" height="29" viewBox="0 0 28 29" fill="none" xmlns="http://www.w3.org/2000/svg">
<g clip-path="url(#clip0_5555_129)">
<path d="M25.2 0.808594H2.8C1.26 0.808594 0 2.06859 0 3.60859V26.0086C0 27.5486 1.26 28.8086 2.8 28.8086H25.2C26.74 28.8086 28 27.5486 28 26.0086V3.60859C28 2.06859 26.74 0.808594 25.2 0.808594ZM8.4 24.6086H4.2V12.0086H8.4V24.6086ZM6.3 9.62859C4.9 9.62859 3.78 8.50859 3.78 7.10859C3.78 5.70859 4.9 4.58859 6.3 4.58859C7.7 4.58859 8.82 5.70859 8.82 7.10859C8.82 8.50859 7.7 9.62859 6.3 9.62859ZM23.8 24.6086H19.6V17.1886C19.6 16.0686 18.62 15.0886 17.5 15.0886C16.38 15.0886 15.4 16.0686 15.4 17.1886V24.6086H11.2V12.0086H15.4V13.6886C16.1 12.5686 17.64 11.7286 18.9 11.7286C21.56 11.7286 23.8 13.9686 23.8 16.6286V24.6086Z" fill="#E5B92E"/>
</g>
<defs>
<clipPath id="clip0_5555_129">
<rect width="28" height="28" fill="white" transform="translate(0 0.808594)"/>
</clipPath>
</defs>
</svg>
