<svg width="28" height="29" viewBox="0 0 28 29" fill="none" xmlns="http://www.w3.org/2000/svg">
<path d="M14.9361 14.3308L21.2371 23.3435H18.6511L13.5094 15.9891V15.9887L12.7545 14.9091L6.74805 6.31738H9.334L14.1812 13.2512L14.9361 14.3308Z" fill="#E5B92E"/>
<path d="M24.9745 0.808594H3.02546C1.35459 0.808594 0 2.16318 0 3.83405V25.7831C0 27.454 1.35459 28.8086 3.02546 28.8086H24.9745C26.6454 28.8086 28 27.454 28 25.7831V3.83405C28 2.16318 26.6454 0.808594 24.9745 0.808594ZM17.8593 24.5531L12.6561 16.9806L6.14174 24.5531H4.45809L11.9086 15.893L4.45809 5.04967H10.1407L15.0677 12.2204L21.2364 5.04967H22.9201L15.8155 13.3082H15.8151L23.5419 24.5531H17.8593Z" fill="#E5B92E"/>
</svg>
