<svg width="280" height="280" viewBox="0 0 280 280" fill="none" xmlns="http://www.w3.org/2000/svg">
<path d="M26.3197 94.5841C27.7454 97.3794 28.3142 100.533 27.9549 103.651C27.6189 106.311 26.6949 108.887 27.0309 111.597C27.5573 115.875 30.5589 119.286 32.9837 122.651C34.3927 124.456 35.5251 126.46 36.3437 128.599C37.2285 131.231 37.0157 133.969 36.5229 136.657C35.5933 141.764 34.2829 146.563 37.1445 151.307C38.7237 153.916 40.8573 156.128 42.3413 158.799C43.9413 161.747 44.9424 164.983 45.2869 168.319C45.3205 168.622 45.9029 168.723 45.8749 168.381C45.6776 165.58 44.9856 162.837 43.8309 160.278C42.6605 157.691 40.9581 155.518 39.2781 153.255C37.5981 150.993 36.1365 148.495 35.9853 145.544C35.8453 142.789 36.5453 140.073 37.1053 137.396C37.5869 134.938 37.9453 132.401 37.4245 129.92C36.9274 127.846 36.0461 125.884 34.8261 124.135C32.3733 120.428 28.9069 117.04 27.8877 112.594C27.1429 109.335 28.4477 106.249 28.6605 103.023C28.8873 100.035 28.1725 97.0504 26.6165 94.4889C26.4989 94.2985 26.2077 94.3433 26.3253 94.5841H26.3197Z" fill="#37474F"/>
<path d="M25.5806 99.3666C25.4406 98.4762 26.9134 95.7322 27.2606 95.6818C27.6078 95.6314 29.6518 97.765 29.803 98.717C29.8134 98.9061 29.7738 99.0947 29.6883 99.2638C29.6028 99.4328 29.4743 99.5764 29.3158 99.6802C28.8902 99.9876 28.3977 100.19 27.8788 100.269C27.3598 100.349 26.8294 100.305 26.331 100.139C26.1472 100.09 25.98 99.9928 25.8469 99.8568C25.7139 99.7208 25.62 99.5515 25.575 99.3666H25.5806Z" fill="#022C22"/>
<path opacity="0.1" d="M25.5806 99.3666C25.4406 98.4762 26.9134 95.7322 27.2606 95.6818C27.6078 95.6314 29.6518 97.765 29.803 98.717C29.8134 98.9061 29.7738 99.0947 29.6883 99.2638C29.6028 99.4328 29.4743 99.5764 29.3158 99.6802C28.8902 99.9876 28.3977 100.19 27.8788 100.269C27.3598 100.349 26.8294 100.305 26.331 100.139C26.1472 100.09 25.98 99.9928 25.8469 99.8568C25.7139 99.7208 25.62 99.5515 25.575 99.3666H25.5806Z" fill="black"/>
<path d="M12.4094 81.5193C13.4398 88.3625 20.1598 96.1801 27.4398 96.7345C34.199 93.6769 38.2534 84.5545 37.2006 77.6945C36.1478 70.8345 30.7606 65.1393 22.7806 66.3657C14.8006 67.5921 11.3566 74.6761 12.4094 81.5193Z" fill="#022C22"/>
<path opacity="0.05" d="M37.2063 81.3736C37.2063 81.3736 36.3999 88.2224 28.3247 89.992C20.5743 91.7056 12.8799 84.084 12.2471 78.3552C12.1925 79.4127 12.2469 80.4729 12.4095 81.5192C13.4399 88.3624 20.1599 96.18 27.4399 96.7344C33.0399 94.2032 36.7807 87.5056 37.3015 81.3904L37.2063 81.3736Z" fill="black"/>
<path d="M253.741 121.694C252.477 123.458 251.622 125.482 251.238 127.619C250.869 129.741 251.238 131.858 251.345 133.986C251.513 136.786 250.908 139.132 249.049 141.266C247.576 142.946 245.795 144.346 244.462 146.16C241.785 149.806 241.181 153.883 241.729 158.29C242.351 163.279 243.51 167.972 241.108 172.71C239.82 175.252 238.117 177.571 237.216 180.303C236.41 182.964 236.065 185.742 236.197 188.519C236.197 188.827 236.785 188.922 236.79 188.58C236.744 185.931 237.086 183.29 237.804 180.74C238.537 178.399 239.859 176.344 241.057 174.222C242.272 172.225 243.037 169.987 243.297 167.664C243.407 165.575 243.266 163.481 242.877 161.426C242.508 159.035 242.06 156.61 242.177 154.185C242.324 151.778 243.085 149.449 244.389 147.42C246.685 143.775 251.143 141.535 251.91 137.004C252.28 134.809 251.809 132.58 251.703 130.385C251.557 127.339 252.56 124.561 254.033 121.94C254.128 121.778 253.853 121.515 253.73 121.688L253.741 121.694Z" fill="#37474F"/>
<path d="M254.475 126.7C254.665 125.815 253.355 122.987 253.024 122.909C252.694 122.831 250.504 124.841 250.297 125.782C250.274 125.969 250.301 126.16 250.374 126.334C250.448 126.508 250.566 126.659 250.717 126.773C251.124 127.104 251.603 127.335 252.116 127.448C252.628 127.561 253.16 127.552 253.668 127.423C253.854 127.383 254.027 127.296 254.168 127.169C254.31 127.042 254.415 126.881 254.475 126.7Z" fill="#022C22"/>
<path opacity="0.1" d="M254.475 126.7C254.665 125.815 253.355 122.987 253.024 122.909C252.694 122.831 250.504 124.841 250.297 125.782C250.274 125.969 250.301 126.16 250.374 126.334C250.448 126.508 250.566 126.659 250.717 126.773C251.124 127.104 251.603 127.335 252.116 127.448C252.628 127.561 253.16 127.552 253.668 127.423C253.854 127.383 254.027 127.296 254.168 127.169C254.31 127.042 254.415 126.881 254.475 126.7Z" fill="black"/>
<path d="M268.755 109.76C267.271 116.519 260.086 123.895 252.795 123.984C246.243 120.495 242.782 111.138 244.272 104.384C245.762 97.6305 251.502 92.2657 259.392 94.0017C267.282 95.7377 270.245 102.967 268.755 109.76Z" fill="#022C22"/>
<path opacity="0.05" d="M244.02 107.996C244.02 107.996 244.417 114.884 252.33 117.169C259.957 119.37 268.122 112.258 269.13 106.579C269.112 107.64 268.988 108.696 268.761 109.732C267.277 116.491 260.092 123.867 252.801 123.956C247.369 121.067 244.07 114.145 243.941 108.007L244.02 107.996Z" fill="black"/>
<path d="M170.419 24.4103C167.804 24.1527 164.259 28.5207 166.824 30.6207C168.246 31.7855 171.343 31.2815 171.304 29.1031C171.298 29.0427 171.272 28.986 171.23 28.9415C171.189 28.8971 171.134 28.8673 171.074 28.8567C169.019 28.3863 166.981 29.2711 167.328 31.6567C167.514 32.6851 168.044 33.62 168.83 34.3085C169.616 34.9971 170.613 35.3988 171.657 35.4479C171.78 35.4479 171.735 35.2351 171.657 35.2127C169.865 34.8375 168.174 33.7231 167.821 31.8079C167.741 31.469 167.734 31.117 167.801 30.7752C167.868 30.4335 168.006 30.1098 168.207 29.8255C168.447 29.5376 168.763 29.324 169.12 29.2095C169.428 29.1143 170.531 28.9407 170.8 29.2095C171.282 29.7079 169.971 30.5535 169.579 30.6879C169.192 30.8268 168.779 30.8788 168.37 30.8401C167.96 30.8013 167.565 30.6729 167.21 30.4639C166.124 29.7023 166.393 28.2687 166.919 27.2551C167.63 25.8831 168.874 24.7687 170.475 24.7127C170.621 24.7127 170.542 24.4383 170.43 24.4271L170.419 24.4103Z" fill="#022C22"/>
<path d="M171.287 110.449C172.111 108.595 172.021 106.674 174.418 106.064C175.471 105.795 177.963 105.549 178.752 106.484C178.896 106.71 178.954 106.98 178.916 107.245C178.878 107.51 178.746 107.753 178.545 107.929C177.923 108.489 177.459 107.817 177.296 107.223C177.171 106.675 177.219 106.102 177.434 105.582C177.649 105.063 178.019 104.622 178.495 104.322C179.5 103.66 180.717 103.398 181.906 103.589C183.095 103.78 184.17 104.409 184.918 105.353C185.007 105.465 185.103 105.353 185.063 105.23C183.227 101.002 174.423 103.942 177.223 107.996C178.08 109.222 179.592 108.142 179.307 106.842C178.993 105.403 176.54 105.476 175.454 105.549C174.353 105.549 173.291 105.958 172.475 106.697C171.517 107.638 171.388 109.127 171.187 110.393C171.187 110.449 171.237 110.533 171.276 110.449H171.287Z" fill="#022C22"/>
<path d="M234.08 19.5327C235.799 19.0287 238.163 19.1687 239.602 20.3279C240.722 21.2239 241.349 23.1671 239.708 23.8335C239.064 24.0911 236.942 24.0911 236.69 23.2175C236.511 22.6071 237.166 22.2431 237.692 22.1647C239.232 21.9239 240.677 23.5479 240.638 24.9983C240.587 27.1767 238.051 27.8991 236.259 27.9159C236.141 27.9159 236.169 28.1399 236.259 28.1455C239.311 28.4423 242.715 25.6143 239.999 22.7807C239.271 22.0191 238.129 21.4759 237.076 21.8959C236.483 22.1367 236.012 22.6743 236.309 23.3183C236.785 24.3543 238.7 24.5335 239.63 24.2703C239.876 24.2048 240.107 24.0893 240.307 23.9312C240.507 23.7731 240.672 23.5756 240.793 23.3509C240.914 23.1263 240.987 22.8793 241.009 22.6252C241.03 22.3711 240.999 22.1152 240.918 21.8735C240.167 19.1183 236.309 18.5135 234.024 19.3703C233.957 19.3703 233.985 19.5551 234.063 19.5327H234.08Z" fill="#022C22"/>
<path d="M256.609 135.134C258.328 134.63 260.691 134.77 262.131 135.929C263.251 136.825 263.878 138.768 262.237 139.434C261.593 139.692 259.471 139.692 259.219 138.813C259.039 138.208 259.695 137.844 260.215 137.76C261.761 137.525 263.2 139.149 263.167 140.599C263.116 142.778 260.579 143.5 258.787 143.517C258.67 143.517 258.698 143.741 258.787 143.746C261.839 144.043 265.244 141.215 262.528 138.382C261.8 137.62 260.658 137.077 259.605 137.497C259.011 137.732 258.541 138.275 258.838 138.919C259.314 139.955 261.229 140.134 262.159 139.866C262.405 139.801 262.636 139.687 262.837 139.53C263.037 139.372 263.203 139.175 263.324 138.951C263.445 138.726 263.518 138.479 263.539 138.225C263.56 137.971 263.529 137.716 263.447 137.474C262.696 134.714 258.838 134.114 256.553 134.971C256.486 134.971 256.508 135.156 256.592 135.134H256.609Z" fill="#022C22"/>
<path d="M244.009 51.4025C241.959 52.0129 240.055 55.6193 241.959 57.2601C243.578 58.6545 246.848 58.3409 246.305 55.6809C246.3 55.6506 246.287 55.6222 246.267 55.5985C246.247 55.5749 246.222 55.557 246.193 55.5465C244.043 55.0313 243.331 57.5401 243.785 59.1977C244.485 61.7737 247.083 61.7401 248.959 60.3961C249.021 60.3513 248.993 60.1721 248.903 60.2169C247.369 60.9841 245.219 61.6673 244.283 59.7073C243.785 58.6601 243.768 56.9073 244.731 56.1177C244.982 55.8839 245.313 55.7555 245.655 55.7593C246.372 55.8433 246.249 56.6161 245.846 57.1089C245.202 57.8929 243.908 57.8089 243.046 57.5065C240.095 56.4593 242.122 52.6345 244.048 51.5593C244.104 51.5257 244.093 51.3801 244.009 51.4025Z" fill="#022C22"/>
<path d="M198.43 42.392C196.011 42.084 190.809 44.1224 192.164 47.432C192.886 49.196 196.112 50.3272 197.17 48.3056C197.193 48.2505 197.194 48.1888 197.172 48.1334C197.15 48.078 197.107 48.0333 197.053 48.0088C192.013 45.1528 186.704 53.4016 192.052 56.4088C192.22 56.504 192.214 56.2184 192.119 56.1456C191.658 55.8296 191.264 55.4249 190.961 54.9549C190.658 54.485 190.451 53.9593 190.354 53.4087C190.256 52.858 190.27 52.2934 190.393 51.748C190.516 51.2025 190.747 50.6871 191.072 50.232C191.617 49.3621 192.392 48.6603 193.312 48.2048C194.001 47.88 195.731 47.4208 196.375 48.0928C196.666 48.4064 196.661 48.0144 196.51 48.3784C196.366 48.5946 196.146 48.7486 195.894 48.8096C195.344 48.9842 194.751 48.9644 194.214 48.7536C193.094 48.3616 192.214 47.3312 192.534 46.0936C193.122 43.6128 196.28 42.7336 198.492 42.6944C198.643 42.6944 198.548 42.4088 198.43 42.392Z" fill="#022C22"/>
<path d="M209.44 20.0648C209.44 20.0648 209.294 22.7752 211.305 24.2816L213.41 23.6376C213.41 23.6376 212.005 22.9656 211.305 20.0648H209.44Z" fill="#455A64"/>
<path d="M173.97 85.6799C173.97 85.6799 173.819 88.3903 175.829 89.8967L177.94 89.2527C177.94 89.2527 176.529 88.5807 175.829 85.6799H173.97Z" fill="#455A64"/>
<path d="M191.184 116.222C191.184 116.222 191.033 118.927 193.049 120.434L195.155 119.795C195.155 119.795 193.749 119.118 193.049 116.222H191.184Z" fill="#37474F"/>
<path d="M257.185 33.6448C257.185 33.6448 255.953 36.064 253.461 36.3608L251.955 34.748C251.955 34.748 253.512 34.8712 255.573 32.7152L257.185 33.6448Z" fill="#455A64"/>
<path d="M242.743 120.142C242.743 120.142 241.517 122.562 239.019 122.853L237.513 121.246C237.513 121.246 239.075 121.363 241.13 119.207L242.743 120.142Z" fill="#455A64"/>
<path d="M208.275 69.3336C208.275 69.3336 207.049 71.7528 204.551 72.044L203.045 70.4368C203.045 70.4368 204.607 70.5544 206.663 68.3984L208.275 69.3336Z" fill="#022C22"/>
<path d="M185.87 39.48C185.87 39.48 184.643 41.8992 182.151 42.196L180.645 40.5832C180.645 40.5832 182.202 40.7064 184.263 38.5504L185.87 39.48Z" fill="#455A64"/>
<path d="M232.4 43.12C232.4 43.12 229.706 43.456 228.065 41.5464L228.564 39.4016C228.564 39.4016 229.331 40.7624 232.271 41.2608L232.4 43.12Z" fill="#022C22"/>
<path d="M193.346 29.8983C193.346 29.8983 190.658 30.2343 189.017 28.3303L189.51 26.1855C189.51 26.1855 190.283 27.5407 193.223 28.0447L193.346 29.8983Z" fill="#022C22"/>
<path d="M148.058 24.0183C148.058 24.0183 145.37 24.3543 143.729 22.4503L144.222 20.3055C144.222 20.3055 144.995 21.6607 147.929 22.1647L148.058 24.0183Z" fill="#022C22"/>
<path d="M180.281 60.1496C180.281 60.1496 177.593 60.48 175.952 58.576L176.445 56.4312C176.445 56.4312 177.218 57.792 180.158 58.2904L180.281 60.1496Z" fill="#022C22"/>
<path d="M260.859 80.2033C260.859 80.2033 258.165 80.5337 256.53 78.6297L257.023 76.4849C257.023 76.4849 257.796 77.8457 260.73 78.3441L260.859 80.2033Z" fill="#022C22"/>
<path d="M213.959 53.0599C213.959 53.0599 212.733 55.4791 210.235 55.7759L208.729 54.1631C208.729 54.1631 210.571 54.4487 212.649 52.2927L213.959 53.0599Z" fill="#455A64"/>
<path d="M216.67 56.6328C216.67 56.6328 216.188 59.304 213.87 60.3008L211.966 59.1808C213.313 58.573 214.433 57.5534 215.163 56.2688L216.67 56.6328Z" fill="#37474F"/>
<path d="M122.018 22.316C124.639 22.0584 128.178 26.4208 125.613 28.5208C124.197 29.6912 121.094 29.1816 121.133 27.0032C121.141 26.9438 121.167 26.8883 121.209 26.845C121.25 26.8016 121.304 26.7727 121.363 26.7624C123.424 26.292 125.457 27.1712 125.109 29.5624C124.924 30.5897 124.395 31.5237 123.61 32.2114C122.825 32.8992 121.829 33.2999 120.786 33.348C120.657 33.348 120.702 33.1352 120.786 33.1184C122.578 32.7376 124.269 31.6232 124.617 29.708C124.698 29.37 124.705 29.0186 124.638 28.6776C124.572 28.3365 124.433 28.0137 124.23 27.7312C123.988 27.4334 123.662 27.2149 123.295 27.104C122.993 27.0088 121.884 26.8352 121.643 27.104C121.156 27.608 122.472 28.448 122.864 28.5824C123.25 28.7231 123.662 28.7761 124.071 28.7373C124.48 28.6986 124.875 28.5691 125.227 28.3584C126.313 27.6024 126.045 26.1688 125.518 25.1496C124.813 23.7832 123.564 22.6632 121.962 22.6128C121.822 22.6128 121.895 22.3384 122.007 22.3272L122.018 22.316Z" fill="#022C22"/>
<path d="M117.818 114.111C116.995 112.258 117.079 110.337 114.688 109.721C113.635 109.452 111.143 109.206 110.348 110.146C110.205 110.372 110.148 110.64 110.186 110.904C110.224 111.168 110.355 111.41 110.555 111.586C111.182 112.146 111.675 111.474 111.809 110.886C111.935 110.337 111.887 109.762 111.672 109.242C111.458 108.721 111.087 108.28 110.611 107.979C109.602 107.309 108.378 107.044 107.183 107.236C105.987 107.428 104.908 108.063 104.16 109.015C104.076 109.122 103.981 109.015 104.02 108.892C105.857 104.664 114.66 107.604 111.86 111.658C111.003 112.885 109.485 111.798 109.771 110.505C110.09 109.066 112.571 109.138 113.624 109.206C114.726 109.208 115.789 109.617 116.609 110.354C117.566 111.3 117.695 112.79 117.897 114.05C117.897 114.111 117.846 114.19 117.807 114.111H117.818Z" fill="#022C22"/>
<path d="M48.9999 19.5327C47.2807 19.0287 44.9175 19.1687 43.4727 20.3279C42.3527 21.2239 41.7311 23.1671 43.3719 23.8335C44.0159 24.0911 46.1383 24.0911 46.3903 23.2175C46.5695 22.6071 45.9143 22.2431 45.3879 22.1647C43.8479 21.9239 42.4031 23.5479 42.4367 24.9983C42.4927 27.1767 45.0295 27.8991 46.8215 27.9159C46.9391 27.9159 46.9111 28.1399 46.8215 28.1455C43.7695 28.4423 40.3647 25.6143 43.0751 22.7807C43.8087 22.0191 44.9511 21.4759 46.0039 21.8959C46.5975 22.1367 47.0679 22.6743 46.7711 23.3183C46.2951 24.3543 44.3799 24.5335 43.4503 24.2703C43.2039 24.2048 42.9735 24.0893 42.7734 23.9312C42.5733 23.7731 42.4078 23.5756 42.2871 23.3509C42.1664 23.1263 42.093 22.8793 42.0716 22.6252C42.0501 22.3711 42.081 22.1152 42.1623 21.8735C42.9127 19.1183 46.7655 18.5135 49.0559 19.3703C49.1231 19.3703 49.0951 19.5551 49.0167 19.5327H48.9999Z" fill="#022C22"/>
<path d="M29.0022 133.061C27.283 132.557 24.9198 132.697 23.475 133.857C22.355 134.753 21.7278 136.696 23.3742 137.362C24.0182 137.62 26.135 137.62 26.3926 136.746C26.5662 136.136 25.911 135.772 25.3902 135.693C23.8446 135.453 22.4054 137.077 22.439 138.527C22.4894 140.705 25.0262 141.428 26.8182 141.445C26.9414 141.445 26.9078 141.669 26.8182 141.68C23.7662 141.971 20.3614 139.143 23.0718 136.309C23.8054 135.548 24.9422 135.005 25.995 135.425C26.5942 135.665 27.0646 136.203 26.7678 136.847C26.2918 137.883 24.371 138.062 23.4414 137.799C23.195 137.734 22.9647 137.618 22.7648 137.46C22.565 137.302 22.3997 137.104 22.2795 136.879C22.1592 136.655 22.0864 136.407 22.0657 136.153C22.045 135.899 22.0768 135.644 22.159 135.402C22.9038 132.647 26.7622 132.07 29.0526 132.899C29.1198 132.899 29.0918 133.084 29.0134 133.061H29.0022Z" fill="#022C22"/>
<path d="M33.4097 52.4384C35.4593 53.0488 37.3633 56.6552 35.4593 58.296C33.8409 59.696 30.5705 59.3768 31.1137 56.7168C31.1198 56.6869 31.1332 56.6589 31.1528 56.6355C31.1723 56.612 31.1974 56.5938 31.2257 56.5824C33.3761 56.0728 34.0873 58.5816 33.6337 60.2392C32.9337 62.8096 30.3353 62.7816 28.4593 61.432C28.3977 61.3872 28.4257 61.2136 28.5153 61.2584C30.0497 62.0256 32.2001 62.7032 33.1353 60.7432C33.6337 59.696 33.6505 57.9432 32.6873 57.1592C32.4374 56.9238 32.1066 56.7935 31.7633 56.7952C31.0465 56.8792 31.1697 57.6576 31.5729 58.1448C32.2169 58.9288 33.5105 58.8448 34.3729 58.5424C37.3241 57.5008 35.2969 53.6704 33.3705 52.5952C33.3145 52.5616 33.3257 52.416 33.4097 52.4384Z" fill="#022C22"/>
<path d="M39.9225 98.3023C36.4337 98.5823 37.0609 105.207 39.8777 106.103C40.0508 106.165 40.2345 106.192 40.4181 106.182C40.6017 106.173 40.7816 106.127 40.9473 106.047C41.1539 105.895 41.3198 105.694 41.4302 105.463C41.5406 105.231 41.5921 104.976 41.5801 104.72C41.2441 103.6 39.3401 105.022 39.1217 105.465C38.7591 106.048 38.5899 106.73 38.6382 107.415C38.6864 108.1 38.9497 108.752 39.3905 109.278C40.8241 110.829 43.5681 110.88 45.3601 109.984C45.4497 109.933 45.4665 110.107 45.4049 110.152C43.4729 111.389 40.2361 111.21 38.8025 109.25C37.6825 107.682 38.4497 103.521 40.9473 103.891C43.2769 104.233 41.6641 106.887 39.9001 106.534C38.1361 106.181 37.4977 103.841 37.3297 102.39C37.1169 100.565 37.6601 98.1007 39.9225 98.1399C39.9953 98.1399 39.9897 98.2967 39.9225 98.3023Z" fill="#022C22"/>
<path d="M83.7368 42.392C86.156 42.084 91.3584 44.1224 90.0032 47.432C89.2808 49.196 86.0552 50.3272 84.9968 48.3056C84.974 48.2505 84.9736 48.1888 84.9955 48.1334C85.0175 48.078 85.0601 48.0333 85.1144 48.0088C90.1544 45.1528 95.4632 53.4016 90.1152 56.4088C89.9472 56.504 89.9528 56.2184 90.048 56.1456C90.5102 55.8296 90.9047 55.4246 91.2083 54.9542C91.5119 54.4838 91.7186 53.9575 91.8161 53.4061C91.9136 52.8548 91.9001 52.2896 91.7763 51.7435C91.6525 51.1975 91.4209 50.6817 91.0952 50.2264C90.5503 49.3565 89.7749 48.6547 88.8552 48.1992C88.1664 47.8744 86.436 47.4152 85.7919 48.0872C85.5007 48.4008 85.5064 48.0088 85.6576 48.3728C85.8012 48.589 86.0212 48.743 86.2736 48.804C86.8234 48.9786 87.4166 48.9588 87.9536 48.748C89.0736 48.356 89.9528 47.3256 89.6336 46.088C89.0456 43.6072 85.8872 42.728 83.6752 42.6888C83.524 42.6888 83.6192 42.4032 83.7368 42.3864V42.392Z" fill="#022C22"/>
<path d="M73.9201 24.9928C73.9201 24.9928 74.0713 27.7032 72.0553 29.2096L69.9497 28.56C69.9497 28.56 71.3553 27.888 72.0553 24.9872L73.9201 24.9928Z" fill="#455A64"/>
<path d="M117.438 92.0696C117.438 92.0696 117.589 94.78 115.573 96.2864L113.467 95.648C113.467 95.648 114.873 94.9704 115.573 92.0696H117.438Z" fill="#455A64"/>
<path d="M109.116 124.466C109.116 124.466 109.262 127.176 107.251 128.682L105.146 128.038C105.146 128.038 106.551 127.366 107.251 124.466H109.116Z" fill="#37474F"/>
<path d="M24.9814 33.6448C24.9814 33.6448 26.2134 36.064 28.7054 36.3608L30.2398 34.748C30.2398 34.748 28.683 34.8712 26.6222 32.7152L24.9814 33.6448Z" fill="#455A64"/>
<path d="M51.0327 117.191C51.0327 117.191 52.2591 119.61 54.7567 119.907L56.2631 118.294C56.2631 118.294 54.7007 118.417 52.6455 116.261L51.0327 117.191Z" fill="#455A64"/>
<path d="M77.5547 72.4696C77.5547 72.4696 78.7811 74.8888 81.2787 75.1856L82.7795 73.5728C82.7795 73.5728 81.2227 73.696 79.1675 71.54L77.5547 72.4696Z" fill="#022C22"/>
<path d="M101.92 40.8072C101.92 40.8072 103.146 43.2264 105.644 43.5232L107.145 41.9104C107.145 41.9104 105.588 42.0336 103.533 39.8776L101.92 40.8072Z" fill="#455A64"/>
<path d="M49.7617 43.12C49.7617 43.12 52.4553 43.456 54.0961 41.5464L53.5977 39.4016C53.5977 39.4016 52.8305 40.7624 49.8905 41.2608L49.7617 43.12Z" fill="#022C22"/>
<path d="M95.7603 22.148C95.7603 22.148 98.4539 22.484 100.095 20.58L99.6019 18.4352C99.6019 18.4352 98.8291 19.7904 95.8891 20.2944L95.7603 22.148Z" fill="#022C22"/>
<path d="M101.87 57.8871C101.87 57.8871 104.558 58.2175 106.198 56.3135L105.706 54.1687C105.706 54.1687 104.933 55.5295 101.993 56.0279L101.87 57.8871Z" fill="#022C22"/>
<path d="M14.5601 111.138C14.5601 111.138 17.2537 111.474 18.8945 109.57L18.4017 107.419C18.4017 107.419 17.6289 108.78 14.6889 109.278L14.5601 111.138Z" fill="#022C22"/>
<path d="M68.208 53.0599C68.208 53.0599 69.4344 55.4791 71.932 55.7759L73.4384 54.1631C73.4384 54.1631 71.596 54.4487 69.5184 52.2927L68.208 53.0599Z" fill="#455A64"/>
<path d="M65.52 56.6328C65.52 56.6328 66.0016 59.304 68.32 60.3008L70.224 59.1808C68.8769 58.573 67.7573 57.5534 67.0264 56.2688L65.52 56.6328Z" fill="#37474F"/>
<path d="M153.933 42.6943C153.933 42.6943 152.707 45.1135 150.209 45.4103L148.703 43.8031C148.703 43.8031 150.545 44.0831 152.623 41.9271L153.933 42.6943Z" fill="#455A64"/>
<path d="M141.859 39.7936C141.859 39.7936 141.378 42.4648 139.059 43.4672L137.155 42.3472C138.504 41.7385 139.624 40.7167 140.353 39.4296L141.859 39.7936Z" fill="#37474F"/>
<path d="M213.091 172.637C213.149 174.555 213.374 176.464 213.763 178.343C214.692 190.047 215.908 192.797 217.308 200.9C217.459 201.807 217.823 203.605 217.868 204.204C217.935 204.96 218.282 210.678 218.59 212.38C219.032 214.878 223.182 214.939 223.501 212.038C223.714 210.106 223.199 205.01 223.16 204.081C223.16 204.081 223.16 202.434 223.16 201.634C223.16 197.994 223.759 190.994 224.106 184.671C224.369 179.906 223.384 177.537 222.796 175.151C222.796 175.151 223.994 167.429 225.45 158.911C226.906 150.394 230.451 140.638 223.361 132.922L213.578 136.282C213.578 136.282 212.576 151.917 212.956 164.629C213.035 168.258 213.096 170.862 213.091 172.637Z" fill="#FFBDA7"/>
<path d="M208.55 186.424C210.056 188.423 211.019 190.848 212.01 193.144C211.576 194.347 210.997 195.492 210.286 196.554L206.287 191.341C207.066 189.7 207.805 188.059 208.55 186.424Z" fill="#263238"/>
<path d="M210.286 196.56C208.51 196.56 206.73 196.56 204.949 196.56C204.058 195.412 203.157 194.275 202.272 193.127C204.131 193.183 205.99 193.295 207.872 193.346L210.286 196.56Z" fill="black"/>
<path d="M203.84 184.179C204.96 183.355 205.061 184.335 206.024 184.783C206.696 185.097 207.816 185.517 208.471 186.413C209.389 187.667 208.667 189.902 208.219 191.509C207.791 193.073 207.808 194.725 208.269 196.28C208.801 198.599 208.751 200.491 206.976 202.519C205.559 204.143 201.062 206.114 199.517 205.111C196.879 203.431 200.749 199.668 200.693 197.428C200.626 194.575 200.251 191.738 199.573 188.967C199.472 188.524 199.421 188.054 199.69 187.847C200.894 186.766 202.72 185.002 203.84 184.179Z" fill="#37474F"/>
<path d="M205.817 132.911C203.661 135.459 193.256 148.372 190.546 152.791C188.765 155.691 189.986 159.511 190.971 162.703C192.254 166.964 194.079 171.836 195.149 174.978C197.148 180.835 198.626 183.938 200.234 189.011C201.163 189.98 202.826 189.146 203.745 188.496C204.534 187.936 205.38 185.954 205.279 184.957C204.988 182.067 205.027 181.597 204.658 178.237C204.098 172.872 204.198 164.495 200.553 159.651C206.013 153.597 211.999 149.347 215.981 142.263C211.68 139.944 208.958 129.198 205.817 132.911Z" fill="#FFBDA7"/>
<path d="M217.761 203.459C217.084 203.543 217.05 204.086 217.028 206.73C217.065 209.553 216.893 212.376 216.513 215.174C216.02 218.148 215.499 221.334 217.924 223.966C219.346 225.518 221.681 225.882 223.328 223.373C224.862 221.038 225.831 218.826 225.086 216.171C224.399 213.901 224.004 211.553 223.91 209.182C223.793 205.492 224 203.521 223.16 203.526V204.086C222.885 204.574 222.04 205.206 220.55 205.268C218.87 205.335 218.114 204.708 217.868 204.21C217.84 203.958 217.801 203.711 217.761 203.459Z" fill="#37474F"/>
<path d="M206.108 130.48C205.033 132.513 201.353 136.786 197.053 142.66C194.079 146.726 188.865 152.897 188.591 155.926C188.317 158.956 195.63 177.111 195.63 177.111C195.63 177.111 201.729 177.828 204.484 174.754C204.579 169.674 203.924 163.503 201.225 159.914C202.423 158.698 211.097 149.666 212.677 147.778C212.677 147.778 212.419 156.671 212.402 161.711C212.385 166.751 212.962 176.831 213.399 180.057C213.836 183.282 214.424 188.07 214.676 189.577C214.676 189.577 218.445 193.06 224.196 189.459C224.196 189.459 224.756 184.374 224.577 182.129C224.397 179.883 223.63 177.173 223.171 175.235C223.171 175.235 225.411 161.549 226.503 155.484C227.595 149.419 229.667 140.146 224.185 131.247C224.207 131.242 213.841 134.646 206.108 130.48Z" fill="#455A64"/>
<path d="M212.677 147.767C212.677 147.767 209.199 145.561 207.76 143.007C207.76 143.007 208.516 146.043 210.56 147.767L204.4 156.604L212.677 147.767Z" fill="#37474F"/>
<path d="M192.142 93.268C196.454 103.079 202.289 106.501 205.022 112.795C208.471 112.521 213.209 106.775 210.594 103.242C207.642 102.038 198.022 91.8176 197.417 87.4664C196.885 83.6024 194.729 77.6048 194.785 74.3848C194.807 73.8481 195.022 73.3373 195.39 72.9456C196.437 71.792 196.426 70.8792 197.07 69.5856C197.585 68.6 198.162 68.2248 197.994 68.0064C197.773 67.775 197.474 67.6354 197.155 67.6157C196.836 67.5959 196.521 67.6975 196.274 67.9C195.786 68.2572 195.352 68.6835 194.986 69.1656C195.151 67.9618 195.484 66.7872 195.978 65.6768C197.098 63.0112 196.818 61.6616 193.25 62.6472C191.01 63.2688 189.627 65.1504 189.358 70.5488C189.23 72.7874 189.243 75.0319 189.398 77.2688C189.84 81.4128 190.31 85.3832 190.865 88.8104C191.098 90.3449 191.527 91.843 192.142 93.268Z" fill="#FFBDA7"/>
<path d="M205.699 127.73C205.391 126.286 205.027 123.558 204.808 121.57C201.174 118.166 202.193 114.453 203.515 111.72C206.158 106.254 208.717 103.152 211.108 103.242L217.66 103.729C221.233 104.149 223.68 104.558 224.543 104.742C226.749 105.224 226.682 106.826 226.783 109.161C227.055 111.566 226.974 113.998 226.542 116.379L223.529 122.892L223.26 126.902C223.26 126.902 226.912 134.232 227.572 138.992C225.746 138.464 224.116 137.411 222.885 135.962C222.885 135.962 220.046 140.246 213.001 140.599C205.956 140.952 202.473 134.691 202.473 134.691L205.699 127.73Z" fill="#022C22"/>
<path opacity="0.1" d="M219.783 119.571C219.266 120.572 218.471 121.401 217.493 121.959C216.515 122.518 215.397 122.782 214.273 122.719C213.188 122.694 212.128 122.383 211.202 121.818C210.276 121.253 209.515 120.452 208.998 119.499C208.998 119.499 209.205 123.799 214.284 123.749C219.363 123.699 219.783 119.571 219.783 119.571Z" fill="black"/>
<path d="M221.407 79.1393C223.804 80.3769 225.03 81.8665 227.007 82.4153C228.984 82.9641 230.58 82.3761 232.047 81.1553C233.727 79.7721 234.522 78.0249 236.264 76.9497C238.005 75.8745 240.184 75.2081 242.116 75.8689C244.535 76.6921 245.879 79.2849 246.506 81.7601C247.279 84.8345 246.988 88.2953 245.246 90.9889C242.08 95.7719 237.351 99.3071 231.868 100.99C225.133 103.042 217.863 102.39 211.601 99.1705C209.025 97.8489 208.196 96.7009 206.332 94.5561C204.467 92.4113 203.772 89.7905 204.355 86.3185C204.915 82.9977 206.684 80.8585 210.072 79.0833C211.813 78.1369 213.765 77.6458 215.747 77.6556C217.728 77.6654 219.675 78.1758 221.407 79.1393Z" fill="#022C22"/>
<path opacity="0.5" d="M221.407 79.1393C223.804 80.3769 225.03 81.8665 227.007 82.4153C228.984 82.9641 230.58 82.3761 232.047 81.1553C233.727 79.7721 234.522 78.0249 236.264 76.9497C238.005 75.8745 240.184 75.2081 242.116 75.8689C244.535 76.6921 245.879 79.2849 246.506 81.7601C247.279 84.8345 246.988 88.2953 245.246 90.9889C242.08 95.7719 237.351 99.3071 231.868 100.99C225.133 103.042 217.863 102.39 211.601 99.1705C209.025 97.8489 208.196 96.7009 206.332 94.5561C204.467 92.4113 203.772 89.7905 204.355 86.3185C204.915 82.9977 206.684 80.8585 210.072 79.0833C211.813 78.1369 213.765 77.6458 215.747 77.6556C217.728 77.6654 219.675 78.1758 221.407 79.1393Z" fill="black"/>
<path d="M209.177 83.3281C207.934 84.0225 206.377 87.0633 206.343 93.5257C206.343 98.9969 208.079 100.391 208.958 100.806C209.838 101.22 211.562 101.019 213.237 100.806L213.158 104.093C213.158 104.093 208.426 109.027 212.251 109.603C214.161 109.895 216.608 108.741 218.266 107.492C219.332 106.615 220.103 105.43 220.472 104.099L220.606 96.9529C220.606 96.9529 221.564 97.9329 223.266 96.5161C224.672 95.3457 225.182 93.3297 224.134 92.2153C223.862 91.9502 223.531 91.7535 223.169 91.6415C222.806 91.5294 222.421 91.5052 222.047 91.5708C221.673 91.6365 221.32 91.7901 221.017 92.0189C220.714 92.2478 220.47 92.5455 220.304 92.8873C220.304 92.8873 219.324 92.9433 218.389 91.1009C216.744 91.2415 215.099 90.8318 213.713 89.9361C212.551 89.1967 211.55 88.2303 210.771 87.0948C209.991 85.9593 209.449 84.6782 209.177 83.3281Z" fill="#FFBDA7"/>
<path d="M213.449 91.9744C213.434 92.159 213.491 92.3423 213.61 92.4848C213.728 92.6273 213.898 92.7175 214.082 92.736C214.269 92.7452 214.452 92.6804 214.591 92.5557C214.731 92.4309 214.815 92.2563 214.827 92.0696C214.833 91.9791 214.822 91.8883 214.793 91.8024C214.764 91.7164 214.718 91.637 214.659 91.5686C214.599 91.5002 214.527 91.4442 214.446 91.4038C214.364 91.3634 214.276 91.3394 214.186 91.3332C214.095 91.3269 214.004 91.3386 213.918 91.3674C213.833 91.3962 213.753 91.4417 213.685 91.5013C213.616 91.5608 213.56 91.6332 213.52 91.7144C213.48 91.7956 213.456 91.8839 213.449 91.9744Z" fill="#263238"/>
<g style="mix-blend-mode:multiply" opacity="0.5">
<path d="M212.486 96.533L210.325 97.1658C210.362 97.3093 210.427 97.444 210.517 97.5621C210.606 97.6802 210.718 97.7794 210.846 97.8539C210.974 97.9284 211.116 97.9767 211.263 97.996C211.41 98.0154 211.559 98.0054 211.702 97.9666C211.993 97.8758 212.238 97.6756 212.384 97.4082C212.53 97.1407 212.567 96.8269 212.486 96.533Z" fill="#F0997A"/>
</g>
<path d="M207.284 89.6841L208.701 88.7545C208.645 88.6584 208.57 88.5747 208.481 88.5087C208.392 88.4426 208.29 88.3955 208.182 88.3703C208.074 88.3451 207.962 88.3424 207.853 88.3622C207.743 88.3821 207.639 88.4241 207.547 88.4857C207.358 88.6136 207.225 88.8093 207.176 89.0323C207.127 89.2554 207.166 89.4887 207.284 89.6841Z" fill="#263238"/>
<path d="M214.48 89.6001L216.048 90.2497C216.099 90.1487 216.127 90.0383 216.133 89.9254C216.138 89.8126 216.12 89.6999 216.08 89.5945C216.039 89.4891 215.977 89.3933 215.897 89.3133C215.818 89.2332 215.722 89.1707 215.617 89.1297C215.403 89.0468 215.166 89.0494 214.954 89.137C214.742 89.2246 214.573 89.3905 214.48 89.6001Z" fill="#263238"/>
<path d="M207.614 91.6832C207.61 91.8181 207.646 91.9512 207.717 92.0659C207.788 92.1807 207.891 92.2721 208.013 92.3288C208.136 92.3855 208.272 92.4049 208.406 92.3848C208.539 92.3646 208.664 92.3057 208.764 92.2153C208.864 92.1249 208.935 92.0071 208.969 91.8765C209.003 91.7459 208.998 91.6082 208.954 91.4805C208.91 91.3528 208.83 91.2408 208.723 91.1584C208.617 91.0759 208.488 91.0267 208.353 91.0168C208.261 91.0115 208.168 91.0246 208.081 91.0553C207.994 91.086 207.913 91.1337 207.845 91.1957C207.776 91.2577 207.72 91.3327 207.681 91.4164C207.641 91.5 207.618 91.5907 207.614 91.6832Z" fill="#263238"/>
<g style="mix-blend-mode:multiply" opacity="0.5">
<path d="M210.924 91.3696L210.717 95.508L208.555 94.78L210.924 91.3696Z" fill="#F0997A"/>
</g>
<g style="mix-blend-mode:multiply" opacity="0.5">
<path d="M213.237 100.8C215.006 100.615 218.646 99.6799 219.246 98.2407C219.004 98.9604 218.546 99.5882 217.935 100.038C216.815 100.94 213.214 101.898 213.214 101.898L213.237 100.8Z" fill="#F0997A"/>
</g>
<path d="M220.304 92.8592L220.236 95.7319C219.979 95.7261 219.726 95.6696 219.491 95.5656C219.255 95.4617 219.043 95.3123 218.865 95.126C218.688 94.9398 218.549 94.7203 218.457 94.4803C218.364 94.2402 218.32 93.9843 218.327 93.7271L218.388 91.0728L220.304 92.8592Z" fill="#022C22"/>
<path opacity="0.5" d="M220.304 92.8592L220.236 95.7319C219.979 95.7261 219.726 95.6696 219.491 95.5656C219.255 95.4617 219.043 95.3123 218.865 95.126C218.688 94.9398 218.549 94.7203 218.457 94.4803C218.364 94.2402 218.32 93.9843 218.327 93.7271L218.388 91.0728L220.304 92.8592Z" fill="black"/>
<path d="M238.969 94.0799C234.898 103.992 229.858 110.062 226.57 116.402C220.97 116.732 220.461 108.08 222.986 104.485C222.986 104.485 232.719 92.7247 233.582 88.4071C234.343 84.5823 236.034 78.4839 235.894 75.2639C235.864 74.7274 235.637 74.221 235.256 73.8415C234.186 72.7215 234.175 71.7975 233.475 70.5431C232.915 69.5687 232.355 69.2103 232.512 68.9863C232.727 68.7491 233.024 68.6022 233.343 68.5752C233.662 68.5482 233.979 68.6431 234.231 68.8407C234.727 69.1859 235.17 69.6008 235.547 70.0727C235.352 68.8746 234.99 67.7096 234.472 66.6119C233.268 63.9743 233.537 62.6135 237.126 63.5151C239.366 64.0751 240.806 65.9343 241.209 71.3215C241.391 73.5567 241.431 75.8013 241.326 78.0415C240.99 82.1967 240.61 86.1727 240.145 89.6167C239.944 91.1483 239.549 92.6481 238.969 94.0799Z" fill="#FFBDA7"/>
<path d="M127.389 211.249C127.797 212.335 128.408 213.416 129.629 213.819C132.137 214.653 135.397 212.497 136.746 210.89C138.381 208.941 138.628 206.864 139.826 205.245C141.025 203.627 142.716 202.602 143.533 201.202C143.87 200.679 144.069 200.079 144.111 199.458C144.153 198.837 144.037 198.216 143.774 197.652C143.389 196.951 142.804 196.379 142.094 196.011C141.909 195.899 141.585 195.888 141.383 195.776L127.389 211.249Z" fill="#263238"/>
<path d="M132.602 201.04C132.428 202.047 132.034 203.003 131.448 203.84C130.407 205.229 129.068 206.254 127.842 207.458C127.4 207.813 127.041 208.26 126.789 208.768C126.274 210.112 126.879 211.198 127.825 212.246C128.238 212.622 128.736 212.895 129.276 213.041C130.071 213.259 130.911 213.259 131.706 213.041C133.239 212.515 134.61 211.603 135.688 210.392C137.81 208.018 137.676 204.898 140.207 202.815C142.738 200.732 144.44 198.509 141.859 195.821C140.604 194.51 139.204 193.95 138.829 193.48C138.157 192.646 136.589 194.107 136.091 194.533C135.592 194.958 135.111 195.462 134.601 195.91C134.132 196.439 133.701 197 133.313 197.59C133.152 197.755 133.018 197.944 132.916 198.15C132.827 198.425 132.793 198.714 132.815 199.002C132.812 199.686 132.741 200.369 132.602 201.04Z" fill="#37474F"/>
<path d="M135.727 210.375C136.022 210.064 136.288 209.727 136.522 209.367C136.123 208.167 135.335 207.134 134.282 206.433C133.63 205.989 132.89 205.69 132.113 205.555C131.336 205.42 130.538 205.452 129.774 205.649C128.999 206.125 128.266 206.669 127.585 207.273C127.139 207.658 126.802 208.152 126.605 208.706C126.429 209.36 126.455 210.051 126.679 210.689C126.903 211.328 127.314 211.884 127.859 212.285C128.252 212.648 128.733 212.902 129.254 213.024C130.051 213.242 130.892 213.242 131.69 213.024C133.228 212.477 134.613 211.568 135.727 210.375Z" fill="#FAFAFA"/>
<path d="M137.054 189.235L138.566 193.866C138.566 193.866 139.725 195.384 137.9 197.142C136.074 198.901 134.03 198.822 133.151 197.753L130.547 192.836L137.054 189.235Z" fill="#B16668"/>
<path d="M175.129 179.872C175.795 180.185 177.554 180.303 178.522 179.642C180.544 178.265 180.975 174.205 180.342 171.959C179.57 169.237 178.058 167.86 177.542 166.225C177.027 164.589 177.167 162.249 176.484 160.821C176.206 160.267 175.813 159.781 175.329 159.394C174.846 159.007 174.285 158.73 173.684 158.581C173.303 158.477 172.904 158.46 172.516 158.533C172.128 158.606 171.761 158.766 171.444 159.001L170.833 159.449L175.129 179.872Z" fill="#263238"/>
<path d="M169.988 169.59C170.705 170.331 171.233 171.234 171.528 172.222C172.043 173.846 172.088 175.582 172.306 177.262C172.352 177.825 172.498 178.375 172.738 178.886C173.354 180.068 174.759 180.286 176.159 180.107C176.717 179.986 177.24 179.739 177.688 179.385C178.335 178.875 178.829 178.197 179.116 177.425C179.596 175.864 179.67 174.206 179.329 172.609C178.819 169.574 175.767 167.569 175.806 164.578C175.846 161.588 174.093 157.718 170.33 159.701C168.46 160.743 166.76 162.065 165.29 163.621C166.186 164.965 167.104 166.303 167.983 167.658C168.154 168.002 168.37 168.32 168.627 168.605C169.014 168.946 169.518 169.131 169.904 169.501L169.988 169.59Z" fill="#37474F"/>
<path d="M179.328 172.659C179.254 172.241 179.136 171.832 178.976 171.438C177.79 171.023 176.497 171.035 175.319 171.472C174.555 171.71 173.858 172.124 173.284 172.682C172.71 173.239 172.275 173.924 172.015 174.681C171.936 175.588 171.936 176.501 172.015 177.408C172.072 177.993 172.264 178.556 172.575 179.054C173.398 180.247 174.725 180.337 176.125 180.174C176.683 180.052 177.206 179.805 177.654 179.452C178.3 178.941 178.794 178.263 179.082 177.492C179.577 175.929 179.661 174.265 179.328 172.659Z" fill="#FAFAFA"/>
<path d="M166.141 161.784L168.509 161.683C169.122 161.957 169.66 162.373 170.081 162.895C170.502 163.418 170.792 164.033 170.929 164.69C171.038 165.366 171.005 166.056 170.834 166.718C170.662 167.381 170.355 168 169.932 168.537L166.012 169.053L166.129 161.941" fill="#B16668"/>
<path d="M166.32 161.482L149.962 161.644C149.962 161.644 152.93 139.698 151.95 126.851L125.697 123.833L125.619 123.995C121.313 135.458 116.765 150.41 114.29 161.678C113.529 165.15 113.921 166.096 116.62 171.198C120.411 178.354 126.862 187.93 131.482 195.199C135.133 194.874 137.082 193.766 137.922 190.747C135.055 184.066 132.63 169.652 126.162 163.537C129.774 157.097 133.162 149.699 136.612 142.593C136.718 147.118 137.172 161.952 138.745 168.062C139.72 171.898 141.848 174.188 146.093 173.51C152.006 172.564 167.63 169.064 167.63 169.064C170.766 168.616 169.982 162.753 166.32 161.482Z" fill="#022C22"/>
<path opacity="0.2" d="M166.32 161.482L149.962 161.644C149.962 161.644 152.93 139.698 151.95 126.851L125.697 123.833L125.619 123.995C121.313 135.458 116.765 150.41 114.29 161.678C113.529 165.15 113.921 166.096 116.62 171.198C120.411 178.354 126.862 187.93 131.482 195.199C135.133 194.874 137.082 193.766 137.922 190.747C135.055 184.066 132.63 169.652 126.162 163.537C129.774 157.097 133.162 149.699 136.612 142.593C136.718 147.118 137.172 161.952 138.745 168.062C139.72 171.898 141.848 174.188 146.093 173.51C152.006 172.564 167.63 169.064 167.63 169.064C170.766 168.616 169.982 162.753 166.32 161.482Z" fill="black"/>
<path opacity="0.2" d="M149.979 161.644C149.979 161.644 150.203 164.606 148.938 166.818C149.834 165.978 150.529 164.946 150.97 163.8C151.642 161.974 156.884 162.406 160.804 161.56L149.979 161.644Z" fill="black"/>
<path opacity="0.2" d="M136.606 142.604L136.348 138.471C134.11 137.189 132.121 135.511 130.48 133.521C131.746 135.536 133.323 137.339 135.15 138.863L135.542 141.786L129.83 156.649L136.606 142.604Z" fill="black"/>
<path opacity="0.2" d="M126.168 163.52C125.815 164.034 125.368 164.477 124.852 164.825C126.38 165.663 127.728 166.795 128.816 168.157C129.999 169.765 131.077 171.449 132.042 173.197C130.48 169.378 128.626 165.861 126.168 163.52Z" fill="black"/>
<path d="M116.278 80.0184C117.084 82.096 127.041 96.8184 129.432 100.341C136.231 97.44 131.706 89.4488 131.706 89.4488C131.706 89.4488 124.56 77.8848 123.401 75.936C123.128 75.439 122.957 74.8927 122.897 74.3288C122.752 73.2984 122.248 60.6536 122.864 56.8344C122.979 56.1562 123.34 55.5443 123.877 55.1152C125.305 53.956 125.804 52.8752 126.817 51.52C127.607 50.4504 128.357 50.1144 128.195 49.84C127.978 49.5273 127.65 49.3085 127.278 49.2275C126.906 49.1464 126.518 49.2092 126.19 49.4032C125.451 49.8072 124.763 50.2978 124.14 50.8648C124.501 49.3973 125.097 47.9978 125.904 46.7208C127.741 43.7864 127.635 42.1456 123.25 42.6552C120.5 42.9744 117.824 45.1024 116.53 51.4136C116.155 53.228 116.071 55.9664 115.931 58.3184C115.628 63.6608 115.427 72.1168 115.528 75.8184C115.561 77.6776 115.477 77.9464 116.278 80.0184Z" fill="#B16668"/>
<path d="M136.013 87.92C133.655 87.5728 125.933 79.1224 125.933 79.1224C123.777 78.9992 118.49 84.5264 119.538 86.7776C122.679 92.008 126.672 96.8576 127.758 100.218C128.66 102.11 131.074 100.503 132.115 96.5216C133.577 91.0168 137.928 88.2224 136.013 87.92Z" fill="#022C22"/>
<path opacity="0.3" d="M136.013 87.92C133.655 87.5728 125.933 79.1224 125.933 79.1224C123.777 78.9992 118.49 84.5264 119.538 86.7776C122.679 92.008 126.672 96.8576 127.758 100.218C128.66 102.11 131.074 100.503 132.115 96.5216C133.577 91.0168 137.928 88.2224 136.013 87.92Z" fill="black"/>
<path d="M153.49 97.9049L152.93 107.94L152.32 129.282C144.575 132.905 133.14 130.721 125.361 124.454C125.361 124.454 125.804 99.8929 127.405 94.2145C129.007 88.5361 131.885 87.4105 135.889 87.5337C140.117 87.6681 145.549 88.2617 145.549 88.2617L150.175 89.4937C150.175 89.4937 153.585 95.8945 153.49 97.9049Z" fill="#455A64"/>
<path d="M156.766 81.3792C157.293 81.1104 159.717 82.32 161.196 84.4088C162.674 86.4976 162.775 89.4488 162.316 90.0088C161.857 90.5688 155.904 87.92 155.904 87.92L156.766 81.3792Z" fill="#022C22"/>
<path opacity="0.6" d="M156.766 81.3792C157.293 81.1104 159.717 82.32 161.196 84.4088C162.674 86.4976 162.775 89.4488 162.316 90.0088C161.857 90.5688 155.904 87.92 155.904 87.92L156.766 81.3792Z" fill="black"/>
<path d="M166.532 82.9528C165.541 84.9464 154.24 98.6608 151.524 101.948C145.034 98.42 150.292 90.8936 150.292 90.8936C150.292 90.8936 158.48 80.08 159.824 78.2208C160.143 77.7519 160.368 77.2249 160.484 76.6696C160.72 75.6504 162.416 63.112 162.164 59.2536C162.113 58.5692 161.812 57.9275 161.319 57.4504C160.008 56.1568 159.611 55.0424 158.732 53.5864C158.043 52.4664 157.332 52.0464 157.516 51.772C157.763 51.4819 158.11 51.2954 158.487 51.2497C158.865 51.2041 159.246 51.3026 159.555 51.5256C160.254 51.9975 160.893 52.5522 161.459 53.1776C161.235 51.6814 160.772 50.231 160.087 48.8824C158.536 45.7912 158.799 44.1616 163.116 45.08C165.821 45.64 168.291 48.0368 169.002 54.4376C169.204 56.28 169.03 59.0128 168.946 61.3648C168.744 66.7184 168.151 75.152 167.703 78.8312C167.468 80.6904 167.529 80.9648 166.532 82.9528Z" fill="#B16668"/>
<path d="M148.629 89.1911L156.766 81.3511C156.766 81.3511 156.033 88.0711 162.305 89.9919L152.958 101.813C151.877 103.617 148.915 101.253 148.254 97.2103C147.33 91.5767 148.629 89.1911 148.629 89.1911Z" fill="#022C22"/>
<path opacity="0.3" d="M148.629 89.1911L156.766 81.3511C156.766 81.3511 156.033 88.0711 162.305 89.9919L152.958 101.813C151.877 103.617 148.915 101.253 148.254 97.2103C147.33 91.5767 148.629 89.1911 148.629 89.1911Z" fill="black"/>
<path d="M144.306 70.2855C144.24 71.7164 143.751 73.0956 142.902 74.2486C142.052 75.4017 140.879 76.2768 139.532 76.7632C138.185 77.2496 136.723 77.3256 135.333 76.9813C133.942 76.6371 132.685 75.8883 131.721 74.8295C130.756 73.7707 130.127 72.4496 129.913 71.0333C129.699 69.6169 129.91 68.169 130.52 66.8727C131.129 65.5763 132.109 64.4898 133.336 63.7506C134.563 63.0114 135.982 62.6527 137.412 62.7199C139.329 62.8113 141.131 63.6592 142.423 65.0775C143.716 66.4958 144.393 68.3687 144.306 70.2855Z" fill="#263238"/>
<path d="M149.335 75.6785C149.335 75.6785 147.902 81.1273 147.392 82.0121C147.055 82.5651 146.517 82.9664 145.891 83.1321L146.16 79.2569L149.335 75.6785Z" fill="#263238"/>
<path d="M148.238 67.7152C148.649 67.6867 149.062 67.7526 149.444 67.9079C149.827 68.0632 150.169 68.3037 150.444 68.6112C151.362 69.6472 150.679 72.7104 149.324 75.6784L147.084 75.824L148.238 67.7152Z" fill="#263238"/>
<path d="M146.451 75.7959C146.882 76.0815 147.571 75.2639 148.131 74.7151C148.691 74.1663 150.528 73.4719 151.329 75.3871C152.129 77.3023 150.332 79.7831 148.909 80.1583C146.451 80.8023 146.165 79.2343 146.165 79.2343L145.561 88.1943C142.374 91.9071 134.041 91.1847 137.721 87.3207L137.849 84.6663C136.764 84.7823 135.67 84.7823 134.585 84.6663C132.815 84.3079 131.785 82.8463 131.314 80.8975C130.592 77.7671 130.385 75.2527 131.404 69.2047C132.524 62.5743 140.285 62.8711 144.345 65.7047C148.405 68.5383 146.451 75.7959 146.451 75.7959Z" fill="#B16668"/>
<path d="M146.417 76.5408C146.641 76.5408 147.537 75.1912 148.125 74.7152C148.926 74.0544 148.237 67.7152 148.237 67.7152C148.526 67.1735 148.644 66.5577 148.578 65.9476C148.513 65.3375 148.265 64.7613 147.868 64.2936C146.877 63.0952 145.482 61.6168 140.711 61.9528C137.306 62.1936 133.571 63.0728 130.665 61.4768C130.34 62.4336 130.311 63.4658 130.581 64.4394C130.85 65.413 131.406 66.2831 132.177 66.9368C132.177 66.9368 133.218 67.6872 136.035 68.1632C138.636 68.4787 141.26 68.5537 143.875 68.3872C144.698 68.3088 144.838 69.1152 145.18 71.3104C145.499 73.2424 145.667 76.4904 146.417 76.5408Z" fill="#263238"/>
<path d="M148.209 68.2079L150.953 66.8919C150.876 66.7077 150.763 66.5411 150.62 66.4021C150.476 66.2632 150.306 66.1548 150.12 66.0835C149.933 66.0123 149.734 65.9797 149.535 65.9878C149.335 65.9958 149.14 66.0443 148.96 66.1303C148.59 66.3119 148.305 66.63 148.165 67.0175C148.025 67.4051 148.041 67.8318 148.209 68.2079Z" fill="#263238"/>
<path d="M137.832 84.6945C137.832 84.6945 141.842 84.0841 143.264 83.4121C144.1 83.0232 144.8 82.3932 145.275 81.6033C145.027 82.4065 144.62 83.1514 144.076 83.7929C143.001 85.0417 137.788 85.7529 137.788 85.7529L137.832 84.6945Z" fill="#9A4A4D"/>
<path d="M139.272 74.4799C139.269 74.6372 139.314 74.7917 139.399 74.9241C139.484 75.0564 139.607 75.1606 139.751 75.2238C139.895 75.287 140.055 75.3063 140.21 75.2793C140.365 75.2523 140.508 75.1802 140.623 75.072C140.737 74.9638 140.817 74.8243 140.852 74.671C140.888 74.5177 140.877 74.3573 140.822 74.2098C140.767 74.0624 140.67 73.9345 140.542 73.8421C140.415 73.7497 140.263 73.6969 140.106 73.6903C139.999 73.6873 139.893 73.7053 139.793 73.7434C139.694 73.7815 139.603 73.8388 139.525 73.9122C139.448 73.9855 139.385 74.0734 139.342 74.1708C139.298 74.2682 139.274 74.3732 139.272 74.4799Z" fill="#263238"/>
<path d="M140.257 71.5008L141.937 72.52C142.07 72.292 142.11 72.0216 142.048 71.7649C141.987 71.5083 141.829 71.2853 141.607 71.1424C141.496 71.0724 141.372 71.026 141.242 71.0061C141.113 70.9862 140.981 70.9934 140.854 71.027C140.727 71.0607 140.609 71.1201 140.506 71.2016C140.403 71.2832 140.319 71.385 140.257 71.5008Z" fill="#263238"/>
<path d="M138.421 79.9343L136.573 80.5279C136.605 80.6509 136.662 80.7662 136.739 80.8669C136.817 80.9676 136.914 81.0518 137.025 81.1145C137.135 81.1771 137.257 81.2169 137.384 81.2316C137.51 81.2463 137.638 81.2355 137.76 81.1999C138.015 81.1188 138.227 80.9403 138.351 80.7032C138.475 80.4661 138.5 80.1898 138.421 79.9343Z" fill="#9A4A4D"/>
<path d="M132.289 71.7865L133.896 70.6665C133.828 70.5579 133.74 70.4642 133.635 70.3911C133.53 70.318 133.411 70.267 133.286 70.2413C133.161 70.2157 133.031 70.2158 132.906 70.2417C132.781 70.2676 132.662 70.3188 132.558 70.3921C132.344 70.5465 132.197 70.7768 132.147 71.036C132.097 71.2951 132.148 71.5635 132.289 71.7865Z" fill="#263238"/>
<path d="M132.664 73.92C132.651 74.0293 132.661 74.14 132.694 74.2453C132.726 74.3505 132.779 74.448 132.851 74.5317C132.922 74.6153 133.01 74.6833 133.109 74.7315C133.208 74.7796 133.316 74.8069 133.426 74.8115C133.536 74.8161 133.645 74.798 133.748 74.7584C133.851 74.7187 133.944 74.6583 134.022 74.581C134.101 74.5036 134.162 74.411 134.203 74.3088C134.244 74.2067 134.263 74.0972 134.26 73.9872C134.272 73.8779 134.262 73.7671 134.23 73.6619C134.198 73.5567 134.145 73.4592 134.073 73.3755C134.002 73.2919 133.914 73.2238 133.815 73.1757C133.716 73.1275 133.608 73.1003 133.498 73.0957C133.388 73.0911 133.278 73.1091 133.176 73.1488C133.073 73.1884 132.98 73.2488 132.901 73.3262C132.823 73.4035 132.762 73.4962 132.721 73.5983C132.68 73.7005 132.661 73.81 132.664 73.92Z" fill="#263238"/>
<path d="M136.758 73.3599L136.27 78.1367L133.812 77.1623L136.758 73.3599Z" fill="#9A4A4D"/>
<path d="M84.4144 209.966L84.6384 209.188C84.6776 210.19 84.9576 214.53 86.5368 217.129C87.7968 219.19 89.6112 221.682 89.6952 223.597C89.7792 225.512 85.736 225.07 84.2128 224.319C82.4488 223.446 80.3488 221.687 79.5088 219.694C78.9152 218.294 78.7248 216.782 78.3216 215.701C77.9184 214.62 76.6976 213.181 76.6416 212.044C76.6136 211.422 77.2016 210.252 77.7616 209.283C78.3216 208.314 79.0216 207.374 79.324 207.558C79.2904 207.676 79.0048 208.197 79.0048 208.197C79.268 208.757 80.2368 209.501 81.452 209.905C82.264 210.168 84.2408 210.56 84.4144 209.966Z" fill="#263238"/>
<path d="M48.2385 195.076L48.7985 194.902C48.2385 195.731 46.0657 199.713 45.8025 202.742C45.5897 205.15 45.5729 208.23 44.5033 209.821C43.4337 211.411 40.4377 208.656 39.6649 207.15C38.7577 205.402 38.1137 202.737 38.6177 200.637C38.9761 199.158 39.7377 197.837 40.0345 196.717C40.3313 195.597 40.2249 193.726 40.8521 192.797C41.1993 192.276 42.3697 191.677 43.4113 191.251C44.3689 190.854 45.5617 190.462 45.6961 190.792C45.6009 190.865 45.0577 191.111 45.0577 191.111C44.9457 191.716 45.2761 192.898 46.0153 193.945C46.5935 194.58 47.3842 194.983 48.2385 195.076Z" fill="#263238"/>
<path d="M97.9998 175.901C98.5598 174.182 99.9654 170.531 99.6798 168.745C98.4534 160.395 95.7318 150.869 94.819 147.862C93.5926 143.83 92.159 137.883 90.6134 131.062C90.6526 129.164 90.6694 127.473 90.6694 127.473L72.7494 129.018C70.683 134.058 67.4014 142.721 68.6446 153.658C69.2194 158.762 69.5074 163.894 69.507 169.03C67.827 170.072 65.9622 171.27 64.467 172.306C60.4686 175.106 46.4574 189.896 46.4574 189.896L45.0126 191.049L44.9006 191.133V191.167C44.1278 192.097 43.2206 196.061 42.487 198.447C41.9998 200.065 41.759 202.619 42.8846 204.607C43.9486 206.472 45.1246 206.931 45.5838 204.853C45.6454 204.109 45.6902 203.375 45.7518 202.692C45.9366 200.575 47.1406 198.15 48.0422 196.599C48.7758 195.339 49.263 194.281 50.6406 193.39C50.6406 193.39 67.3902 182.459 75.443 177.318C76.7704 176.492 77.9156 175.404 78.809 174.12C79.7024 172.837 80.3253 171.385 80.6398 169.853C81.1998 166.953 83.1878 159.813 83.8654 156.217L87.7854 171.153C86.895 172.597 85.2374 177.733 84.2574 184.033C82.947 192.433 79.8502 205.273 79.8502 205.273L79.0606 208.208L79.0214 208.342C78.9542 209.546 80.5726 213.281 81.4182 215.65C81.9782 217.241 83.2998 219.441 85.3718 220.36C87.3374 221.228 88.5694 220.886 87.6958 218.949C87.3221 218.309 86.9909 217.644 86.7046 216.961C85.8066 215.017 85.1954 212.953 84.8902 210.834C84.7188 209.417 84.9115 207.979 85.4502 206.657C85.4502 206.657 95.0262 185.097 97.9998 175.901Z" fill="#FFA8A7"/>
<path d="M71.747 131.684C71.747 131.684 68.247 136.953 67.5414 141.4C66.3318 148.971 67.9838 161.061 67.9838 161.061C67.9838 161.061 70.3134 159.706 70.6438 157.141C70.6438 157.141 71.607 159.454 73.371 160.619C75.583 162.092 78.971 162.926 83.255 161.633L83.8542 156.212L84.6998 160.776C87.4769 161.037 90.2771 160.67 92.8926 159.701C97.0758 158.099 98.0054 153.473 98.0054 153.473L90.759 131.678C90.759 131.678 91.1678 135.301 82.5326 135.637C73.8974 135.973 71.747 131.684 71.747 131.684Z" fill="#455A64"/>
<path d="M103.107 95.8327C98.9186 105.689 93.1226 109.183 90.485 115.511C87.0298 115.276 82.2305 109.586 84.8009 106.025C87.7353 104.787 97.2386 94.4495 97.7874 90.0927C98.2746 86.2231 100.358 80.1975 100.263 76.9775C100.233 76.4425 100.012 75.9359 99.641 75.5495C98.5826 74.4295 98.577 73.4887 97.8994 72.2287C97.3674 71.2487 96.7794 70.8791 96.953 70.6607C97.1702 70.426 97.4683 70.2822 97.7872 70.2583C98.1062 70.2344 98.4223 70.3322 98.6722 70.5319C99.1631 70.8876 99.6023 71.3097 99.977 71.7863C99.7956 70.5844 99.4469 69.4139 98.941 68.3087C97.765 65.6543 98.0506 64.3047 101.635 65.2455C103.875 65.8391 105.286 67.7095 105.622 73.0855C105.776 75.3225 105.789 77.5669 105.661 79.8055C105.269 83.9551 104.843 87.9255 104.334 91.3639C104.119 92.9001 103.707 94.4021 103.107 95.8327Z" fill="#FFA8A7"/>
<path d="M72.3687 129.836L72.0495 125.826L68.9583 119.353C68.5029 116.975 68.3935 114.544 68.6335 112.134C68.7343 109.799 68.6335 108.214 70.8735 107.694C71.7359 107.498 74.1775 107.061 77.7503 106.574L84.2911 106.014C86.6823 105.89 89.2751 108.965 91.9855 114.414C93.3407 117.135 94.4047 120.837 90.8095 124.281C90.8095 124.992 90.8991 127.394 90.8095 128.834C87.9753 130.276 84.8708 131.111 81.6951 131.284C78.5194 131.456 75.3427 130.963 72.3687 129.836Z" fill="#022C22"/>
<path d="M89.5216 88.7375V88.5359C88.9336 82.2583 85.3328 81.0935 78.7528 81.7655C73.892 82.2639 69.4848 84.5655 68.0176 88.8495C67.4754 90.46 67.3115 92.1737 67.5388 93.8577C67.7661 95.5417 68.3783 97.1508 69.328 98.5599C71.3384 101.539 74.7376 103.202 79.5424 102.754C85.8032 103.488 90.1096 95.0095 89.5216 88.7375Z" fill="#263238"/>
<path d="M48.1601 95.76C47.0345 94.8971 46.1288 93.7803 45.5169 92.5008C44.5313 90.4456 44.0777 87.2984 46.3737 85.8928C46.6343 85.7255 46.9289 85.6184 47.2361 85.5792C48.2553 85.4784 49.0729 86.3352 49.8681 86.9736C50.6396 87.5758 51.5229 88.0189 52.4668 88.2775C53.4108 88.5361 54.3966 88.6049 55.3673 88.48C57.4729 88.2112 59.3545 87.0408 61.0065 85.7136C61.514 85.267 62.079 84.8903 62.6865 84.5936C63.1885 84.3865 63.723 84.269 64.2657 84.2464C66.0676 84.1575 67.8459 84.687 69.3057 85.7472C69.5812 85.9055 69.8223 86.1174 70.0147 86.3703C70.207 86.6233 70.3468 86.9122 70.4257 87.22C70.4582 87.4372 70.4262 87.6592 70.3336 87.8583C70.241 88.0575 70.0919 88.225 69.9049 88.34C69.4793 88.5808 68.9249 88.34 68.4769 88.2896C67.353 88.1309 66.2091 88.3727 65.2457 88.9728C64.3273 89.6 63.7505 90.608 63.1345 91.532C61.1857 94.4496 58.3073 96.9808 54.8409 97.4848C53.6686 97.6531 52.4745 97.5874 51.3278 97.2913C50.1811 96.9953 49.1044 96.4748 48.1601 95.76Z" fill="#263238"/>
<path d="M85.2039 85.7583C86.4919 86.3631 88.2839 89.2863 88.7375 95.7319C89.1183 101.192 87.4831 102.704 86.6319 103.174C85.7807 103.645 84.0447 103.566 82.3591 103.449L82.6615 106.719C82.6615 106.719 87.7015 111.311 83.9495 112.151C82.0679 112.577 79.5479 111.591 77.7895 110.471C76.6639 109.668 75.8132 108.538 75.3535 107.234L74.7263 100.117C74.7263 100.117 73.8359 101.158 72.0439 99.8647C70.5599 98.7951 69.9103 96.8183 70.8791 95.6311C71.1319 95.3485 71.4482 95.1299 71.802 94.9933C72.1558 94.8567 72.5369 94.806 72.9141 94.8453C73.2913 94.8847 73.6537 95.013 73.9717 95.2197C74.2897 95.4264 74.554 95.7056 74.7431 96.0343C74.7431 96.0343 75.7287 96.0343 76.5351 94.1191C78.1845 94.147 79.7962 93.6249 81.1159 92.6351C82.2256 91.8236 83.1599 90.7961 83.8624 89.6143C84.5649 88.4326 85.0212 87.1209 85.2039 85.7583Z" fill="#FFA8A7"/>
<path d="M81.5359 94.6735C81.567 94.8545 81.5257 95.0404 81.4209 95.1913C81.3162 95.3421 81.1563 95.4458 80.9759 95.4799C80.7914 95.5006 80.6061 95.4483 80.4596 95.3343C80.3131 95.2202 80.217 95.0534 80.1919 94.8695C80.1726 94.7773 80.1724 94.6822 80.1913 94.59C80.2102 94.4978 80.2478 94.4105 80.3017 94.3334C80.3557 94.2562 80.4249 94.191 80.5051 94.1417C80.5853 94.0924 80.6747 94.06 80.7678 94.0466C80.861 94.0332 80.9559 94.039 81.0468 94.0637C81.1376 94.0884 81.2224 94.1314 81.2959 94.1902C81.3695 94.2489 81.4302 94.3221 81.4744 94.4052C81.5185 94.4883 81.5452 94.5796 81.5527 94.6735H81.5359Z" fill="#263238"/>
<g style="mix-blend-mode:multiply" opacity="0.5">
<path d="M82.8129 99.1536L85.0137 99.6408C84.9868 99.7864 84.9314 99.9252 84.8505 100.049C84.7696 100.173 84.665 100.28 84.5426 100.363C84.4202 100.447 84.2825 100.505 84.1375 100.535C83.9925 100.564 83.843 100.565 83.6977 100.537C83.3997 100.466 83.1408 100.282 82.9758 100.024C82.8107 99.7659 82.7523 99.4538 82.8129 99.1536Z" fill="#F28F8F"/>
</g>
<path d="M87.5336 91.9632L86.0552 91.1344C86.1047 91.037 86.1734 90.9504 86.2569 90.88C86.3405 90.8095 86.4374 90.7565 86.5418 90.7242C86.6462 90.6918 86.7561 90.6807 86.8649 90.6915C86.9737 90.7023 87.0792 90.7349 87.1752 90.7872C87.3757 90.8985 87.5251 91.0834 87.592 91.3028C87.6588 91.5222 87.6379 91.759 87.5336 91.9632Z" fill="#263238"/>
<path d="M80.36 92.3552L78.8368 93.1112C78.7847 93.0149 78.7524 92.9091 78.742 92.8C78.7316 92.691 78.7432 92.581 78.7761 92.4765C78.809 92.3721 78.8625 92.2753 78.9336 92.1919C79.0046 92.1085 79.0917 92.0403 79.1896 91.9912C79.3944 91.8919 79.6294 91.8742 79.8468 91.9418C80.0641 92.0094 80.2476 92.1572 80.36 92.3552Z" fill="#263238"/>
<path d="M87.3602 93.9792C87.3742 94.1135 87.3484 94.249 87.286 94.3688C87.2236 94.4885 87.1273 94.5873 87.0092 94.6528C86.8912 94.7183 86.7564 94.7477 86.6218 94.7372C86.4871 94.7267 86.3585 94.6769 86.252 94.594C86.1454 94.511 86.0656 94.3986 86.0224 94.2706C85.9793 94.1426 85.9747 94.0048 86.0093 93.8742C86.0438 93.7437 86.116 93.6262 86.2168 93.5363C86.3176 93.4465 86.4426 93.3882 86.5762 93.3688C86.761 93.3466 86.947 93.3983 87.0939 93.5126C87.2407 93.6269 87.3365 93.7947 87.3602 93.9792Z" fill="#263238"/>
<g style="mix-blend-mode:multiply" opacity="0.5">
<path d="M84.0171 93.895L84.5099 98.011L86.6211 97.1374L84.0171 93.895Z" fill="#F28F8F"/>
</g>
<g style="mix-blend-mode:multiply" opacity="0.5">
<path d="M82.3592 103.449C80.584 103.382 76.8824 102.682 76.1992 101.31C76.4944 102.003 76.9947 102.589 77.6328 102.99C78.7976 103.807 82.4712 104.513 82.4712 104.513L82.3592 103.449Z" fill="#F28F8F"/>
</g>
<path d="M69.3672 85.9878L70.1736 83.0422C70.3699 83.0854 70.5554 83.1678 70.7191 83.2846C70.8827 83.4013 71.021 83.55 71.1256 83.7216C71.2302 83.8932 71.2991 84.0842 71.3279 84.2831C71.3568 84.4821 71.3451 84.6848 71.2936 84.879C71.1772 85.2764 70.9119 85.6136 70.553 85.8201C70.1941 86.0267 69.7693 86.0868 69.3672 85.9878Z" fill="#263238"/>
<path d="M69.1097 86.2398L67.4297 83.6975C67.5911 83.5789 67.7748 83.4942 67.9697 83.4485C68.1647 83.4029 68.3669 83.3971 68.5642 83.4317C68.7614 83.4662 68.9496 83.5403 69.1175 83.6495C69.2854 83.7587 69.4294 83.9007 69.5409 84.067C69.7614 84.4154 69.8397 84.8352 69.7594 85.2396C69.6791 85.644 69.4465 86.0021 69.1097 86.2398Z" fill="#263238"/>
<path d="M74.7603 96.0287L75.0291 98.8959C75.2853 98.872 75.5344 98.7979 75.7621 98.6777C75.9897 98.5576 76.1914 98.3938 76.3558 98.1956C76.5201 97.9975 76.6438 97.769 76.7198 97.523C76.7958 97.2771 76.8226 97.0186 76.7987 96.7623L76.5523 94.1135L74.7603 96.0287Z" fill="#263238"/>
<path d="M56.2966 97.1824C60.4854 107.044 65.5982 113.053 68.9582 119.353C74.5582 119.616 74.9726 110.953 72.4022 107.391C72.4022 107.391 62.5294 95.7432 61.6166 91.448C60.8046 87.6288 59.0462 81.5472 59.1414 78.3272C59.1666 77.7911 59.3878 77.283 59.763 76.8992C60.8214 75.7792 60.8214 74.844 61.5046 73.584C62.031 72.5984 62.6246 72.2344 62.451 72.0104C62.2307 71.7784 61.9317 71.6372 61.6125 71.6144C61.2934 71.5916 60.9773 71.6889 60.7262 71.8872C60.2371 72.2409 59.7998 72.6613 59.427 73.136C59.6053 71.9342 59.9522 70.7634 60.4574 69.6584C61.6334 67.0096 61.3478 65.6544 57.7694 66.6008C55.5294 67.1608 54.1182 69.0592 53.7822 74.4408C53.6293 76.6911 53.6218 78.9488 53.7598 81.2C54.1462 85.3496 54.5718 89.3256 55.0814 92.7584C55.2978 94.2786 55.7061 95.7651 56.2966 97.1824Z" fill="#FFA8A7"/>
<path d="M84.7001 160.625L83.8545 156.447L84.7225 148.484C86.5579 147.711 88.2858 146.704 89.8633 145.488C88.8906 146.874 87.7035 148.097 86.3465 149.111L84.4145 155.96L84.7001 160.625Z" fill="#37474F"/>
<path opacity="0.1" d="M75.7847 122.466C76.3149 123.459 77.1207 124.279 78.1051 124.825C79.0896 125.371 80.2109 125.622 81.3343 125.546C82.4193 125.508 83.475 125.184 84.3945 124.607C85.314 124.03 86.0646 123.22 86.5703 122.259C86.5703 122.259 86.4135 126.56 81.3343 126.571C76.2551 126.582 75.7847 122.466 75.7847 122.466Z" fill="black"/>
</svg>
