<svg width="230" height="90" viewBox="0 0 230 90" fill="none" xmlns="http://www.w3.org/2000/svg">
<g clip-path="url(#clip0_4066_2063)">
<g filter="url(#filter0_d_4066_2063)">
<path d="M163.573 22.9802C164.105 23.2101 164.763 23.3111 165.148 23.6906C167.89 26.389 169.152 29.8602 169.891 33.5168C170.938 38.6987 170.882 43.9479 169.269 48.96C167.486 54.4983 163.922 58.563 158.043 60.1834C153.931 61.3166 149.741 61.4227 145.535 61.2894C144.139 61.2452 143.774 61.7392 143.781 63.082C143.802 67.0586 143.665 71.0358 143.638 75.0131C143.629 76.3818 143.689 77.7603 143.851 79.1182C143.998 80.3451 144.494 81.3272 145.926 81.6458C147.471 81.9895 147.757 82.7127 147.496 84.7318C147.325 86.0513 146.339 86.0671 145.376 86.069C139.796 86.08 134.216 86.0705 128.636 86.0784C127.708 86.0797 126.824 85.9444 126.825 84.7942C126.826 83.7152 126.249 82.3677 128.01 81.9043C129.889 81.4098 130.179 80.9226 130.181 78.8429C130.189 69.8828 130.153 60.9225 130.202 51.9626C130.249 43.247 130.37 34.5317 130.485 25.8166C130.508 24.0943 130.1 22.8286 128.236 22.2077C126.773 21.7205 127.358 20.2638 127.451 19.2237C127.481 18.8874 128.392 18.3787 128.903 18.3751C136.422 18.3233 143.944 18.2267 151.459 18.3939C155.456 18.4828 159.273 19.6378 162.736 21.7379C163.096 21.9564 163.308 22.4218 163.488 22.8401C159.568 20.1663 155.178 19.3819 150.51 19.1321C146.888 19.0959 143.377 19.0953 139.764 19.0632C139.522 19.0473 139.382 19.063 139.129 19.0438C138.545 19.03 138.073 19.0511 137.499 19.0464C137.257 19.0355 137.117 19.0504 136.872 19.0321C136.475 19.0176 136.183 19.0364 135.763 19.0305C134.857 19.0172 134.078 19.0284 133.234 19.0163C133.169 18.993 133.036 19.0332 132.939 19.0098C132.712 18.999 132.58 19.0117 132.332 18.9964C131.732 18.9833 131.25 18.9983 130.65 18.9925C129.673 18.9716 128.814 18.9716 127.989 18.9716C127.989 19.9325 127.989 20.7592 127.989 21.4807C128.757 21.8269 129.425 22.1278 130.14 22.5165C131.298 23.8391 131.306 25.3612 131.291 26.8872C131.119 44.1363 130.941 61.3855 130.778 78.6347C130.75 81.5934 130.403 82.0864 127.604 82.8455C127.604 83.6892 127.604 84.5218 127.604 85.4058C131.075 85.4058 134.466 85.4058 137.978 85.4322C138.675 85.4388 139.251 85.4192 139.959 85.4187C141.715 85.4186 143.338 85.3992 145.068 85.4043C145.462 85.391 145.749 85.3532 146.152 85.3272C146.457 84.5105 146.645 83.682 146.823 82.8994C145.984 82.5378 145.366 82.2713 144.707 81.9409C144.539 81.7978 144.411 81.7186 144.237 81.5796C144.054 81.3752 143.917 81.2306 143.744 80.9816C143.456 79.8577 143.203 78.8382 142.973 77.6873C142.988 76.0411 142.982 74.5263 143.012 72.8992C143.045 69.6426 143.041 66.4982 143.065 63.2258C143.073 62.4899 143.053 61.882 143.065 61.1829C143.104 60.9632 143.111 60.8346 143.163 60.691C143.208 60.6761 143.25 60.5902 143.381 60.6054C145.653 60.5828 147.795 60.5449 150.01 60.5323C150.238 60.5386 150.393 60.5196 150.594 60.5291C150.742 60.5308 150.844 60.5041 151.072 60.4905C152.517 60.3845 153.848 60.3512 155.148 60.1303C159.352 59.4158 163.173 57.9594 165.831 54.2143C166.598 52.9249 167.427 51.7469 167.952 50.4459C170.15 44.9997 170.164 39.3579 169.193 33.6674C168.482 29.5022 166.904 25.7715 163.573 22.9802Z" fill="#E5B92E"/>
<path d="M124.515 18.8969C125.356 19.876 125.393 21.2758 124.395 21.7754C121.633 23.1573 120.874 25.8009 120.299 28.3962C117.965 38.9225 115.765 49.4788 113.554 60.0322C112.013 67.3918 110.529 74.7637 109.036 82.1335C108.849 83.0577 108.735 83.9999 108.64 84.9391C108.556 85.7707 108.11 86.0771 107.321 86.0749C103.728 86.0651 100.134 86.0551 96.5413 86.0806C95.5001 86.0881 95.1417 85.4386 94.9314 84.6091C94.2806 82.0413 93.6682 79.4635 93.0026 76.8995C91.469 70.9923 89.9173 65.0899 88.3637 59.1879C87.6047 56.3047 86.8276 53.4262 86.0495 50.5481C85.9925 50.3371 85.8603 50.1466 85.6361 49.6856C85.2622 51.2489 84.9521 52.5498 84.6399 53.8502C82.232 63.8811 79.8284 73.9129 77.4021 83.9393C77.2751 84.4641 76.954 84.9417 76.6092 85.4554C76.4951 85.4694 76.4572 85.4312 76.4815 85.3218C78.3462 77.5195 80.1714 69.8229 82.0326 62.135C83.2234 57.216 84.4673 52.3099 85.7256 47.4137C85.7637 47.4294 85.8401 47.3981 85.8702 47.5023C88.2724 56.4973 90.6499 65.3868 93.0141 74.2798C93.9827 77.9228 94.9227 81.5735 95.8886 85.2783C95.9015 85.3358 95.9931 85.4097 95.9931 85.4097C95.9931 85.4097 96.1097 85.3948 96.2225 85.4237C96.6443 85.4337 96.9534 85.4147 97.3722 85.4224C97.7806 85.4311 98.0793 85.413 98.5104 85.4155C101.493 85.4249 104.344 85.4136 107.262 85.4257C107.377 85.4425 107.425 85.436 107.588 85.4429C107.819 85.279 108.009 85.1134 108.039 84.9226C108.296 83.2882 108.44 81.6319 108.774 80.0144C111.493 66.8499 114.222 53.6872 117.001 40.5354C118.018 35.7242 119.069 30.9143 120.325 26.1624C120.916 23.9274 122.043 21.8425 124.466 21.0489C124.466 20.2757 124.466 19.6138 124.479 18.9384C124.491 18.9249 124.515 18.8969 124.515 18.8969Z" fill="#E5B92E"/>
<path d="M83.9045 18.914C84.3385 18.7227 84.768 18.3794 85.2074 18.3662C87.1911 18.3069 89.1781 18.3666 91.163 18.3323C92.4799 18.3095 93.0598 18.9048 93.3517 20.2028C95.7389 30.8164 98.1725 41.4196 100.637 52.0156C101.269 54.735 102.053 57.4192 102.784 60.1151C102.927 60.6409 103.146 61.1457 103.674 61.6575C104.166 59.5229 104.696 57.3962 105.142 55.252C106.076 50.761 106.997 46.2667 107.867 41.7628C108.88 36.5183 109.858 31.2669 110.793 26.008C111.062 24.4965 111.141 23.0081 109.429 22.0609C108.262 21.4148 108.422 20.1097 108.77 19.129C108.922 18.6974 109.986 18.3818 110.642 18.3711C114.754 18.3041 118.867 18.3263 122.98 18.3541C123.462 18.3573 123.943 18.5754 124.47 18.7953C124.515 18.8967 124.491 18.9247 124.349 18.9292C119.274 18.9337 114.342 18.9337 109.377 18.9337C109.237 20.3758 109.026 21.7072 110.812 22.1135C110.822 22.0911 110.775 22.0746 110.808 22.158C110.938 22.3054 111.035 22.3694 111.121 22.4105C111.11 22.3877 111.066 22.4136 111.111 22.5093C111.29 23.4686 111.668 24.3758 111.523 25.1889C110.083 33.2435 108.622 41.2957 107.029 49.3211C106.046 54.2769 104.823 59.1851 103.713 64.1228C103.719 64.1309 103.71 64.1114 103.605 64.1356C103.342 63.9056 103.105 63.6712 103.036 63.3946C100.256 52.2853 97.4649 41.1787 94.7406 30.0557C93.8552 26.441 93.1496 22.782 92.3121 18.914C89.5633 18.914 86.7339 18.914 83.9045 18.914Z" fill="#E5B92E"/>
<path d="M204.853 3.81714C204.935 4.25904 205.143 4.7223 205.073 5.13858C204.909 6.1148 204.609 7.06787 204.374 8.03267C204.355 8.11197 204.409 8.20929 204.465 8.4584C205.376 7.50129 206.223 6.60186 207.08 5.71318C208.915 3.81166 211.104 3.3789 213.58 4.15652C215.465 4.74875 215.948 5.86206 214.911 7.52114C212.003 12.1733 209.042 16.7919 206.114 21.4318C205.444 22.4937 204.548 22.9251 203.272 22.909C198.969 22.8547 194.665 22.8704 190.362 22.9063C189.046 22.9173 187.727 23.0489 186.415 23.1821C185.277 23.2976 184.514 22.7819 183.933 21.8818C180.934 17.2334 177.93 12.5877 174.942 7.93177C174.169 6.72749 174.348 6.10712 175.586 5.40431C178.869 3.53997 183.401 4.86881 185.849 8.42857C186.329 9.12574 186.757 9.85861 187.208 10.575C187.345 10.5517 187.481 10.5284 187.618 10.5051C187.443 8.92495 187.185 7.34829 187.119 5.76361C187.066 4.48493 187.244 3.19656 187.43 1.87611C187.54 1.83972 187.56 1.86083 187.541 1.98895C187.546 2.9209 187.507 3.73286 187.607 4.52712C188.033 7.90132 188.5 11.2703 188.884 14.6367C188.816 14.6323 188.681 14.6251 188.633 14.5377C187.398 12.4167 186.265 10.3483 185.006 8.36043C183.972 6.72695 182.368 5.79445 180.506 5.39747C178.452 4.95939 176.489 5.06754 174.901 6.86933C178.201 11.9271 181.465 16.958 184.785 21.9516C185.001 22.2767 185.649 22.47 186.091 22.4636C192.04 22.3768 197.988 22.2563 203.935 22.0976C204.413 22.0848 205.074 21.8641 205.321 21.5097C206.397 19.9623 207.352 18.3299 208.425 16.666C210.73 13.0764 212.962 9.54907 215.17 6.05886C213.271 4.17884 210.58 3.87898 208.608 5.2759C206.114 7.04222 204.386 9.40901 203.282 12.3352C203.014 12.4538 202.817 12.5252 202.651 12.4982C203.379 9.56717 204.076 6.73453 204.793 3.88081C204.813 3.85973 204.853 3.81714 204.853 3.81714Z" fill="#E5B92E"/>
<path d="M45.041 79.5417C43.9124 80.65 42.9432 82.0254 41.6252 82.8163C37.6834 85.1815 33.2563 86.0032 28.7236 86.0483C20.5457 86.1297 12.3663 86.077 4.18752 86.0694C3.2696 86.0685 2.20858 86.2947 1.90442 84.9755C1.55056 83.4408 1.98858 82.6475 3.29096 81.9629C3.76602 81.7131 4.25455 81.1233 4.36143 80.61C4.6004 79.4625 4.68824 78.2657 4.68973 77.0889C4.71139 59.9319 4.69445 42.7748 4.7355 25.6179C4.73927 24.0444 4.29236 23.0175 2.76341 22.4338C1.6908 22.0243 1.52234 20.5068 2.36509 18.9752C2.49052 18.9574 2.53979 19.0063 2.54976 19.1091C2.70082 20.5305 2.16961 22.2253 4.3964 22.4943C4.72653 23.047 5.14353 23.4861 5.2423 23.9881C5.4373 24.9792 5.45607 26.0052 5.51011 27.1364C5.40079 44.3615 5.31182 61.467 5.27934 78.5725C5.27531 80.6978 5.03413 82.4877 2.55972 82.8119C2.55972 83.7328 2.55972 84.5128 2.55972 85.4552C8.2662 85.4552 13.8834 85.4899 19.4999 85.443C23.2772 85.4115 27.0536 85.2646 30.9468 85.1838C31.3718 85.1569 31.6803 85.1155 32.0674 85.0917C32.2418 85.0658 32.3374 85.0222 32.5458 84.9997C37.3539 84.5126 41.5609 82.9604 44.8529 79.3742C44.9573 79.4674 44.9992 79.5046 45.041 79.5417Z" fill="#E5B92E"/>
<path d="M83.8639 18.9365C86.7343 18.914 89.5633 18.914 92.3121 18.914C93.1496 22.782 93.8552 26.441 94.7406 30.0557C97.4649 41.1787 100.256 52.2853 103.036 63.3946C103.105 63.6712 103.343 63.9056 103.592 64.227C102.589 65.1717 102.644 63.9688 102.526 63.5468C101.236 58.9458 99.9129 54.3509 98.7795 49.7101C96.6359 40.9333 94.6117 32.1272 92.5352 23.334C92.2614 22.1745 92.327 20.4912 91.5973 19.9967C90.7086 19.3944 89.1446 19.7701 87.8724 19.7647C84.6833 19.7512 84.7131 19.7671 84.0414 22.9186C82.6022 29.6708 81.2754 36.4519 79.6296 43.1538C77.9056 50.1743 75.8713 57.1184 73.9355 64.0856C73.8161 64.5152 73.3728 64.8544 73.0927 65.1259C73.8466 62.529 74.6413 60.0564 75.3202 57.5523C78.7712 44.8223 82.1015 32.0642 83.7326 18.9351C83.7326 18.9351 83.823 18.9591 83.8639 18.9365Z" fill="#E5B92E"/>
<path d="M83.6469 19.0019C82.1014 32.0644 78.7712 44.8223 75.3202 57.5523C74.6413 60.0564 73.8465 62.5292 73.1025 65.1285C73.0997 65.2407 73.0833 65.2293 73.0031 65.2406C72.8155 65.2433 72.7081 65.2345 72.599 65.2404C72.5972 65.2549 72.6265 65.2557 72.6065 65.1428C71.21 57.9652 69.8105 50.905 68.464 43.8346C67.3034 37.7401 66.1769 31.6387 65.0919 25.5302C64.7612 23.6682 65.3991 22.6621 67.0984 21.9744C67.1244 21.9995 67.1765 22.0495 67.1765 22.0495C65.0271 23.8346 65.7113 26.1371 66.1237 28.3223C68.009 38.3125 69.9504 48.2919 71.8688 58.2758C72.1509 59.7438 72.4175 61.2149 72.6913 62.6845C72.8114 62.7079 72.9315 62.7313 73.0516 62.7546C73.3105 61.9894 73.6269 61.2383 73.8195 60.4567C76.1733 50.9052 78.5611 41.3615 80.8237 31.7882C81.7361 27.9277 82.358 23.9984 83.1314 20.1043C83.2028 19.7446 83.4147 19.413 83.6469 19.0019Z" fill="#E5B92E"/>
<path d="M222.967 81.6474C222.372 82.3917 221.901 83.3013 221.164 83.8528C217.088 86.9005 212.386 88.5286 207.414 89.1188C202.741 89.6735 198.01 90.0386 193.311 89.9844C187.752 89.9202 182.16 89.4619 176.839 87.6346C170.942 85.6099 165.894 82.3298 163.096 76.5119C161.44 73.0669 160.857 69.3036 161.307 65.4476C161.441 64.296 161.631 63.1509 161.945 61.9979C162.136 62.0353 162.178 62.0775 162.183 62.233C162.061 64.1911 161.898 66.0361 161.905 67.8806C161.929 74.6884 164.733 80.0238 170.418 83.8124C174.439 86.4921 178.904 87.8325 183.648 88.49C192.376 89.6997 201.079 89.8585 209.741 88.0372C214.117 87.1169 218.283 85.6487 221.834 82.6017C222.27 82.2528 222.618 81.9501 222.967 81.6474Z" fill="#E5B92E"/>
<path d="M208.241 25.4903C208.265 26.5526 208.289 27.6149 208.146 28.7629C199.288 28.8309 190.596 28.8133 181.905 28.7957C181.905 28.7957 181.903 28.8192 181.89 28.6937C181.899 27.5534 181.921 26.5384 181.943 25.5235C181.943 25.5235 181.921 25.5213 182.048 25.5075C190.863 25.4926 199.552 25.4915 208.241 25.4903ZM198.745 26.3046C193.882 26.3049 189.018 26.3241 184.156 26.2915C183 26.2837 182.463 26.6444 182.771 27.8714C182.925 27.9192 183.056 27.9955 183.188 27.9956C190.978 28.0056 198.768 28.0202 206.558 27.98C206.926 27.9781 207.29 27.4851 207.656 27.2208C207.283 26.9166 206.917 26.3612 206.534 26.3489C204.034 26.2686 201.531 26.3059 198.745 26.3046Z" fill="#E5B92E"/>
<path d="M162.032 61.9293C163.441 60.8585 164.883 59.8053 166.389 58.8529C171.495 55.6235 173.25 50.6574 173.62 44.9654C173.743 43.078 173.758 41.1821 173.934 39.3006C173.984 38.7605 174.295 38.0884 174.71 37.7647C177.132 35.8753 179.598 34.0413 182.103 32.2646C182.601 31.9116 183.331 31.7398 183.955 31.7368C191.335 31.7012 198.719 31.5992 206.094 31.803C207.705 31.8475 209.432 32.803 210.851 33.7299C214.68 36.2307 217.905 39.4273 220.576 43.1563C221.007 43.7576 221.262 44.4854 221.577 45.2834C221.557 45.4122 221.505 45.4596 221.43 45.3995C217.915 40.1171 213.67 35.7561 208.035 32.9014C207.504 32.6327 206.889 32.3784 206.313 32.3769C198.749 32.3571 191.185 32.3805 183.621 32.4108C183.267 32.4122 182.849 32.4886 182.569 32.6855C180.679 34.0152 178.819 35.3868 176.859 36.7813C174.952 37.8246 174.054 39.2535 174.46 41.4246C174.614 42.2443 174.499 43.1258 174.434 43.9734C174.03 49.2106 173.006 54.1993 168.677 57.8714C168.518 57.936 168.459 58.0067 168.344 58.138C166.242 59.4871 164.231 60.8034 162.22 62.1197C162.178 62.0775 162.136 62.0352 162.032 61.9293Z" fill="#E5B92E"/>
<path d="M64.882 85.5181C64.4235 84.8072 63.7245 84.1514 63.5479 83.3759C62.7815 80.0098 62.1657 76.6091 61.4983 73.2203C60.0633 65.9334 58.6825 58.6352 57.1815 51.3619C55.7481 44.4167 54.258 37.4814 52.6474 30.5759C52.1469 28.4298 51.221 26.3748 50.387 24.3201C50.0945 23.5993 49.5704 22.9282 49.0172 22.3682C48.0325 21.3713 47.8335 20.3661 48.6455 18.9622C48.7582 18.9377 48.7768 18.973 48.7715 19.0945C48.663 20.521 49.2839 21.4406 49.9581 22.5586C51.3553 24.8756 52.52 27.4433 53.2032 30.0594C54.4815 34.9545 55.3725 39.9525 56.3826 44.9163C58.6774 56.1925 60.929 67.4775 63.2415 78.75C63.7048 81.0084 64.3607 83.2271 64.9162 85.4774C64.9045 85.4907 64.882 85.5181 64.882 85.5181Z" fill="#E5B92E"/>
<path d="M40.7775 23.4476C41.2549 23.7118 41.8722 23.863 42.1889 24.257C47.0664 30.3256 47.606 37.0693 45.0108 44.178C43.9611 47.0531 41.5331 48.8363 39.158 50.5852C38.8995 50.7755 38.6322 50.9539 38.104 51.323C39.5488 51.892 40.7989 52.3317 41.9996 52.8803C42.573 53.1423 43.0524 53.6109 43.5702 54.1144C43.5661 54.2428 43.5108 54.3074 43.4163 54.2734C41.197 53.4591 39.0694 52.6866 36.9508 51.89C36.6457 51.7753 36.3841 51.5445 36.1501 51.3019C36.2183 51.1862 36.2388 51.1361 36.2464 51.0853C36.2335 51.0846 36.2331 51.1103 36.3435 51.1041C37.6354 50.4514 38.8169 49.8048 39.9677 49.1442C39.937 49.1302 39.9921 49.1692 40.08 49.1321C40.7858 48.5247 41.4038 47.9544 42.0708 47.3749C42.1826 47.3246 42.209 47.2669 42.2815 47.1406C42.7155 46.6385 43.0669 46.1884 43.4057 45.7295C43.3932 45.7207 43.4 45.7506 43.479 45.6905C44.671 43.8207 45.4941 41.9236 45.4273 39.6688C46.3064 33.5318 45.3734 27.9741 40.7049 23.5296C40.7291 23.5022 40.7775 23.4476 40.7775 23.4476Z" fill="#E5B92E"/>
<path d="M2.46652 18.9326C2.8762 18.7178 3.30931 18.3645 3.74431 18.3622C9.98171 18.3284 16.2255 18.1744 22.4548 18.4028C26.6247 18.5556 30.8003 19.1092 34.9224 19.7923C37.1865 20.1676 39.3001 21.257 40.7567 23.3523C40.7774 23.4474 40.729 23.5021 40.6182 23.4878C38.0649 21.2878 35.1469 19.9111 31.9528 19.7814C22.1542 19.3836 12.3451 19.2454 2.5401 19.0063C2.5401 19.0063 2.49083 18.9574 2.46652 18.9326Z" fill="#E5B92E"/>
<path d="M221.582 45.3884C222.599 46.8082 223.922 48.1274 224.515 49.7198C226.028 53.7806 227.542 57.8923 228.451 62.1145C229.695 67.8889 229.173 73.6128 225.904 78.7689C225.252 79.7965 224.212 80.5762 223.293 81.3852C223.663 80.737 224.091 80.1737 224.598 79.556C225.388 78.2295 226.217 77.0084 226.789 75.6764C228.812 70.9657 228.56 66.0794 227.676 61.18C226.659 55.5345 224.442 50.3525 221.505 45.4595C221.505 45.4595 221.557 45.4121 221.582 45.3884Z" fill="#E5B92E"/>
<path d="M43.5936 54.2106C45.8215 54.5759 46.7475 56.397 47.5919 58.0845C48.2957 59.4912 48.8127 61.1197 48.9044 62.6799C49.1003 66.0156 49.2103 69.3943 48.8914 72.7105C48.6388 75.3367 47.0279 77.5199 45.1196 79.4889C44.9993 79.5047 44.9575 79.4675 44.8957 79.2879C46.5077 76.8796 48.2949 74.6426 48.4054 71.7041C48.5137 68.8252 48.5111 65.9286 48.3223 63.0554C48.0846 59.44 46.579 56.4134 43.5105 54.3074C43.5105 54.3074 43.5658 54.2428 43.5936 54.2106Z" fill="#E5B92E"/>
<path d="M181.93 28.9062C190.597 28.8133 199.288 28.831 208.112 28.8531C207.816 29.0518 207.39 29.4134 206.962 29.4152C199.042 29.449 191.123 29.4463 183.204 29.4218C182.787 29.4205 182.371 29.1577 181.93 28.9062Z" fill="#E5B92E"/>
<path d="M208.206 25.3837C199.552 25.4918 190.863 25.4929 182.049 25.5192C182.321 25.3243 182.717 24.9141 183.116 24.9122C191.09 24.8745 199.064 24.8784 207.038 24.9003C207.416 24.9013 207.794 25.1456 208.206 25.3837Z" fill="#E5B92E"/>
<path d="M187.531 1.82851C187.888 1.56696 188.242 1.12247 188.624 1.095C194.032 0.707232 199.3 1.44355 204.421 3.22391C204.573 3.27698 204.671 3.48869 204.824 3.72166C204.853 3.8169 204.814 3.85949 204.688 3.85764C199.026 2.07459 193.371 1.29709 187.56 1.86059C187.56 1.86059 187.54 1.83948 187.531 1.82851Z" fill="#E5B92E"/>
<path d="M48.7475 18.9211C49.1202 18.7158 49.5028 18.3653 49.8876 18.3628C55.2764 18.3278 60.6656 18.3341 66.0545 18.3558C66.3966 18.3572 66.7379 18.5683 67.1187 18.7912C67.1579 18.9005 67.1511 18.923 67.0189 18.9243C60.8501 18.9414 54.8135 18.9572 48.7769 18.973C48.7769 18.973 48.7584 18.9378 48.7475 18.9211Z" fill="#E5B92E"/>
<path d="M76.5142 85.4888C76.1962 85.6957 75.8618 86.0413 75.523 86.0455C72.2969 86.0863 69.07 86.0782 65.8436 86.0537C65.5533 86.0515 65.2646 85.8364 64.9287 85.6192C64.8823 85.5182 64.9048 85.4908 65.0473 85.4753C68.9458 85.4503 72.7018 85.4406 76.4578 85.431C76.4578 85.431 76.4957 85.4693 76.5142 85.4888Z" fill="#E5B92E"/>
<path d="M224.519 79.6104C224.091 80.1737 223.663 80.7369 223.186 81.3864C223.071 81.4752 223.022 81.5045 222.977 81.6039C222.618 81.95 222.269 82.2527 221.786 82.5205C221.618 82.4325 221.585 82.3795 221.586 82.2384C222.552 81.27 223.484 80.3896 224.442 79.5345C224.468 79.5597 224.519 79.6104 224.519 79.6104Z" fill="#E5B92E"/>
<path d="M67.1654 18.8916C68.0654 19.9047 68.1466 21.1617 67.2754 22.0227C67.1765 22.0493 67.1244 21.9993 67.1436 21.8569C67.1589 20.7839 67.1549 19.8534 67.151 18.9228C67.151 18.9228 67.1577 18.9004 67.1654 18.8916Z" fill="#E5B92E"/>
<path d="M181.833 25.5419C181.921 26.5386 181.899 27.5535 181.902 28.693C181.092 28.1017 181.005 26.7138 181.833 25.5419Z" fill="#E5B92E"/>
<path d="M144.961 85.3797C143.338 85.3991 141.714 85.4184 139.869 85.3712C139.05 85.3383 138.453 85.372 137.857 85.4057C134.466 85.4057 131.075 85.4058 127.604 85.4058C127.604 84.5218 127.604 83.6892 127.604 82.8455C130.403 82.0864 130.75 81.5934 130.778 78.6347C130.941 61.3855 131.119 44.1363 131.291 26.8872C131.306 25.3612 131.298 23.839 130.166 22.4868C130.146 22.3693 130.2 22.3102 130.297 22.3291C131.769 23.1156 131.894 24.4623 131.881 25.7967C131.819 31.8138 131.686 37.8301 131.627 43.8471C131.512 55.4954 131.428 67.144 131.331 78.7924C131.327 79.2666 131.369 79.7475 131.306 80.2137C131.136 81.4571 130.57 82.4708 129.396 83.0204C128.808 83.2957 127.92 83.4043 128.311 84.2862C128.471 84.6481 129.279 84.8927 129.796 84.8979C134.279 84.9434 138.764 84.9429 143.248 84.9049C144.222 84.8967 145.195 84.6834 146.2 84.5607C146.246 83.7547 146.54 83.0212 145.404 82.8682C145.127 82.8308 144.907 82.3638 144.682 82.0718C144.704 82.0492 144.748 82.0046 144.748 82.0046C145.366 82.2711 145.984 82.5378 146.823 82.8994C146.645 83.682 146.456 84.5103 146.078 85.296C145.579 85.2954 145.27 85.3376 144.961 85.3797Z" fill="#E5B92E"/>
<path d="M163.585 22.9583C166.904 25.7713 168.482 29.5022 169.193 33.6674C170.164 39.3579 170.15 44.9997 167.952 50.4459C167.427 51.7469 166.598 52.9246 165.809 54.1949C165.709 54.2306 165.666 54.1919 165.665 54.0862C166.424 52.257 167.308 50.5768 167.918 48.8017C169.561 44.021 169.417 39.0811 168.663 34.1941C167.93 29.4479 166.271 25.0659 161.74 22.5585C158.471 20.7494 154.933 19.7906 151.117 19.7001C150.915 19.483 150.768 19.3253 150.621 19.1676C155.178 19.3817 159.568 20.166 163.477 22.941C163.565 22.9747 163.598 22.9366 163.585 22.9583Z" fill="#E5B92E"/>
<path d="M150.546 60.5005C150.392 60.5195 150.238 60.5385 149.865 60.5106C147.514 60.5058 145.381 60.5479 143.249 60.5901C143.249 60.5901 143.208 60.676 143.123 60.693C143.038 60.7101 142.969 60.7494 142.965 60.7468C142.962 60.7442 142.955 60.7388 142.976 60.6282C143.46 60.3118 143.919 59.9392 144.387 59.9278C146.987 59.8645 149.598 60.0156 152.189 59.8535C156.093 59.6095 159.885 58.8573 163.07 56.3198C163.945 55.6227 164.801 54.902 165.666 54.1921C165.666 54.1921 165.709 54.2307 165.73 54.2499C163.173 57.9593 159.352 59.4158 155.148 60.1303C153.848 60.3512 152.516 60.3844 150.972 60.483C150.678 60.4751 150.612 60.4878 150.546 60.5005Z" fill="#E5B92E"/>
<path d="M143.033 61.274C143.052 61.882 143.072 62.4899 143.028 63.3329C142.968 66.7157 142.972 69.8636 142.975 73.0115C142.982 74.5263 142.988 76.0411 142.881 77.6882C142.647 77.82 142.526 77.8193 142.401 77.6854C142.4 72.4828 142.386 67.4133 142.428 62.3444C142.433 61.8078 142.772 61.274 142.955 60.7389C142.955 60.7389 142.962 60.7443 142.952 60.8139C142.973 61.0137 143.003 61.1439 143.033 61.274Z" fill="#E5B92E"/>
<path d="M132.449 19.0244C132.58 19.0117 132.711 18.999 132.967 19.038C133.091 19.0897 133.204 19.1027 133.204 19.1027L133.299 19.0396C134.078 19.0284 134.857 19.0171 135.834 19.0704C136.348 19.1117 136.662 19.0885 136.977 19.0653C137.117 19.0504 137.256 19.0355 137.584 19.0842C138.262 19.1248 138.752 19.1018 139.242 19.0787C139.382 19.063 139.522 19.0473 139.802 19.1105C140.023 19.2799 140.103 19.3702 140.053 19.4706C138.56 19.5486 137.197 19.6768 135.835 19.6707C133.712 19.6612 131.59 19.5332 129.468 19.5287C129.155 19.528 128.643 19.885 128.582 20.1572C128.515 20.4569 128.805 20.8967 129.043 21.1908C129.379 21.6048 129.81 21.9409 130.2 22.3104C130.2 22.3104 130.146 22.3695 130.12 22.3991C129.425 22.1278 128.757 21.8269 127.989 21.4807C127.989 20.7592 127.989 19.9325 127.989 18.9716C128.814 18.9716 129.673 18.9716 130.735 19.0387C131.442 19.0787 131.945 19.0516 132.449 19.0244Z" fill="#E5B92E"/>
<path d="M140.183 19.4604C140.102 19.3701 140.022 19.2797 139.904 19.142C143.377 19.0952 146.888 19.0959 150.51 19.1321C150.768 19.3255 150.914 19.483 151.003 19.7002C150.559 19.7595 150.175 19.7593 149.749 19.6632C148.923 19.1404 148.157 18.9026 147.352 19.7596C144.874 19.6598 142.529 19.5601 140.183 19.4604Z" fill="#E5B92E"/>
<path d="M143.012 72.8992C142.972 69.8636 142.968 66.7156 143 63.4607C143.04 66.4981 143.045 69.6426 143.012 72.8992Z" fill="#E5B92E"/>
<path d="M142.405 77.8187C142.526 77.8194 142.647 77.82 142.86 77.8197C143.203 78.8383 143.456 79.8578 143.672 81.0233C143.591 81.2 143.545 81.2309 143.43 81.1889C143.042 80.0169 142.723 78.9178 142.405 77.8187Z" fill="#E5B92E"/>
<path d="M143.381 60.6054C145.382 60.548 147.514 60.5057 149.79 60.4852C147.794 60.5448 145.653 60.5828 143.381 60.6054Z" fill="#E5B92E"/>
<path d="M137.978 85.4322C138.454 85.3722 139.05 85.3385 139.736 85.3522C139.25 85.4192 138.675 85.4388 137.978 85.4322Z" fill="#E5B92E"/>
<path d="M139.129 19.0438C138.752 19.1018 138.262 19.1247 137.687 19.1099C138.073 19.0509 138.545 19.03 139.129 19.0438Z" fill="#E5B92E"/>
<path d="M132.332 18.9964C131.945 19.0516 131.441 19.0786 130.853 19.0594C131.25 18.9982 131.732 18.9833 132.332 18.9964Z" fill="#E5B92E"/>
<path d="M136.872 19.0321C136.662 19.0885 136.347 19.1118 135.962 19.0951C136.183 19.0364 136.475 19.0177 136.872 19.0321Z" fill="#E5B92E"/>
<path d="M145.068 85.4043C145.27 85.3377 145.579 85.2956 145.962 85.2844C145.748 85.3532 145.462 85.391 145.068 85.4043Z" fill="#E5B92E"/>
<path d="M143.708 81.1275C143.917 81.2306 144.054 81.3752 144.184 81.6257C144.176 81.7316 144.074 81.83 144.004 81.788C143.789 81.5845 143.644 81.423 143.499 81.2616C143.545 81.2308 143.591 81.1999 143.708 81.1275Z" fill="#E5B92E"/>
<path d="M143.065 61.1829C143.003 61.1438 142.973 61.0135 142.956 60.8164C142.969 60.7493 143.038 60.7101 143.078 60.708C143.111 60.8344 143.104 60.9632 143.065 61.1829Z" fill="#E5B92E"/>
<path d="M144.23 81.6853C144.411 81.7184 144.539 81.7978 144.707 81.9409C144.748 82.0048 144.704 82.0492 144.6 82.0634C144.355 81.995 144.215 81.9125 144.074 81.8299C144.074 81.8299 144.176 81.7315 144.23 81.6853Z" fill="#E5B92E"/>
<path d="M150.594 60.5291C150.613 60.4879 150.678 60.4753 150.844 60.47C150.843 60.5041 150.742 60.5309 150.594 60.5291Z" fill="#E5B92E"/>
<path d="M133.234 19.0163C133.299 19.0396 133.204 19.1027 133.204 19.1027C133.204 19.1027 133.09 19.0897 133.063 19.0614C133.035 19.0332 133.169 18.993 133.234 19.0163Z" fill="#E5B92E"/>
<path d="M73.0895 65.2382C73.3723 64.8545 73.8161 64.5152 73.9355 64.0856C75.8713 57.1184 77.9056 50.1743 79.6296 43.1538C81.2754 36.4519 82.6022 29.6708 84.0414 22.9186C84.7131 19.7671 84.6833 19.7512 87.8724 19.7647C89.1446 19.7701 90.7086 19.3944 91.5973 19.9967C92.327 20.4912 92.2614 22.1745 92.5352 23.334C94.6117 32.1272 96.6359 40.9333 98.7795 49.7101C99.9129 54.3509 101.236 58.9458 102.526 63.5468C102.644 63.9688 102.588 65.1717 103.696 64.2029C103.71 64.1114 103.719 64.131 103.815 64.1077C104.52 62.3306 105.329 60.6185 105.701 58.8159C107.285 51.1387 108.754 43.4372 110.237 35.7393C110.926 32.1668 111.592 28.5888 112.179 24.9986C112.342 23.9999 112.64 22.7486 111.066 22.4137C111.066 22.4137 111.11 22.3877 111.075 22.3384C110.951 22.2175 110.863 22.1461 110.775 22.0746C110.775 22.0746 110.822 22.0912 110.817 22.0062C110.582 21.3397 110.351 20.7581 110.12 20.1765C110.777 20.0367 111.433 19.7838 112.091 19.7759C115.495 19.735 118.9 19.7481 122.305 19.7658C122.819 19.7685 123.332 19.8949 123.846 19.964C123.801 20.2828 123.812 20.3885 123.77 20.4636C123.702 20.5835 123.62 20.7211 123.507 20.7858C121.098 22.1635 119.991 24.499 119.359 26.9881C118.206 31.526 117.246 36.1152 116.285 40.6996C114.4 49.6857 112.564 58.682 110.718 67.6764C109.625 73.0061 108.57 78.344 107.434 83.6647C107.352 84.0499 106.769 84.588 106.394 84.609C103.442 84.7741 100.484 84.8222 97.5277 84.9259C96.6933 84.9551 96.2541 84.6456 96.0383 83.7844C94.8771 79.1495 93.6647 74.5275 92.4628 69.903C90.6407 62.8915 88.8288 55.8773 86.9563 48.8794C86.8081 48.3254 86.2224 47.889 85.8401 47.398C85.8401 47.398 85.7637 47.4293 85.6253 47.435C85.1954 47.8981 84.7734 48.3191 84.6348 48.819C83.9773 51.1899 83.3673 53.5753 82.7947 55.9685C80.6031 65.1295 78.4261 74.2941 76.2642 83.4623C76.0695 84.2878 75.6759 84.6694 74.8076 84.6613C71.9708 84.6347 69.1336 84.6417 66.2967 84.6588C65.4701 84.6638 65.0277 84.4028 64.8533 83.4956C64.2551 80.3848 63.5278 77.2992 62.9117 74.1916C61.5135 67.1392 60.19 60.0718 58.7651 53.0249C57.3489 46.021 55.861 39.0315 54.3746 32.0421C53.5613 28.2177 52.3681 24.5464 49.8927 21.413C49.6691 21.13 49.5237 20.4875 49.6862 20.268C49.9071 19.9696 50.4588 19.7838 50.8702 19.781C55.6456 19.749 60.4214 19.7468 65.1968 19.7834C65.642 19.7869 66.0847 20.1089 66.5286 20.283C66.311 20.8062 66.2216 21.4578 65.8521 21.8291C64.658 23.029 64.1325 24.3434 64.4627 26.059C65.6963 32.4695 66.8556 38.8943 68.08 45.3066C69.2512 51.4409 70.4523 57.5698 71.6933 63.6902C71.8072 64.2521 72.306 64.7357 72.6261 65.2556C72.6261 65.2556 72.5968 65.2548 72.6085 65.3172C72.6978 65.4636 72.7754 65.5476 72.8531 65.6317C72.9297 65.4975 73.0063 65.3633 73.0829 65.2291C73.0829 65.2291 73.0993 65.2406 73.0895 65.2382Z" fill="#E5B92E"/>
<path d="M72.6065 65.1428C72.3064 64.7358 71.8072 64.2521 71.6933 63.6902C70.4523 57.5698 69.2512 51.4409 68.08 45.3066C66.8556 38.8943 65.6963 32.4695 64.4627 26.059C64.1325 24.3434 64.658 23.029 65.8521 21.8291C66.2216 21.4578 66.311 20.8062 66.5286 20.283C66.0847 20.1089 65.642 19.7869 65.1968 19.7834C60.4214 19.7468 55.6456 19.749 50.8702 19.781C50.4588 19.7838 49.9071 19.9696 49.6862 20.268C49.5237 20.4875 49.6691 21.13 49.8927 21.413C52.3681 24.5464 53.5613 28.2177 54.3746 32.0421C55.861 39.0315 57.3489 46.021 58.7651 53.0249C60.19 60.0718 61.5135 67.1392 62.9117 74.1916C63.5278 77.2992 64.2551 80.3848 64.8533 83.4956C65.0277 84.4028 65.4701 84.6638 66.2967 84.6588C69.1336 84.6417 71.9708 84.6347 74.8076 84.6613C75.6759 84.6694 76.0695 84.2878 76.2642 83.4623C78.4261 74.2941 80.6031 65.1295 82.7947 55.9685C83.3673 53.5753 83.9773 51.1899 84.6348 48.819C84.7734 48.3191 85.1955 47.8982 85.5872 47.4194C84.4674 52.3098 83.2234 57.216 82.0326 62.135C80.1714 69.8229 78.3462 77.5195 76.4815 85.3218C72.7012 85.4408 68.9454 85.4504 65.0585 85.4621C64.3605 83.2272 63.7048 81.0084 63.2415 78.75C60.929 67.4775 58.6774 56.1925 56.3826 44.9163C55.3725 39.9525 54.4815 34.9545 53.2032 30.0594C52.52 27.4433 51.3553 24.8756 49.9581 22.5586C49.2839 21.4406 48.663 20.521 48.7715 19.0945C54.8134 18.9571 60.8501 18.9414 67.0189 18.9243C67.1551 19.8535 67.1587 20.7841 67.1174 21.832C65.3988 22.6621 64.7612 23.6682 65.0919 25.5302C66.1769 31.6387 67.3034 37.7401 68.464 43.8346C69.8105 50.905 71.21 57.9652 72.6065 65.1428Z" fill="#E5B92E"/>
<path d="M85.8702 47.5023C86.2225 47.8892 86.8081 48.3254 86.9563 48.8794C88.8288 55.8773 90.6407 62.8915 92.4628 69.903C93.6647 74.5275 94.8771 79.1495 96.0383 83.7844C96.2541 84.6456 96.6933 84.9551 97.5277 84.9259C100.484 84.8222 103.442 84.7741 106.394 84.609C106.769 84.588 107.352 84.0499 107.434 83.6647C108.57 78.344 109.625 73.0061 110.718 67.6764C112.564 58.682 114.4 49.6857 116.285 40.6996C117.246 36.1152 118.206 31.526 119.359 26.9881C119.991 24.499 121.098 22.1635 123.507 20.7858C123.62 20.7211 123.702 20.5835 123.77 20.4636C123.812 20.3885 123.801 20.2828 123.846 19.964C123.332 19.8949 122.819 19.7685 122.305 19.7658C118.9 19.7481 115.495 19.735 112.091 19.7759C111.433 19.7838 110.777 20.0367 110.12 20.1765C110.351 20.7581 110.582 21.3399 110.807 22.0288C109.027 21.7074 109.237 20.3758 109.377 18.9337C114.342 18.9337 119.274 18.9339 124.336 18.9429C124.466 19.6138 124.466 20.2757 124.466 21.0489C122.043 21.8425 120.916 23.9274 120.325 26.1624C119.069 30.9143 118.018 35.7242 117.001 40.5354C114.222 53.6872 111.493 66.8499 108.774 80.0144C108.44 81.6319 108.296 83.2882 108.039 84.9226C108.009 85.1134 107.82 85.279 107.56 85.4119C107.335 85.3226 107.26 85.3342 107.194 85.4023C104.344 85.4136 101.494 85.4249 98.4385 85.3709C97.9102 85.3356 97.5864 85.3657 97.2627 85.3957C96.9536 85.4147 96.6445 85.4337 96.1948 85.3817C96.0036 85.2632 95.9441 85.2332 95.8759 85.2207C94.9229 81.5735 93.9827 77.9228 93.0141 74.2798C90.6499 65.3868 88.2724 56.4973 85.8702 47.5023Z" fill="#E5B92E"/>
<path d="M97.3722 85.4224C97.5862 85.3657 97.9105 85.3354 98.3063 85.35C98.0797 85.4128 97.7806 85.4311 97.3722 85.4224Z" fill="#E5B92E"/>
<path d="M107.262 85.4257C107.26 85.3342 107.335 85.3226 107.445 85.3985C107.425 85.436 107.377 85.4425 107.262 85.4257Z" fill="#E5B92E"/>
<path d="M95.8886 85.2783C95.9439 85.2331 96.0034 85.2631 96.0819 85.3527C96.1098 85.3947 95.9931 85.4097 95.9931 85.4097C95.9931 85.4097 95.9015 85.3358 95.8886 85.2783Z" fill="#E5B92E"/>
<path d="M111.111 22.5093C112.64 22.7486 112.342 23.9999 112.179 24.9986C111.592 28.5888 110.926 32.1668 110.237 35.7393C108.754 43.4372 107.285 51.1387 105.701 58.8159C105.329 60.6185 104.52 62.3307 103.81 64.0997C104.824 59.1853 106.046 54.2769 107.029 49.3211C108.622 41.2957 110.083 33.2435 111.523 25.1889C111.668 24.3758 111.29 23.4686 111.111 22.5093Z" fill="#E5B92E"/>
<path d="M110.808 22.158C110.863 22.1461 110.952 22.2174 111.086 22.3611C111.035 22.3693 110.938 22.3054 110.808 22.158Z" fill="#E5B92E"/>
<path d="M208.352 16.7281C207.353 18.3297 206.397 19.9623 205.321 21.5097C205.074 21.8641 204.413 22.0848 203.935 22.0976C197.988 22.2563 192.04 22.3768 186.091 22.4636C185.649 22.47 185.001 22.2767 184.785 21.9516C181.465 16.958 178.201 11.9271 174.901 6.86933C176.489 5.06754 178.452 4.95939 180.506 5.39747C182.368 5.79445 183.972 6.72695 185.006 8.36043C186.265 10.3483 187.398 12.4165 188.627 14.5434C188.669 14.6367 188.657 14.6482 188.561 14.6256C188.164 14.2611 187.808 13.9532 187.572 13.5713C186.675 12.1229 185.885 10.6039 184.929 9.19733C183.166 6.60458 180.115 5.30451 177.6 5.95876C175.78 6.43248 175.591 6.91644 176.635 8.48781C179.201 12.3507 181.901 16.1332 184.275 20.1112C185.123 21.5312 185.992 21.8257 187.429 21.7787C192.104 21.6259 196.793 21.3341 201.455 21.5529C204.127 21.6783 205.564 20.6816 206.653 18.4867C207.006 17.7768 207.708 17.2414 208.275 16.6517C208.301 16.6772 208.352 16.7281 208.352 16.7281Z" fill="#E5B92E"/>
<path d="M187.541 1.98895C193.371 1.29733 199.026 2.07467 204.668 3.8788C204.076 6.73436 203.379 9.567 202.643 12.5146C202.604 12.6296 202.577 12.6561 202.51 12.5699C202.544 11.4642 202.563 10.4285 202.763 9.4287C203.1 7.73345 203.552 6.0609 203.97 4.31786C199.032 2.71047 194.14 2.17719 189.15 2.4244C188.015 2.48059 188.113 3.24176 188.221 4.06195C188.648 7.29256 189.055 10.526 189.42 13.7639C189.451 14.0396 189.121 14.3561 188.956 14.6507C188.953 14.6478 188.951 14.641 188.951 14.641C188.5 11.2701 188.033 7.90131 187.607 4.52712C187.507 3.73286 187.546 2.9209 187.541 1.98895Z" fill="#E5B92E"/>
<path d="M203.354 12.2877C204.386 9.40878 206.114 7.04222 208.608 5.2759C210.58 3.87898 213.271 4.17884 215.17 6.05886C212.962 9.54907 210.73 13.0764 208.425 16.666C208.351 16.7283 208.301 16.6771 208.27 16.5437C209.103 14.9094 209.944 13.3951 210.835 11.9111C211.995 9.97989 213.195 8.07278 214.363 6.17864C212.737 4.81622 210.779 4.62863 209.134 5.70528C207.245 6.94189 205.748 8.55601 204.714 10.5998C204.389 11.2405 203.864 11.779 203.412 12.3452C203.393 12.3261 203.354 12.2877 203.354 12.2877Z" fill="#E5B92E"/>
<path d="M202.612 12.6132C202.817 12.5252 203.014 12.4538 203.282 12.3352C203.354 12.2879 203.392 12.3263 203.397 12.4318C203.193 13.0363 202.963 13.3883 202.577 12.6563C202.577 12.6563 202.604 12.6298 202.612 12.6132Z" fill="#E5B92E"/>
<path d="M188.675 14.6309C188.681 14.625 188.816 14.6323 188.884 14.6367C188.951 14.6411 188.953 14.6479 188.942 14.7038C188.84 14.7225 188.748 14.6854 188.657 14.6483C188.657 14.6483 188.669 14.6368 188.675 14.6309Z" fill="#E5B92E"/>
<path d="M30.8302 85.1692C27.0534 85.2645 23.2772 85.4115 19.4999 85.443C13.8834 85.4899 8.2662 85.4552 2.55972 85.4552C2.55972 84.5128 2.55972 83.7328 2.55972 82.8119C5.03413 82.4877 5.27531 80.6978 5.27934 78.5725C5.31182 61.467 5.40057 44.3615 5.50499 27.001C5.64714 26.0313 5.75658 25.3167 5.92664 24.7016C6.03557 25.2213 6.12597 25.6413 6.1261 26.0613C6.13135 41.8955 6.13254 57.7297 6.11736 73.5638C6.11628 74.6923 5.90185 75.8233 5.93496 76.9487C6.00475 79.3204 6.33687 81.7342 3.76693 83.193C3.52947 83.3278 3.37505 83.8333 3.40876 84.1418C3.42947 84.3312 3.86354 84.551 4.14472 84.617C4.50419 84.7014 4.89665 84.6482 5.2749 84.6482C13.7869 84.6492 22.2988 84.6494 30.8127 84.7364C30.8197 84.9384 30.8249 85.0538 30.8302 85.1692Z" fill="#E5B92E"/>
<path d="M2.54976 19.1091C12.3448 19.2455 22.1542 19.3836 31.9528 19.7814C35.1469 19.9111 38.0644 21.2877 40.5935 23.5151C45.3728 27.9738 46.3058 33.5315 45.3835 39.606C45.1682 39.5336 45.095 39.4641 45.0211 39.2614C45.0208 37.7087 45.0252 36.2891 45.0207 34.8694C44.9973 27.3536 39.4383 21.0918 31.9795 20.3725C28.3287 20.0204 24.652 19.8458 20.9839 19.7865C15.1438 19.6921 9.30112 19.7613 3.52271 19.7613C2.58896 21.1432 4.28635 21.4189 4.41269 22.3352C4.38822 22.3599 4.3392 22.4091 4.3392 22.4091C2.16941 22.2252 2.70082 20.5305 2.54976 19.1091Z" fill="#E5B92E"/>
<path d="M30.9468 85.1838C30.8252 85.0538 30.8202 84.9385 30.934 84.731C34.131 84.1739 37.289 83.9289 40.0346 82.2869C44.8759 79.3916 48.0239 75.3973 47.8605 69.4226C47.7959 67.0605 47.7611 64.6926 47.5592 62.3405C47.2501 58.7385 45.568 55.9399 42.2289 54.3928C40.6101 53.6427 38.8444 53.217 37.1835 52.5489C36.7061 52.3568 36.3621 51.8316 35.9799 51.4435C36.0029 51.4278 36.1022 51.3674 36.1022 51.3674C36.3839 51.5445 36.6457 51.7753 36.9508 51.89C39.0694 52.6866 41.197 53.4591 43.4163 54.2734C46.5792 56.4135 48.0846 59.44 48.3223 63.0554C48.5111 65.9286 48.5137 68.8252 48.4054 71.7041C48.2949 74.6426 46.5078 76.8795 44.8333 79.2319C41.5612 82.9605 37.3542 84.5127 32.4688 85.0014C32.1822 85.0128 32.0856 85.0435 31.989 85.0742C31.6805 85.1156 31.3718 85.1569 30.9468 85.1838Z" fill="#E5B92E"/>
<path d="M5.8662 24.602C5.75676 25.3167 5.64733 26.0313 5.54279 26.8814C5.45604 26.0052 5.4373 24.9792 5.2423 23.9881C5.14353 23.4861 4.72653 23.047 4.3964 22.4943C4.3394 22.4092 4.38838 22.36 4.51549 22.3427C5.78445 22.6878 5.85403 23.6294 5.8662 24.602Z" fill="#E5B92E"/>
<path d="M32.0674 85.0917C32.0853 85.0434 32.1823 85.0126 32.3562 84.9803C32.3378 85.0221 32.2418 85.0658 32.0674 85.0917Z" fill="#E5B92E"/>
<path d="M73.0031 65.2406C73.0067 65.3634 72.9297 65.4975 72.8531 65.6317C72.7754 65.5476 72.6984 65.4636 72.6108 65.3026C72.7083 65.2344 72.8155 65.2433 73.0031 65.2406Z" fill="#E5B92E"/>
<path d="M162.183 62.233C164.231 60.8034 166.242 59.4871 168.365 58.1586C168.475 58.1465 168.517 58.1869 168.502 58.284C167.578 59.1819 166.795 60.2996 165.735 60.7227C162.84 61.8789 162.328 63.9582 162.49 66.7848C162.667 69.8787 162.767 72.9665 164.121 75.7879C166.913 81.6034 171.864 84.7867 177.813 86.619C182.775 88.1472 187.915 88.4978 193.057 88.6034C196.45 88.673 199.867 88.6317 203.238 88.2934C206.458 87.9703 209.743 87.5339 212.798 86.5297C215.846 85.5275 218.644 83.7591 221.552 82.3265C221.585 82.3796 221.618 82.4327 221.699 82.5667C218.283 85.6487 214.117 87.1169 209.741 88.0372C201.079 89.8585 192.376 89.6997 183.648 88.49C178.904 87.8325 174.439 86.4921 170.418 83.8124C164.733 80.0238 161.929 74.6884 161.905 67.8806C161.898 66.0361 162.061 64.1911 162.183 62.233Z" fill="#E5B92E"/>
<path d="M198.887 26.3048C201.531 26.306 204.034 26.2686 206.534 26.3489C206.917 26.3612 207.283 26.9166 207.656 27.2208C207.29 27.4851 206.926 27.9781 206.558 27.98C198.768 28.0202 190.978 28.0056 183.188 27.9956C183.056 27.9955 182.925 27.9192 182.771 27.8714C182.463 26.6444 183 26.2837 184.156 26.2915C189.018 26.3241 193.882 26.305 198.887 26.3048Z" fill="#E5B92E"/>
<path d="M221.43 45.3995C224.442 50.3525 226.659 55.5345 227.676 61.18C228.56 66.0794 228.812 70.9657 226.789 75.6764C226.217 77.0084 225.388 78.2295 224.598 79.556C224.519 79.6105 224.468 79.5597 224.446 79.4314C224.477 79.1221 224.489 78.9146 224.587 78.764C228.095 73.3909 228.202 67.4217 227.105 61.4706C225.261 51.463 220.59 42.9432 212.562 36.5095C210.489 34.8479 208.383 33.101 205.434 33.1183C198.386 33.1595 191.337 33.0981 184.29 33.1763C183.388 33.1863 182.437 33.6775 181.605 34.1252C180.045 34.9638 178.557 35.9339 177.016 36.8232C176.994 36.7971 176.949 36.7448 176.949 36.7448C178.819 35.3867 180.679 34.0152 182.569 32.6855C182.849 32.4886 183.267 32.4122 183.621 32.4108C191.185 32.3805 198.749 32.3571 206.313 32.3769C206.889 32.3784 207.504 32.6327 208.035 32.9014C213.67 35.7561 217.915 40.1171 221.43 45.3995Z" fill="#E5B92E"/>
<path d="M168.745 57.8495C173.006 54.1991 174.03 49.2106 174.434 43.9734C174.499 43.1258 174.614 42.2443 174.46 41.4246C174.054 39.2535 174.952 37.8246 176.859 36.7813C176.949 36.7449 176.994 36.797 177.001 36.9197C176.885 37.241 176.811 37.5344 176.634 37.6234C174.9 38.4961 174.971 40.0518 175.049 41.639C175.254 45.8133 174.537 49.8374 172.781 53.6197C171.94 55.432 170.968 57.2652 168.787 57.8921C168.773 57.8775 168.745 57.8495 168.745 57.8495Z" fill="#E5B92E"/>
<path d="M168.455 58.1257C168.46 58.0066 168.518 57.936 168.677 57.8714C168.745 57.8497 168.774 57.8775 168.752 57.9497C168.672 58.0934 168.601 58.1483 168.517 58.1867C168.517 58.1867 168.476 58.1462 168.455 58.1257Z" fill="#E5B92E"/>
<path d="M5.92664 24.7016C5.85385 23.6294 5.78458 22.6877 4.5401 22.3179C4.28665 21.4189 2.58896 21.1432 3.52271 19.7613C9.30112 19.7613 15.1438 19.6921 20.9839 19.7865C24.652 19.8458 28.3287 20.0204 31.9795 20.3725C39.4383 21.0918 44.9973 27.3536 45.0207 34.8694C45.0252 36.2891 45.0211 37.7087 45.0166 39.3779C44.8097 40.5787 44.6444 41.5399 44.3945 42.4785C44.1013 43.5794 43.7346 44.6606 43.3997 45.7503C43.3997 45.7503 43.3929 45.7204 43.2972 45.7211C42.8672 46.2119 42.5329 46.702 42.1986 47.1922C42.2087 47.2666 42.1823 47.3243 41.9584 47.368C41.1956 47.9702 40.5937 48.5696 39.9918 49.1689C39.9918 49.1689 39.9367 49.1299 39.8578 49.1193C38.5968 49.7758 37.4148 50.4429 36.2328 51.11C36.2328 51.11 36.2332 51.0843 36.1791 51.0947C36.0688 51.223 36.0128 51.3409 35.9567 51.4589C36.3619 51.8313 36.7061 52.3568 37.1835 52.5489C38.8444 53.217 40.6101 53.6427 42.2289 54.3928C45.568 55.9399 47.2501 58.7385 47.5592 62.3405C47.7611 64.6926 47.7959 67.0605 47.8605 69.4226C48.0239 75.3973 44.8759 79.3916 40.0346 82.2869C37.289 83.9289 34.1308 84.1736 30.9319 84.6442C22.2992 84.6493 13.7869 84.6492 5.2749 84.6482C4.89665 84.6482 4.50419 84.7014 4.14472 84.617C3.86354 84.551 3.42947 84.3312 3.40876 84.1418C3.37505 83.8333 3.52947 83.3278 3.76693 83.193C6.33687 81.7342 6.00475 79.3204 5.93496 76.9487C5.90185 75.8233 6.11628 74.6923 6.11736 73.5638C6.13254 57.7297 6.13135 41.8955 6.1261 26.0613C6.12597 25.6413 6.03557 25.2213 5.92664 24.7016ZM32.6928 75.8052C33.4667 75.1033 34.5114 74.5437 34.9659 73.674C36.6496 70.4523 36.7547 66.9611 36.2308 63.4295C35.7808 60.3964 34.4027 57.9635 31.5979 56.5298C27.6706 54.5223 23.4403 54.3424 19.1615 54.5837C18.1593 54.6402 17.7345 55.2641 17.7399 56.3202C17.7726 62.7685 17.7471 69.2172 17.7849 75.6655C17.7874 76.0984 18.1497 76.5292 18.4124 77.1684C19.1641 77.3419 19.9085 77.6174 20.6686 77.6715C24.1401 77.9187 27.6258 78.1155 31 77.0048C31.5673 76.8181 31.9925 76.1972 32.6928 75.8052ZM18.3287 27.647C18.3106 27.7734 18.2925 27.8998 18.1639 27.9234C18.1281 27.8924 18.0962 27.8542 18.0554 27.8326C18.015 27.8112 17.9273 27.7925 17.9258 27.7965C17.866 27.9618 17.767 28.1298 17.7669 28.2975C17.7611 34.5053 17.7654 40.7132 17.7657 46.9211C17.7657 47.9236 18.3828 48.2285 19.2443 48.2297C21.0404 48.2323 22.8418 48.301 24.6313 48.1878C26.8961 48.0446 29.0215 47.3641 30.6387 45.6793C34.3608 41.8016 34.2228 37.0851 33.313 32.2796C32.9311 30.2623 31.462 29.0249 29.6485 28.236C26.3022 26.7805 22.7568 26.751 19.2026 26.8988C18.9084 26.911 18.6282 27.2616 18.3287 27.647Z" fill="#E5B92E"/>
<path d="M43.479 45.6905C43.7349 44.6609 44.1013 43.5794 44.3945 42.4785C44.6444 41.5399 44.8095 40.5789 45.0171 39.5112C45.0952 39.4642 45.1684 39.5337 45.2848 39.6658C45.4936 41.9235 44.671 43.8207 43.479 45.6905Z" fill="#E5B92E"/>
<path d="M36.3435 51.1041C37.4151 50.4432 38.5968 49.7758 39.8885 49.1333C38.8166 49.8046 37.6354 50.4514 36.3435 51.1041Z" fill="#E5B92E"/>
<path d="M40.08 49.1321C40.594 48.5699 41.1957 47.9702 41.9096 47.3774C41.4037 47.9542 40.7858 48.5247 40.08 49.1321Z" fill="#E5B92E"/>
<path d="M42.2815 47.1406C42.5332 46.7023 42.8673 46.2119 43.3098 45.7299C43.0667 46.1881 42.7155 46.6385 42.2815 47.1406Z" fill="#E5B92E"/>
<path d="M35.9799 51.4435C36.013 51.3412 36.0689 51.2233 36.1919 51.0956C36.2385 51.136 36.2183 51.1862 36.1501 51.3019C36.1023 51.3675 36.0029 51.4278 35.9799 51.4435Z" fill="#E5B92E"/>
<path d="M168.502 58.284C168.601 58.1486 168.672 58.0936 168.765 57.9645C170.968 57.2655 171.94 55.432 172.781 53.6197C174.537 49.8374 175.254 45.8133 175.049 41.639C174.971 40.0518 174.9 38.4961 176.634 37.6234C176.811 37.5344 176.885 37.2413 177.023 36.9461C178.557 35.934 180.045 34.9638 181.605 34.1252C182.437 33.6775 183.388 33.1863 184.29 33.1763C191.337 33.0981 198.386 33.1595 205.434 33.1183C208.383 33.101 210.489 34.8479 212.562 36.5095C220.59 42.9432 225.261 51.463 227.105 61.4706C228.202 67.4217 228.095 73.3909 224.587 78.764C224.489 78.9146 224.478 79.1223 224.421 79.4063C223.485 80.3897 222.552 81.27 221.586 82.2384C218.644 83.7589 215.846 85.5275 212.798 86.5297C209.743 87.5339 206.458 87.9703 203.238 88.2934C199.867 88.6317 196.45 88.673 193.057 88.6034C187.915 88.4978 182.775 88.1472 177.813 86.619C171.864 84.7867 166.913 81.6034 164.121 75.7879C162.767 72.9665 162.667 69.8787 162.49 66.7848C162.328 63.9582 162.84 61.8789 165.735 60.7227C166.795 60.2996 167.578 59.1819 168.502 58.284ZM184.5 75.6968C184.671 75.7254 184.843 75.754 185.013 75.9848C185.313 76.3292 185.547 76.8234 185.925 76.9921C187.509 77.6989 189.101 78.4297 190.76 78.9089C191.807 79.211 192.477 79.4748 192.393 80.7307C192.365 81.1608 192.751 81.6188 193.021 82.2769C194.611 82.3426 196.201 82.4124 197.792 82.458C197.849 82.4596 197.912 82.2227 198.13 81.9234C198.196 81.6052 198.358 81.2722 198.312 80.9713C198.118 79.7066 198.688 79.2194 199.89 79.0361C200.998 78.8672 202.093 78.5231 203.153 78.1409C209.546 75.8349 211.649 68.094 209.091 63.0292C208.861 62.5728 208.358 62.2547 207.972 61.6722C207.588 61.3692 207.204 61.0662 206.801 60.5649C206.456 60.199 206.178 59.6708 205.755 59.4945C203.639 58.6142 201.522 57.6977 199.33 57.0558C198.089 56.6924 197.593 56.2031 197.765 54.9274C197.922 53.7647 197.951 52.5848 198.04 51.4127C198.08 50.8828 198.127 50.3535 198.172 49.8239C198.325 49.7583 198.479 49.6927 198.633 49.6271C199.126 50.2427 199.779 50.79 200.077 51.4894C200.577 52.665 201.319 53.1975 202.576 53.0776C203.042 53.0331 203.516 53.0687 204.244 53.0698C205.07 53.0994 205.901 53.196 206.717 53.1265C207.055 53.0978 207.362 52.713 207.881 52.4128C207.992 51.9373 208.296 51.4056 208.177 50.9966C207.801 49.694 207.417 48.3533 206.764 47.1793C205.189 44.3475 202.523 42.9898 199.48 42.3553C198.504 42.1519 198.312 41.7051 198.284 40.8244C198.266 40.2612 197.912 39.7089 197.648 38.9373C196.541 38.8065 195.437 38.6179 194.327 38.5782C193.97 38.5655 193.599 38.9455 193.027 39.2092C192.907 40.0319 192.787 40.8546 192.647 41.693C192.647 41.693 192.627 41.7086 192.546 41.778C192.494 41.8269 192.448 41.8803 192.198 42.024C191.106 42.2889 189.936 42.3895 188.941 42.8608C187.726 43.4357 186.659 44.3221 185.322 45.0807C184.82 45.4755 184.199 45.7828 183.835 46.2797C181.802 49.0542 181.509 52.2086 182.05 55.4898C182.325 57.1569 182.891 58.7698 184.396 59.699C186.219 60.8257 188.063 62.0566 190.07 62.7085C191.848 63.2859 192.953 63.8978 192.872 65.9305C192.796 67.8416 192.856 69.7581 192.856 71.8368C191.097 71.418 190.164 70.5442 189.732 69.0343C189.554 68.4102 189.153 67.85 188.818 67.0558C186.699 66.9858 184.581 66.9095 182.461 66.8654C182.362 66.8634 182.256 67.1476 181.946 67.3745C180.971 69.3227 182.104 73.5146 184.172 75.403C184.231 75.4683 184.295 75.5284 184.5 75.6968Z" fill="#E5B92E"/>
<path d="M144.004 81.788C144.215 81.9126 144.355 81.9953 144.578 82.0863C144.907 82.3641 145.127 82.8308 145.404 82.8682C146.54 83.0212 146.246 83.7547 146.2 84.5607C145.195 84.6834 144.222 84.8967 143.248 84.9049C138.764 84.9429 134.279 84.9434 129.796 84.8979C129.279 84.8927 128.471 84.6481 128.311 84.2862C127.92 83.4043 128.808 83.2957 129.396 83.0204C130.57 82.4708 131.136 81.4571 131.306 80.2137C131.369 79.7475 131.327 79.2666 131.331 78.7924C131.428 67.144 131.512 55.4954 131.627 43.8471C131.686 37.8301 131.819 31.8138 131.881 25.7967C131.894 24.4623 131.769 23.1156 130.297 22.3291C129.81 21.9408 129.379 21.6048 129.043 21.1908C128.805 20.8967 128.515 20.4569 128.582 20.1572C128.643 19.885 129.155 19.528 129.468 19.5287C131.59 19.5332 133.712 19.6612 135.835 19.6707C137.197 19.6768 138.56 19.5486 140.053 19.4706C142.529 19.5602 144.875 19.6601 147.481 19.76C148.425 19.7598 149.108 19.7596 149.791 19.7593C150.175 19.7596 150.56 19.7598 151.058 19.76C154.933 19.7909 158.471 20.7494 161.74 22.5585C166.271 25.0659 167.93 29.4479 168.663 34.1941C169.417 39.0811 169.561 44.021 167.918 48.8017C167.308 50.5768 166.424 52.257 165.665 54.0862C164.801 54.9018 163.945 55.6227 163.07 56.3198C159.885 58.8573 156.093 59.6095 152.189 59.8535C149.598 60.0156 146.987 59.8645 144.387 59.9278C143.919 59.9392 143.46 60.3118 142.976 60.6282C142.772 61.2739 142.433 61.8078 142.428 62.3444C142.386 67.4133 142.4 72.4828 142.401 77.6854C142.723 78.9177 143.042 80.0169 143.43 81.1889C143.644 81.4232 143.789 81.5845 144.004 81.788ZM143.091 28.9971C143.004 28.7207 142.917 28.4443 142.831 28.1679C142.664 35.6002 142.656 42.9919 142.685 50.3835C142.687 50.7948 143.002 51.2048 143.242 51.6077C143.242 51.6077 143.261 51.6771 143.348 51.8685C144.058 52.0464 144.758 52.3191 145.478 52.3872C151.268 52.9351 156.478 50.1996 157.128 43.5858C157.399 40.8309 157.375 38.0007 157.077 35.2491C156.792 32.6141 155.667 30.2176 153.193 28.7899C150.274 27.1055 147.064 27.0486 143.831 27.2094C143.63 27.2194 143.445 27.5536 143.237 27.973C143.219 28.365 143.202 28.757 143.091 28.9971Z" fill="#E5B92E"/>
<path d="M149.749 19.6632C149.108 19.7593 148.425 19.7598 147.613 19.76C148.157 18.9028 148.923 19.1404 149.749 19.6632Z" fill="#E5B92E"/>
<path d="M188.561 14.6256C188.748 14.6853 188.84 14.7224 188.945 14.7066C189.122 14.3561 189.451 14.0396 189.42 13.7639C189.055 10.526 188.648 7.29256 188.221 4.06195C188.113 3.24176 188.015 2.48059 189.15 2.4244C194.14 2.17719 199.032 2.71047 203.97 4.31786C203.552 6.0609 203.1 7.73345 202.763 9.4287C202.563 10.4285 202.544 11.4642 202.51 12.5699C202.963 13.3882 203.194 13.0361 203.417 12.4507C203.865 11.7791 204.389 11.2405 204.714 10.5998C205.748 8.55601 207.245 6.94189 209.134 5.70528C210.779 4.62863 212.737 4.81622 214.363 6.17864C213.195 8.07278 211.995 9.97989 210.835 11.9111C209.944 13.3951 209.103 14.9094 208.245 16.5182C207.708 17.2414 207.006 17.7768 206.653 18.4867C205.564 20.6816 204.127 21.6783 201.455 21.5529C196.793 21.3341 192.104 21.6259 187.429 21.7787C185.992 21.8257 185.123 21.5312 184.275 20.1112C181.901 16.1332 179.201 12.3507 176.635 8.48781C175.591 6.91644 175.78 6.43248 177.6 5.95876C180.115 5.30451 183.166 6.60458 184.929 9.19733C185.885 10.6039 186.675 12.1229 187.572 13.5713C187.808 13.9532 188.164 14.2611 188.561 14.6256Z" fill="#E5B92E"/>
<path d="M18.3413 27.4553C18.628 27.2619 18.9084 26.911 19.2026 26.8988C22.7568 26.751 26.3022 26.7805 29.6485 28.236C31.462 29.0249 32.9311 30.2623 33.313 32.2796C34.2228 37.0851 34.3608 41.8016 30.6387 45.6793C29.0215 47.3641 26.8961 48.0446 24.6313 48.1878C22.8418 48.301 21.0404 48.2323 19.2443 48.2297C18.3828 48.2285 17.7657 47.9236 17.7657 46.9211C17.7654 40.7132 17.7611 34.5053 17.7669 28.2975C17.767 28.1298 17.866 27.9618 17.9258 27.7965C17.9273 27.7925 18.015 27.8112 18.0554 27.8326C18.0962 27.8542 18.1279 27.8927 18.238 28.1063C18.2988 30.7595 18.2854 33.2299 18.2434 35.731C18.1817 35.849 18.2003 35.9236 18.2876 36.1176C18.2925 38.9104 18.2804 41.571 18.2284 44.2831C18.2154 44.4931 18.2423 44.6516 18.2866 44.9403C18.3039 45.9078 18.3039 46.7449 18.3039 47.8732C21.1213 47.6752 23.833 47.7417 26.4339 47.2355C29.5569 46.6278 31.8593 44.6407 32.4705 41.3945C32.9281 38.9639 33.1255 36.4299 33.0182 33.9603C32.8839 30.8711 31.1355 29.0818 28.1541 28.2923C24.9318 27.439 21.6589 27.1844 18.3413 27.4553Z" fill="#E5B92E"/>
<path d="M18.2726 35.7004C18.286 33.2299 18.2994 30.7594 18.2937 28.1577C18.2928 27.9 18.311 27.7736 18.3355 27.5513C21.6595 27.1844 24.9318 27.439 28.1541 28.2923C31.1355 29.0818 32.8839 30.8711 33.0182 33.9603C33.1255 36.4299 32.9281 38.9639 32.4705 41.3945C31.8593 44.6407 29.5569 46.6278 26.4339 47.2355C23.833 47.7417 21.1213 47.6752 18.3039 47.8732C18.3039 46.7449 18.3045 45.9078 18.3113 44.8449C18.3017 44.4899 18.2853 44.3607 18.269 44.2315C18.281 41.571 18.2931 38.9104 18.3092 36.0465C18.2997 35.7955 18.2861 35.748 18.2726 35.7004ZM19.0602 28.3447C19.0261 28.4328 18.9624 28.5209 18.9621 28.6091C18.9431 34.437 18.9325 40.265 18.9111 46.0929C18.9079 46.9549 19.4324 47.114 20.1241 47.0785C21.7709 46.9937 23.4212 46.9467 25.063 46.8033C28.8189 46.4751 31.1222 44.6143 31.8938 40.9379C32.336 38.8309 32.512 36.6231 32.4603 34.4691C32.4084 32.3089 31.5643 30.197 29.3874 29.42C26.1379 28.2603 22.7298 27.7086 19.0602 28.3447Z" fill="#E5B92E"/>
<path d="M18.3444 76.961C18.1494 76.5292 17.7874 76.0984 17.7849 75.6655C17.7471 69.2172 17.7726 62.7685 17.7399 56.3202C17.7345 55.2641 18.1593 54.6402 19.1615 54.5837C23.4403 54.3424 27.6706 54.5223 31.5979 56.5298C34.4027 57.9635 35.7808 60.3964 36.2308 63.4295C36.7547 66.9611 36.6496 70.4523 34.9659 73.674C34.5114 74.5437 33.4663 75.1033 32.5804 75.7824C32.4683 75.7596 32.4531 75.7427 32.5085 75.6659C34.0956 74.4858 35.1778 73.0009 35.3358 71.1418C35.563 68.4666 35.71 65.7524 35.514 63.0827C35.3335 60.6231 33.9978 58.6249 31.8162 57.3222C27.5956 54.802 22.9732 55.1933 18.3628 55.2816C18.3628 62.6334 18.3628 69.7855 18.358 76.9433C18.3532 76.949 18.3444 76.961 18.3444 76.961Z" fill="#E5B92E"/>
<path d="M32.4763 75.7686C31.9928 76.1975 31.5673 76.8181 31 77.0048C27.6258 78.1155 24.1401 77.9187 20.6686 77.6715C19.9085 77.6174 19.1643 77.3422 18.3788 77.0649C18.345 76.9612 18.3538 76.9492 18.4819 76.9523C19.2652 77.0141 19.9195 77.109 20.5757 77.1255C24.5989 77.2264 28.6673 77.6938 32.4537 75.7429C32.4537 75.7429 32.4689 75.7598 32.4763 75.7686Z" fill="#E5B92E"/>
<path d="M188.853 67.2606C189.153 67.8499 189.554 68.4102 189.732 69.0343C190.164 70.5442 191.097 71.418 192.856 71.8368C192.856 69.7581 192.796 67.8416 192.872 65.9305C192.953 63.8978 191.848 63.2859 190.07 62.7085C188.063 62.0566 186.219 60.8257 184.396 59.699C182.891 58.7698 182.325 57.1569 182.05 55.4898C181.509 52.2086 181.802 49.0542 183.835 46.2797C184.199 45.7828 184.82 45.4754 185.449 45.1034C185.576 45.1263 185.625 45.179 185.575 45.2599C180.23 50.1984 181.582 58.6719 188.158 61.466C189.84 62.1806 191.659 62.5698 193.412 63.2364C193.409 66.4662 193.409 69.5681 193.409 72.6689C191.233 72.4091 189.641 71.0439 189.148 69.0252C189.006 68.4435 188.828 67.8706 188.713 67.2848C188.759 67.2759 188.853 67.2606 188.853 67.2606Z" fill="#E5B92E"/>
<path d="M207.982 61.8723C208.358 62.2547 208.861 62.5728 209.091 63.0292C211.649 68.094 209.546 75.8349 203.153 78.1409C202.093 78.5231 200.998 78.8672 199.89 79.0361C198.688 79.2194 198.118 79.7066 198.312 80.9713C198.358 81.2722 198.196 81.6052 197.996 82.0097C197.863 82.0961 197.753 82.0885 197.776 81.9643C197.702 80.8617 197.605 79.8832 197.502 78.8347C201.625 78.2933 205.662 77.4375 207.936 73.5337C210.137 69.7546 210.154 65.8125 207.903 61.945C207.929 61.9208 207.982 61.8723 207.982 61.8723Z" fill="#E5B92E"/>
<path d="M203.986 53.0677C203.516 53.0686 203.042 53.0331 202.576 53.0776C201.319 53.1975 200.577 52.665 200.077 51.4894C199.779 50.79 199.126 50.2427 198.633 49.6271C198.479 49.6927 198.325 49.7583 198.172 49.8239C198.127 50.3535 198.08 50.8828 198.04 51.4127C197.951 52.5848 197.922 53.7647 197.765 54.9274C197.593 56.2031 198.089 56.6924 199.33 57.0558C201.522 57.6977 203.639 58.6142 205.755 59.4945C206.178 59.6708 206.456 60.1989 206.796 60.6781C206.792 60.7913 206.765 60.8199 206.674 60.7839C203.808 58.7091 200.632 57.7403 197.246 57.1285C197.216 54.2922 197.216 51.5791 197.216 48.5631C198.319 49.0951 198.986 49.4171 199.706 49.8207C200.673 51.5872 201.654 53.165 203.996 52.6303C203.992 52.8344 203.989 52.951 203.986 53.0677Z" fill="#E5B92E"/>
<path d="M197.709 39.1514C197.912 39.7086 198.266 40.2612 198.284 40.8244C198.312 41.7051 198.504 42.1519 199.48 42.3553C202.523 42.9898 205.189 44.3475 206.764 47.1793C207.417 48.3533 207.801 49.694 208.177 50.9966C208.296 51.4056 207.992 51.937 207.777 52.4452C207.673 52.4779 207.663 52.4664 207.668 52.3486C207.266 45.9004 203.135 43.4249 197.69 42.6143C197.69 41.3435 197.69 40.2606 197.695 39.1715C197.7 39.1652 197.709 39.1514 197.709 39.1514Z" fill="#E5B92E"/>
<path d="M192.948 82.0639C192.751 81.6187 192.365 81.1608 192.393 80.7307C192.477 79.4748 191.807 79.211 190.76 78.9089C189.101 78.4297 187.509 77.6989 185.925 76.9921C185.547 76.8234 185.313 76.3292 185.021 75.8769C185.028 75.7691 185.041 75.7549 185.132 75.7898C187.504 77.7663 190.302 78.296 193.122 78.846C193.106 79.9407 193.101 80.925 193.06 81.948C193.023 81.9867 192.948 82.0639 192.948 82.0639Z" fill="#E5B92E"/>
<path d="M185.551 45.1C186.658 44.322 187.726 43.4357 188.941 42.8608C189.936 42.3895 191.105 42.2888 192.341 41.9459C192.536 41.8184 192.583 41.7653 192.626 41.7086C192.626 41.7086 192.647 41.693 192.751 41.6847C192.983 41.6732 193.11 41.6701 193.283 41.7377C193.359 42.0271 193.389 42.2459 193.305 42.4822C190.478 42.8513 187.913 43.6228 185.624 45.179C185.624 45.179 185.576 45.1263 185.551 45.1Z" fill="#E5B92E"/>
<path d="M184.087 75.302C182.104 73.5145 180.971 69.3226 182.054 67.3427C182.162 67.3109 182.172 67.3226 182.161 67.4479C182.109 70.2905 182.712 72.817 184.285 75.1028C184.175 75.2133 184.131 75.2577 184.087 75.302Z" fill="#E5B92E"/>
<path d="M188.835 67.158C188.853 67.2605 188.759 67.2758 188.58 67.2936C186.324 67.3151 184.247 67.3188 182.171 67.3225C182.171 67.3225 182.161 67.3109 182.157 67.3046C182.255 67.1474 182.362 66.8634 182.461 66.8654C184.581 66.9095 186.699 66.9856 188.835 67.158Z" fill="#E5B92E"/>
<path d="M193.235 39.1459C193.599 38.9455 193.97 38.5655 194.327 38.5782C195.437 38.6179 196.541 38.8065 197.678 39.0445C197.709 39.1517 197.7 39.1655 197.568 39.1497C196.044 39.1444 194.652 39.1549 193.255 39.1602C193.248 39.155 193.235 39.1459 193.235 39.1459Z" fill="#E5B92E"/>
<path d="M204.115 53.0688C203.989 52.9512 203.992 52.8345 204.091 52.6109C204.315 52.5167 204.442 52.5296 204.649 52.5923C205.146 52.6089 205.562 52.5756 206.098 52.5224C206.699 52.4904 207.181 52.4786 207.663 52.4667C207.663 52.4667 207.673 52.4782 207.678 52.4842C207.362 52.7131 207.055 53.0978 206.717 53.1265C205.901 53.196 205.069 53.0995 204.115 53.0688Z" fill="#E5B92E"/>
<path d="M197.752 82.0885C197.752 82.0885 197.863 82.0961 197.917 82.0965C197.912 82.2227 197.849 82.4596 197.792 82.458C196.201 82.4124 194.611 82.3427 192.984 82.1704C192.948 82.064 193.022 81.9868 193.154 82.0138C194.775 82.0567 196.263 82.0726 197.752 82.0885Z" fill="#E5B92E"/>
<path d="M193.238 41.667C193.111 41.6701 192.984 41.6732 192.762 41.6768C192.787 40.8546 192.907 40.0319 193.131 39.1775C193.235 39.1458 193.249 39.1549 193.238 39.2836C193.231 40.1639 193.234 40.9155 193.238 41.667Z" fill="#E5B92E"/>
<path d="M206.806 60.7773C207.204 61.0662 207.588 61.3692 207.977 61.7723C207.982 61.8724 207.929 61.9208 207.826 61.8997C207.403 61.5258 207.084 61.1728 206.765 60.8199C206.765 60.8199 206.792 60.7914 206.806 60.7773Z" fill="#E5B92E"/>
<path d="M185.02 75.7758C184.842 75.754 184.671 75.7254 184.495 75.5761C184.533 75.4125 184.575 75.3697 184.68 75.3716C184.842 75.5291 184.941 75.642 185.041 75.7549C185.041 75.7549 185.027 75.7691 185.02 75.7758Z" fill="#E5B92E"/>
<path d="M192.586 41.743C192.583 41.7651 192.536 41.8182 192.446 41.9029C192.447 41.8801 192.494 41.8266 192.586 41.743Z" fill="#E5B92E"/>
<path d="M184.427 75.5192C184.294 75.5282 184.23 75.4681 184.129 75.3524C184.131 75.2576 184.174 75.2133 184.335 75.1449C184.519 75.18 184.574 75.2486 184.617 75.3268C184.575 75.3696 184.533 75.4124 184.427 75.5192Z" fill="#E5B92E"/>
<path d="M143.261 51.6767C143.261 51.6767 143.242 51.6074 143.194 51.4789C143.126 47.3368 143.106 43.3233 143.129 39.2128C143.159 38.8368 143.146 38.5579 143.158 38.1464C143.183 35.0588 143.184 32.1037 143.184 29.1486C143.202 28.7566 143.219 28.3646 143.375 27.8342C145.398 27.7979 147.299 27.7763 149.163 28.0277C153.264 28.5809 155.741 30.6537 156.325 34.7284C156.784 37.9214 156.848 41.2758 156.415 44.4672C155.823 48.8433 152.762 51.3239 148.359 51.6718C146.67 51.8052 144.961 51.6826 143.261 51.6767ZM153.753 48.6483C154.43 47.215 155.514 45.8322 155.699 44.3376C156.052 41.4923 156.072 38.5721 155.896 35.7035C155.702 32.5271 154.109 30.04 150.941 29.1064C149.113 28.5676 147.132 28.5474 145.218 28.3042C144.189 28.1735 143.76 28.6155 143.803 29.6784C143.863 31.1456 143.817 32.6171 143.817 34.0867C143.816 39.2542 143.796 44.4219 143.848 49.5889C143.852 50.0731 144.281 50.9554 144.556 50.9732C147.781 51.1816 151.027 51.3134 153.753 48.6483Z" fill="#E5B92E"/>
<path d="M143.304 51.7724C144.961 51.6827 146.67 51.8052 148.359 51.6718C152.762 51.3239 155.823 48.8433 156.415 44.4672C156.848 41.2758 156.784 37.9214 156.325 34.7284C155.741 30.6537 153.264 28.5809 149.163 28.0277C147.299 27.7763 145.398 27.7979 143.383 27.7162C143.445 27.5533 143.63 27.2194 143.831 27.2094C147.064 27.0486 150.274 27.1055 153.193 28.7899C155.667 30.2176 156.792 32.6141 157.077 35.2491C157.375 38.0007 157.399 40.8309 157.128 43.5858C156.478 50.1996 151.268 52.9351 145.478 52.3872C144.758 52.3191 144.058 52.0461 143.304 51.7724Z" fill="#E5B92E"/>
<path d="M143.086 39.3099C143.107 43.3234 143.127 47.337 143.159 51.4828C143.002 51.2046 142.687 50.7948 142.685 50.3835C142.656 42.9919 142.664 35.6002 142.831 28.1679C142.917 28.4443 143.004 28.7205 143.138 29.0728C143.184 32.1038 143.183 35.0589 143.11 38.241C143.054 38.7486 143.07 39.0293 143.086 39.3099Z" fill="#E5B92E"/>
<path d="M18.2284 44.2831C18.2847 44.3607 18.3016 44.4899 18.2939 44.7145C18.2429 44.6515 18.2154 44.4931 18.2284 44.2831Z" fill="#E5B92E"/>
<path d="M18.2434 35.731C18.2856 35.748 18.2996 35.7954 18.2922 35.914C18.2008 35.9235 18.1817 35.849 18.2434 35.731Z" fill="#E5B92E"/>
<path d="M32.5085 75.6659C28.6668 77.6935 24.5989 77.2264 20.5757 77.1255C19.9195 77.109 19.2652 77.0139 18.4867 76.9464C18.3633 69.7855 18.3628 62.6334 18.3628 55.2816C22.9732 55.1933 27.5956 54.802 31.8162 57.3222C33.9978 58.6249 35.3335 60.6231 35.514 63.0827C35.71 65.7524 35.563 68.4666 35.3358 71.1418C35.1778 73.0009 34.0956 74.4858 32.5085 75.6659ZM18.9064 60.8865C18.9069 65.5821 18.9266 70.2779 18.8926 74.9732C18.8853 75.9889 19.1882 76.4344 20.2654 76.4125C22.851 76.3599 25.4407 76.4658 28.0243 76.3772C31.9149 76.2437 34.303 74.1457 34.8087 70.2901C35.078 68.2366 35.1499 66.1279 35.0359 64.0593C34.8274 60.2768 32.2335 57.2026 28.5691 56.5972C25.7901 56.1382 22.9383 56.1248 20.1194 55.9058C19.1768 55.8326 18.8683 56.3013 18.8984 57.1875C18.9371 58.3245 18.9069 59.4638 18.9064 60.8865Z" fill="#E5B92E"/>
<path d="M184.68 75.3716C184.574 75.2487 184.519 75.1799 184.401 75.0786C182.712 72.8168 182.109 70.2905 182.161 67.4479C184.248 67.3189 186.324 67.3151 188.533 67.3024C188.828 67.8705 189.006 68.4435 189.148 69.0252C189.641 71.0439 191.233 72.4091 193.409 72.6689C193.409 69.5681 193.409 66.466 193.435 63.2113C193.46 63.0586 193.505 63.009 193.606 63.0565C193.796 63.2106 193.962 63.3166 193.963 63.4242C193.994 66.4467 194.051 69.4702 193.995 72.4914C193.98 73.2878 193.395 73.5867 192.565 73.2394C190.616 72.4242 188.982 71.3366 188.535 69.066C188.365 68.2034 187.944 67.7937 186.937 67.9719C186.029 68.1324 185.065 68.074 184.138 67.9823C183.452 67.9144 183.012 67.974 182.995 68.7729C182.938 71.4059 183.539 73.9101 185.827 75.3564C187.608 76.4819 189.764 77.0072 191.74 77.8308C192.259 78.0472 192.729 78.3812 193.2 78.6799C193.178 78.6986 193.133 78.7355 193.133 78.7355C190.302 78.2959 187.504 77.7663 185.132 75.7898C184.942 75.642 184.842 75.5291 184.68 75.3716Z" fill="#E5B92E"/>
<path d="M185.575 45.2599C187.913 43.6228 190.479 42.8512 193.327 42.5011C193.463 42.5027 193.506 42.5414 193.471 42.6383C192.529 43.0492 191.643 43.4732 190.71 43.6596C184.28 44.9449 182.111 49.9639 183.407 55.6904C183.662 56.8167 184.341 58.1528 185.247 58.7609C187.128 60.0242 189.294 60.8604 191.338 61.8806C192.067 62.2442 192.783 62.6322 193.505 63.0091C193.505 63.0091 193.46 63.0586 193.438 63.0835C191.659 62.5697 189.84 62.1806 188.158 61.466C181.582 58.6719 180.23 50.1984 185.575 45.2599Z" fill="#E5B92E"/>
<path d="M206.674 60.7839C207.084 61.1728 207.403 61.5256 207.8 61.9238C210.153 65.8123 210.137 69.7546 207.936 73.5337C205.662 77.4375 201.625 78.2933 197.502 78.8347C197.605 79.8832 197.702 80.8617 197.776 81.9643C196.264 82.0726 194.775 82.0565 193.191 81.9749C193.101 80.9249 193.106 79.9407 193.122 78.846C193.133 78.7357 193.178 78.6986 193.298 78.7261C193.61 79.5939 193.803 80.4343 193.997 81.2807C195.009 81.3261 196.006 81.3709 197.013 81.4161C196.896 78.3673 196.897 78.3688 199.76 77.8312C200.176 77.7529 200.593 77.6695 201.003 77.5615C205.251 76.4414 208.108 73.9873 208.716 69.4106C209.167 66.0205 208.374 61.8498 204.802 60.3255C202.82 59.4798 200.725 58.9039 198.696 58.1647C198.159 57.9691 197.679 57.6187 197.198 57.3174C197.225 57.2953 197.277 57.2515 197.277 57.2515C200.632 57.7402 203.808 58.7091 206.674 60.7839Z" fill="#E5B92E"/>
<path d="M193.283 41.7377C193.234 40.9155 193.231 40.164 193.244 39.2889C194.653 39.1549 196.044 39.1444 197.563 39.156C197.69 40.2609 197.69 41.3435 197.69 42.6143C203.135 43.4249 207.266 45.9004 207.668 52.3486C207.181 52.4783 206.699 52.4904 205.982 52.5005C205.355 52.5132 204.962 52.5278 204.57 52.5424C204.442 52.5296 204.315 52.5167 204.093 52.5234C201.654 53.1651 200.674 51.5873 199.732 49.7927C199.705 49.6829 199.756 49.6266 199.856 49.6373C200.249 49.8655 200.72 50.0283 200.806 50.3096C201.342 52.0611 202.689 52.0162 204.093 51.9184C204.422 51.8954 204.755 51.9167 205.086 51.9152C206.91 51.9074 207.14 51.4619 206.572 49.6566C205.441 46.0587 202.769 44.4006 199.323 43.6758C197.053 43.1983 196.996 43.2249 196.923 40.8735C196.889 39.7656 196.295 39.6927 195.451 39.6786C194.549 39.6635 194.028 39.8751 194.026 40.9332C194.026 41.4695 193.69 42.0055 193.506 42.5417C193.506 42.5417 193.463 42.503 193.441 42.4838C193.389 42.246 193.359 42.0271 193.283 41.7377Z" fill="#E5B92E"/>
<path d="M199.679 49.7109C198.987 49.4171 198.319 49.0951 197.216 48.5631C197.216 51.5791 197.216 54.2922 197.246 57.1285C197.277 57.2516 197.225 57.2955 197.098 57.2696C196.852 56.8086 196.638 56.3753 196.63 55.938C196.594 54.0893 196.54 52.2343 196.661 50.3927C196.708 49.6827 197.204 49.0025 197.496 48.3087C198.249 48.748 199.002 49.1873 199.756 49.6266C199.756 49.6266 199.705 49.6828 199.679 49.7109Z" fill="#E5B92E"/>
<path d="M204.649 52.5923C204.962 52.5278 205.354 52.5131 205.863 52.5203C205.562 52.5755 205.146 52.6089 204.649 52.5923Z" fill="#E5B92E"/>
<path d="M143.129 39.2128C143.07 39.0291 143.054 38.7489 143.086 38.3737C143.146 38.5582 143.159 38.8368 143.129 39.2128Z" fill="#E5B92E"/>
<path d="M201.937 66.243C203.193 66.6567 203.795 68.6068 203.012 69.9765C201.847 72.0122 199.929 72.9719 197.718 73.3439C197.413 73.3952 196.685 72.7662 196.674 72.4348C196.588 69.8381 196.59 67.2363 196.649 64.638C196.674 63.562 197.345 63.045 198.378 63.514C199.713 64.1206 201.298 64.4239 201.849 66.0951C200.389 65.3422 199.02 64.5283 197.34 63.5293C197.34 66.9577 197.34 69.8764 197.34 72.7909C199.455 72.3919 200.766 71.716 201.771 70.4684C201.744 70.4522 201.784 70.5 201.873 70.4415C202.949 68.997 202.828 67.6177 201.937 66.243Z" fill="#E5B92E"/>
<path d="M193.215 56.1908C192.971 56.343 192.712 56.6467 192.486 56.6239C190.195 56.3936 188.488 54.1542 188.667 51.6804C188.795 49.9167 190.999 48.1004 192.969 48.1459C193.034 48.1474 193.096 48.2708 193.17 48.4379C193.18 48.5384 193.146 48.5711 193.048 48.5872C192.375 48.8033 191.775 48.9508 191.23 49.2123C189.054 50.256 188.428 53.0282 190.142 54.5877C190.957 55.3286 192.153 55.6485 193.186 56.1674C193.195 56.1757 193.215 56.1908 193.215 56.1908Z" fill="#E5B92E"/>
<path d="M193.197 48.5229C193.397 48.755 193.733 49.0006 193.737 49.2511C193.768 51.3829 193.745 53.5157 193.714 55.6479C193.712 55.8009 193.521 55.9512 193.317 56.1469C193.215 56.191 193.195 56.1758 193.173 56.0364C193.149 53.4551 193.147 51.0132 193.146 48.5713C193.146 48.5713 193.18 48.5386 193.197 48.5229Z" fill="#E5B92E"/>
<path d="M201.798 70.4847C200.766 71.7161 199.455 72.3919 197.34 72.7909C197.34 69.8764 197.34 66.9577 197.34 63.5293C199.02 64.5283 200.389 65.3423 201.846 66.1976C201.934 66.2391 201.994 66.1859 201.965 66.2145C202.828 67.6177 202.949 68.9971 201.857 70.3187C202.313 66.9732 201.289 65.4403 198.027 64.9565C198.027 67.2971 198.027 69.6068 198.027 72.0519C199.324 71.5125 200.561 70.9986 201.798 70.4847Z" fill="#E5B92E"/>
<path d="M193.048 48.5872C193.148 51.013 193.149 53.4549 193.163 56.028C192.153 55.6486 190.957 55.3286 190.142 54.5877C188.428 53.0282 189.054 50.256 191.23 49.2123C191.775 48.9508 192.375 48.8033 193.048 48.5872ZM192.146 49.6541C190.526 50.1327 189.747 51.0475 189.824 52.3837C189.909 53.8631 190.704 54.7262 192.36 55.0051C192.36 53.2043 192.36 51.4253 192.397 49.6255L192.4 49.5761C192.4 49.5761 192.356 49.642 192.146 49.6541Z" fill="#E5B92E"/>
<path d="M201.771 70.4684C200.561 70.9985 199.324 71.5125 198.027 72.0519C198.027 69.6068 198.027 67.2971 198.027 64.9565C201.289 65.4403 202.313 66.9734 201.769 70.3774C201.784 70.5003 201.744 70.4522 201.771 70.4684Z" fill="#E5B92E"/>
<path d="M192.36 49.6463C192.36 51.4253 192.36 53.2043 192.36 55.0051C190.704 54.7262 189.909 53.8631 189.824 52.3837C189.747 51.0475 190.525 50.1328 192.252 49.6494C192.357 49.6446 192.36 49.6463 192.36 49.6463Z" fill="#E5B92E"/>
<path d="M192.357 49.6434C192.356 49.6422 192.4 49.5761 192.4 49.5761C192.4 49.5761 192.397 49.6256 192.379 49.636C192.36 49.6463 192.358 49.6446 192.357 49.6434Z" fill="#E5B92E"/>
</g>
<g filter="url(#filter1_f_4066_2063)">
<path d="M-20.8965 46L-60 1L-45.1034 1L-6 46L-45.1034 91H-60L-20.8965 46Z" fill="white"/>
</g>
</g>
<defs>
<filter id="filter0_d_4066_2063" x="-21.2134" y="-22.0057" width="275.284" height="136.995" filterUnits="userSpaceOnUse" color-interpolation-filters="sRGB">
<feFlood flood-opacity="0" result="BackgroundImageFix"/>
<feColorMatrix in="SourceAlpha" type="matrix" values="0 0 0 0 0 0 0 0 0 0 0 0 0 0 0 0 0 0 127 0" result="hardAlpha"/>
<feOffset dx="1" dy="1"/>
<feGaussianBlur stdDeviation="12"/>
<feComposite in2="hardAlpha" operator="out"/>
<feColorMatrix type="matrix" values="0 0 0 0 0 0 0 0 0 0 0 0 0 0 0 0 0 0 0.1 0"/>
<feBlend mode="normal" in2="BackgroundImageFix" result="effect1_dropShadow_4066_2063"/>
<feBlend mode="normal" in="SourceGraphic" in2="effect1_dropShadow_4066_2063" result="shape"/>
</filter>
<filter id="filter1_f_4066_2063" x="-75" y="-14" width="84" height="120" filterUnits="userSpaceOnUse" color-interpolation-filters="sRGB">
<feFlood flood-opacity="0" result="BackgroundImageFix"/>
<feBlend mode="normal" in="SourceGraphic" in2="BackgroundImageFix" result="shape"/>
<feGaussianBlur stdDeviation="7.5" result="effect1_foregroundBlur_4066_2063"/>
</filter>
<clipPath id="clip0_4066_2063">
<rect width="230" height="90" fill="white"/>
</clipPath>
</defs>
</svg>
